RobotoCondensed-Italic.ufo
<glyph name="exclam" format="1">
  <advance width="502.46"/>
  <unicode hex="0021"/>
  <outline>
    <contour>
      <point x="500.79300215900707" y="1455.9173596667433" type="line"/>
      <point x="303.40304136209471" y="1455.9463823691613" type="line"/>
      <point x="136.74057379177202" y="412.03119019579964" type="line"/>
      <point x="305.02456973929799" y="412.08017031024099" type="line"/>
    </contour>
    <contour>
      <point x="66.125663236408045" y="94.486983310465305" type="curve" smooth="yes"/>
      <point x="65.618150068200734" y="32.478584459515702"/>
      <point x="107.00561706195161" y="-14.9738189857415"/>
      <point x="170.72729785887611" y="-13.191281896723792" type="curve" smooth="yes"/>
      <point x="234.43343042995056" y="-11.409179750552843"/>
      <point x="273.9050918868536" y="38.1743062571202"/>
      <point x="274.4642814730903" y="99.762767347817856" type="curve" smooth="yes"/>
      <point x="275.02817626189375" y="161.86945372800807"/>
      <point x="234.27124263346752" y="210.96717207813344"/>
      <point x="169.88045310085181" y="209.11710190544451" type="curve" smooth="yes"/>
      <point x="105.69629003088862" y="207.27296850505201"/>
      <point x="66.630413636244938" y="156.15782472689386"/>
    </contour>
  </outline>
</glyph>
<glyph name="numbersign" format="1">
  <advance width="1103.86"/>
  <unicode hex="0023"/>
  <outline>
    <contour>
      <point x="476.06962119399589" y="0.0" type="line"/>
      <point x="621.29414490268937" y="0.0" type="line"/>
      <point x="759.61324118843572" y="409.80331773660129" type="line"/>
      <point x="950.49767248548005" y="410.0898650359436" type="line"/>
      <point x="975.99083468551839" y="554.89086475359136" type="line"/>
      <point x="808.12381582394232" y="555.1757084908462" type="line"/>
      <point x="922.0543309947318" y="893.79488769325303" type="line"/>
      <point x="1095.4719397376737" y="894.09128144792112" type="line"/>
      <point x="1121.1362111268418" y="1039.8984265259094" type="line"/>
      <point x="970.82920856962528" y="1040.1517743540569" type="line"/>
      <point x="1111.1504878197525" y="1455.8152963597688" type="line"/>
      <point x="965.93638474301315" y="1455.8292896608202" type="line"/>
      <point x="825.385323218076" y="1040.1763464733067" type="line"/>
      <point x="641.77566960674847" y="1040.1556984606011" type="line"/>
      <point x="782.3247811538763" y="1455.8149920582139" type="line"/>
      <point x="637.09913449087321" y="1455.8306857136774" type="line"/>
      <point x="496.72021175124314" y="1040.1945621303507" type="line"/>
      <point x="272.97176743995186" y="1039.9087126884176" type="line"/>
      <point x="247.15235857111122" y="894.1118145519996" type="line"/>
      <point x="448.05664356158456" y="893.82593217367298" type="line"/>
      <point x="333.93170912002961" y="555.17717362653525" type="line"/>
      <point x="126.82664320126882" y="554.911908208966" type="line"/>
      <point x="101.25028801710279" y="410.10544579981627" type="line"/>
      <point x="285.55840945332392" y="409.83928694372594" type="line"/>
      <point x="147.24078158045626" y="0.0" type="line"/>
      <point x="292.45616124383446" y="0.0" type="line"/>
      <point x="430.97972467978411" y="409.82406461602062" type="line"/>
      <point x="614.58939277402567" y="409.84473214191502" type="line"/>
    </contour>
    <contour>
      <point x="479.14196139793853" y="555.18271326098113" type="line"/>
      <point x="593.41527702257736" y="893.78454700210318" type="line"/>
      <point x="776.99572849665572" y="893.8278499000578" type="line"/>
      <point x="662.57747821005523" y="555.1996030241063" type="line"/>
    </contour>
  </outline>
</glyph>
<glyph name="dollar" format="1">
  <advance width="984.55"/>
  <unicode hex="0024"/>
  <outline>
    <contour>
      <point x="844.27798395063394" y="387.12411814131184" type="curve" smooth="yes"/>
      <point x="860.25141940158665" y="602.47365865996881"/>
      <point x="758.42416339913848" y="721.22923623592351"/>
      <point x="575.73084824827492" y="814.09034339852883" type="curve" smooth="yes"/>
      <point x="467.10940586719255" y="869.30148997374476"/>
      <point x="401.1260511141179" y="946.87011497417268"/>
      <point x="414.07256250987655" y="1073.0188693959501" type="curve" smooth="yes"/>
      <point x="425.67849326710302" y="1186.1052186196612"/>
      <point x="484.90995096861548" y="1310.5399440139845"/>
      <point x="616.27180456258498" y="1305.9831628066697" type="curve" smooth="yes"/>
      <point x="757.07673371916155" y="1301.0988129172324"/>
      <point x="753.71989682215531" y="1102.8160823288438"/>
      <point x="746.74337194031034" y="1004.957160376963" type="curve"/>
      <point x="932.78228800814475" y="1004.7952875987453" type="line"/>
      <point x="945.70362873677948" y="1184.7404621916703"/>
      <point x="920.88512221900237" y="1411.6328328780155"/>
      <point x="717.30138638652579" y="1467.9625041016727" type="curve"/>
      <point x="758.27627161430883" y="1694.6956187241647" type="line"/>
      <point x="609.33602540088862" y="1695.1304778414685" type="line"/>
      <point x="569.24683505381211" y="1471.3507729614555" type="line"/>
      <point x="361.23857748193223" y="1434.1981536755352"/>
      <point x="245.07306795195524" y="1275.4771000442549"/>
      <point x="229.48414302414398" y="1069.0485883949129" type="curve" smooth="yes"/>
      <point x="213.26231429403938" y="854.23916590472527"/>
      <point x="319.69784623204919" y="729.63994892205528"/>
      <point x="503.24139088988136" y="639.88229339944075" type="curve" smooth="yes"/>
      <point x="607.80979617614764" y="588.74557313106425"/>
      <point x="672.01728122072109" y="505.09957031610583"/>
      <point x="658.92713417034986" y="385.50405487136538" type="curve" smooth="yes"/>
      <point x="644.46650020842003" y="253.38735933847062"/>
      <point x="557.36420879584057" y="146.29766872090059"/>
      <point x="416.80625163911571" y="150.36993958887257" type="curve" smooth="yes"/>
      <point x="269.47980909141836" y="154.63830825476015"/>
      <point x="258.63958084254676" y="318.15567670579674"/>
      <point x="266.61906856947212" y="430.97782945436126" type="curve"/>
      <point x="79.038286319984351" y="431.37062077397837" type="line"/>
      <point x="66.806886485948368" y="240.1662758053823"/>
      <point x="116.16694804384221" y="33.496954468685502"/>
      <point x="326.73113578479649" y="-14.020537782207827" type="curve"/>
      <point x="291.01563980239979" y="-207.67936011252618" type="line"/>
      <point x="438.01129950934524" y="-208.21075212797862" type="line"/>
      <point x="473.16877384129816" y="-15.805415667477616" type="line"/>
      <point x="692.97890661644624" y="16.360516434205699"/>
      <point x="827.79341483630117" y="164.88361168796297"/>
    </contour>
  </outline>
</glyph>
<glyph name="percent" format="1">
  <advance width="1254.21"/>
  <unicode hex="0025"/>
  <outline>
    <contour>
      <point x="192.40946725414568" y="1099.1414320331442" type="line" smooth="yes"/>
      <point x="183.51449258641921" y="954.94150871149714"/>
      <point x="251.8987012804827" y="802.9132908346354"/>
      <point x="414.44451415334686" y="799.21380742380279" type="curve" smooth="yes"/>
      <point x="583.19789036174609" y="795.37304213572202"/>
      <point x="678.68299822344841" y="947.52289198201765"/>
      <point x="694.10812624170194" y="1099.0681119157525" type="curve" smooth="yes"/>
      <point x="700.59314673980555" y="1175.8737441589496" type="line" smooth="yes"/>
      <point x="709.69399616487806" y="1320.8499963481008"/>
      <point x="642.78615683442672" y="1474.2245172057076"/>
      <point x="478.74316604935359" y="1477.8983606635991" type="curve" smooth="yes"/>
      <point x="309.01441894898005" y="1481.6995401237309"/>
      <point x="213.93648089171239" y="1327.5030347109466"/>
      <point x="198.75812608535648" y="1175.4250370586817" type="curve" smooth="yes"/>
    </contour>
    <contour>
      <point x="336.42727396677748" y="1176.4096228396868" type="line" smooth="yes"/>
      <point x="345.61001745412614" y="1250.4869555541584"/>
      <point x="383.82245061444831" y="1354.51055616333"/>
      <point x="475.05781111341162" y="1352.2137347934688" type="curve" smooth="yes"/>
      <point x="562.69318487250632" y="1350.007541952175"/>
      <point x="569.76635418598403" y="1241.9574833641893"/>
      <point x="564.67378561126657" y="1176.8654768489416" type="curve" smooth="yes"/>
      <point x="556.77273863167966" y="1098.5312362743068" type="line" smooth="yes"/>
      <point x="547.38157795449058" y="1024.8635387356005"/>
      <point x="509.05185223765119" y="922.79770697572781"/>
      <point x="418.61700716350947" y="925.05334213318088" type="curve" smooth="yes"/>
      <point x="332.17258304696344" y="927.2094478028838"/>
      <point x="324.15904311637792" y="1032.8550085711031"/>
      <point x="328.87529728966274" y="1097.5122398816925" type="curve" smooth="yes"/>
    </contour>
    <contour>
      <point x="1083.6882658930758" y="1238.6898209935769" type="line"/>
      <point x="985.99433387514227" y="1313.7277899060682" type="line"/>
      <point x="215.91139505848093" y="186.35497187765756" type="line"/>
      <point x="312.59541612374295" y="111.26934469315555" type="line"/>
    </contour>
    <contour>
      <point x="615.91166635012803" y="279.12594168188446" type="line" smooth="yes"/>
      <point x="607.05906097886714" y="134.68233748458823"/>
      <point x="674.72184005024587" y="-18.388920822629252"/>
      <point x="837.92945561130409" y="-22.097149600699332" type="curve" smooth="yes"/>
      <point x="1006.981974558245" y="-25.938180018362395"/>
      <point x="1102.3203085823625" y="127.50390429686294"/>
      <point x="1117.6657498521627" y="279.05285388060213" type="curve" smooth="yes"/>
      <point x="1124.2073554591075" y="356.87357308109915" type="line" smooth="yes"/>
      <point x="1133.1794199106178" y="501.33425897578718"/>
      <point x="1065.2982845233198" y="654.29856867418118"/>
      <point x="902.12781391990188" y="657.99375645421458" type="curve" smooth="yes"/>
      <point x="732.86792734110202" y="661.826846241986"/>
      <point x="637.41425120100394" y="508.35040709146517"/>
      <point x="622.31751362398597" y="356.50464999043862" type="curve" smooth="yes"/>
    </contour>
    <contour>
      <point x="760.08148210848776" y="357.42152245155398" type="line" smooth="yes"/>
      <point x="769.15444055202647" y="431.40072294932463"/>
      <point x="807.49585274186234" y="534.84616104478289"/>
      <point x="898.46031731031348" y="532.55870838695887" type="curve" smooth="yes"/>
      <point x="985.78940002431955" y="530.36267344840144"/>
      <point x="993.29915370524657" y="422.93972154141574"/>
      <point x="988.30854788946931" y="357.90339997473382" type="curve" smooth="yes"/>
      <point x="980.42143851201081" y="278.47636198812137" type="line" smooth="yes"/>
      <point x="971.17862034012444" y="204.57188239815841"/>
      <point x="933.61549778360859" y="101.01534812694399"/>
      <point x="842.50069057999292" y="103.24271126969856" type="curve" smooth="yes"/>
      <point x="755.48118288815431" y="105.36996204355255"/>
      <point x="747.90190543377651" y="212.41234015417302"/>
      <point x="752.53414070165979" y="277.25382382641402" type="curve" smooth="yes"/>
    </contour>
  </outline>
</glyph>
<glyph name="ampersand" format="1">
  <advance width="1083.49"/>
  <unicode hex="0026"/>
  <outline>
    <contour>
      <point x="761.69642681169023" y="0.0" type="line"/>
      <point x="971.66574493673545" y="0.0" type="line"/>
      <point x="843.22088533991234" y="258.82483135800987" type="line"/>
      <point x="940.42065224966007" y="379.86247129116441"/>
      <point x="985.38296959660977" y="523.29811181685591"/>
      <point x="1000.8730058414457" y="676.28968666346373" type="curve"/>
      <point x="836.77609576310977" y="676.19146331259526" type="line"/>
      <point x="823.86735153220457" y="585.52521112678437"/>
      <point x="797.48776432034867" y="501.77970092129976"/>
      <point x="754.57141866659367" y="420.84489464459028" type="curve"/>
      <point x="580.5464691270563" y="763.450894541602" type="line"/>
      <point x="688.10429945762178" y="845.59155934159344" type="line" smooth="yes"/>
      <point x="798.0454131785666" y="929.97744045270042"/>
      <point x="879.10329871163174" y="1029.1996436495006"/>
      <point x="887.57584237818526" y="1172.6861417521436" type="curve" smooth="yes"/>
      <point x="897.299427719189" y="1337.3596169790173"/>
      <point x="787.44544512488835" y="1472.2003163406914"/>
      <point x="619.23297863550374" y="1476.5001871364673" type="curve" smooth="yes"/>
      <point x="405.15895094910923" y="1481.9723776286085"/>
      <point x="283.56903093313969" y="1309.6196360799267"/>
      <point x="268.8860979960773" y="1111.0597013356428" type="curve" smooth="yes"/>
      <point x="260.24689721335773" y="994.23024015016108"/>
      <point x="309.78417003383248" y="889.69755543595443"/>
      <point x="358.24472854779407" y="786.80409059155329" type="curve"/>
      <point x="215.38313222928156" y="687.68125365649587"/>
      <point x="81.387999138791741" y="572.28488090284293"/>
      <point x="66.882534800853549" y="387.49886149233913" type="curve" smooth="yes"/>
      <point x="49.563591858460768" y="166.87176178949096"/>
      <point x="180.08635704046259" y="-15.245065571513821"/>
      <point x="410.08908339214395" y="-19.489228764757279" type="curve" smooth="yes"/>
      <point x="524.40734914933182" y="-21.598705393743916"/>
      <point x="629.14428197214625" y="26.265413254004613"/>
      <point x="714.83752923194947" y="99.117993273949423" type="curve"/>
    </contour>
    <contour>
      <point x="451.00586751592505" y="1117.9020634954713" type="curve" smooth="yes"/>
      <point x="460.43393803338967" y="1201.1202341165517"/>
      <point x="506.05776276307358" y="1318.096162656223"/>
      <point x="606.59643894658166" y="1317.6087108678178" type="curve" smooth="yes"/>
      <point x="685.50547700302502" y="1317.226128232139"/>
      <point x="719.7889664730817" y="1243.2237419552723"/>
      <point x="713.42506378564735" y="1173.3410245074892" type="curve" smooth="yes"/>
      <point x="704.79198662405668" y="1078.5402518338926"/>
      <point x="654.86575666123827" y="1018.8786321624591"/>
      <point x="582.05741175976766" y="963.07340990428554" type="curve" smooth="yes"/>
      <point x="504.61533359328337" y="903.33821445952856" type="line"/>
      <point x="474.21823229614847" y="970.4074298433701"/>
      <point x="442.45287543236253" y="1042.4078939077303"/>
    </contour>
    <contour>
      <point x="256.55952437053111" y="387.02598798553788" type="curve" smooth="yes"/>
      <point x="268.7868575233266" y="482.85523978261392"/>
      <point x="332.39263740686505" y="568.08658448939082"/>
      <point x="404.26910642795599" y="628.85320604875892" type="curve" smooth="yes"/>
      <point x="436.24502018159262" y="653.5281903102715" type="line"/>
      <point x="634.82327651721437" y="243.91719421872503" type="line"/>
      <point x="573.83451611147086" y="190.90847564144946"/>
      <point x="502.35398712834592" y="137.9834994768955"/>
      <point x="417.34539444061795" y="139.85865038550801" type="curve" smooth="yes"/>
      <point x="281.08881553670687" y="142.86424828635393"/>
      <point x="241.68620773339467" y="270.4593755225477"/>
    </contour>
  </outline>
</glyph>
<glyph name="parenleft" format="1">
  <advance width="634.38"/>
  <unicode hex="0028"/>
  <outline>
    <contour>
      <point x="121.61235765251389" y="577.85403462449426" type="line" smooth="yes"/>
      <point x="75.71229817865202" y="240.70512907104103"/>
      <point x="107.84847462138526" y="-224.82184881717538"/>
      <point x="384.27802410119119" y="-469.25842642443661" type="curve"/>
      <point x="432.48055004861453" y="-353.38662365144069" type="line"/>
      <point x="236.93912030124778" y="-117.27375617148806"/>
      <point x="269.85923041259588" y="301.81916933371275"/>
      <point x="310.04703679757597" y="579.41833880293586" type="curve" smooth="yes"/>
      <point x="312.03260666864367" y="592.90111988216074" type="line" smooth="yes"/>
      <point x="363.40060858012293" y="931.96669941660116"/>
      <point x="471.14086428595817" y="1272.8702628986127"/>
      <point x="724.57875816808337" y="1515.2930777381234" type="curve"/>
      <point x="699.07615532224918" y="1645.8838475721236" type="line"/>
      <point x="349.02093568317503" y="1436.7410566108888"/>
      <point x="178.57947769526555" y="968.75206710758289"/>
      <point x="123.07442715470059" y="588.49145765025241" type="curve" smooth="yes"/>
    </contour>
  </outline>
</glyph>
<glyph name="parenright" format="1">
  <advance width="643.11"/>
  <unicode hex="0029"/>
  <outline>
    <contour>
      <point x="508.4817655283565" y="597.45193029541247" type="line" smooth="yes"/>
      <point x="553.85142697385629" y="934.2455130649289"/>
      <point x="522.45056406136848" y="1400.336726809895"/>
      <point x="245.67997861491313" y="1644.2569777201022" type="curve"/>
      <point x="198.17749572318638" y="1527.3437332915851" type="line"/>
      <point x="386.92824808804312" y="1289.6864102403069"/>
      <point x="360.87588215435852" y="871.93528782434419"/>
      <point x="320.89552072385021" y="595.56020349643927" type="curve" smooth="yes"/>
      <point x="318.90215976495898" y="582.04885943456998" type="line" smooth="yes"/>
      <point x="267.22615781012104" y="241.32491069383605"/>
      <point x="159.16508342477425" y="-106.40892702054802"/>
      <point x="-94.900732682842744" y="-351.2043640414937" type="curve"/>
      <point x="-69.366308653630739" y="-470.92504577956623" type="line"/>
      <point x="281.29757679220916" y="-263.30191331799062"/>
      <point x="452.13364532752109" y="207.15951959893107"/>
      <point x="507.04421168214867" y="586.83603375483199" type="curve" smooth="yes"/>
    </contour>
  </outline>
</glyph>
<glyph name="plus" format="1">
  <advance width="988.43"/>
  <unicode hex="002B"/>
  <outline>
    <contour>
      <point x="899.44032659961556" y="603.08456553124688" type="line"/>
      <point x="932.0950420077736" y="787.90381873168178" type="line"/>
      <point x="620.22997584883808" y="788.07547652090068" type="line"/>
      <point x="693.15302889324187" y="1205.9286323814822" type="line"/>
      <point x="505.4723102601555" y="1205.937904899029" type="line"/>
      <point x="432.54106002630954" y="788.08610364268293" type="line"/>
      <point x="116.83131872113923" y="787.91704110741102" type="line"/>
      <point x="84.159605060854901" y="603.09169690408987" type="line"/>
      <point x="400.87204963729164" y="602.92982325828621" type="line"/>
      <point x="321.22363236698948" y="146.06631242761105" type="line"/>
      <point x="508.90623685961828" y="146.05785151097186" type="line"/>
      <point x="588.5479757558445" y="602.91249147340204" type="line"/>
    </contour>
  </outline>
</glyph>
<glyph name="hyphen" format="1">
  <advance width="488.88"/>
  <unicode hex="002D"/>
  <outline>
    <contour>
      <point x="464.00628162006728" y="694.90985566223264" type="line"/>
      <point x="60.015012231169223" y="694.91890084987836" type="line"/>
      <point x="31.604751385291152" y="535.09010262977415" type="line"/>
      <point x="435.59602077419152" y="535.08105744212719" type="line"/>
    </contour>
  </outline>
</glyph>
<glyph name="slash" format="1">
  <advance width="743.99"/>
  <unicode hex="002F"/>
  <outline>
    <contour>
      <point x="832.47888560169793" y="1455.756904289768" type="line"/>
      <point x="668.24718483880156" y="1455.7858348107218" type="line"/>
      <point x="-102.09379420564539" y="-124.75439842676165" type="line"/>
      <point x="63.105886335978951" y="-124.7837416162911" type="line"/>
    </contour>
  </outline>
</glyph>
<glyph name="zero" format="1">
  <advance width="984.55"/>
  <unicode hex="0030"/>
  <outline>
    <contour>
      <point x="912.35624353200888" y="842.39227118500798" type="line" smooth="yes"/>
      <point x="943.32143222413299" y="1088.0757401159271"/>
      <point x="957.17447901894025" y="1466.8427936786436"/>
      <point x="624.79938824437295" y="1476.3687377650654" type="curve" smooth="yes"/>
      <point x="278.9691701543972" y="1486.2803087953821"/>
      <point x="188.94354763031032" y="1117.50719726888"/>
      <point x="149.77010274176172" y="841.68303746605329" type="curve" smooth="yes"/>
      <point x="117.59426778250621" y="623.62076508085897" type="line" smooth="yes"/>
      <point x="86.577307172313766" y="381.85732351340744"/>
      <point x="70.802584729893226" y="-10.676224694934708"/>
      <point x="403.1416263385081" y="-20.439691852961381" type="curve" smooth="yes"/>
      <point x="750.98542458300108" y="-30.658658254997633"/>
      <point x="839.65052075711162" y="350.24302501218551"/>
      <point x="880.00934162937619" y="624.58791690507155" type="curve" smooth="yes"/>
    </contour>
    <contour>
      <point x="688.57074034960567" y="591.53227961611219" type="line" smooth="yes"/>
      <point x="668.25021801979733" y="443.16876442883625"/>
      <point x="629.03627009551008" y="126.45326326685225"/>
      <point x="415.51494782026055" y="138.51582072648745" type="curve" smooth="yes"/>
      <point x="229.3402371631291" y="149.0334735814919"/>
      <point x="285.3894855232287" y="480.41066140488329"/>
      <point x="299.2747764063098" y="591.00377071866376" type="curve" smooth="yes"/>
      <point x="340.90930007681806" y="876.49095609185258" type="line" smooth="yes"/>
      <point x="361.39852113767785" y="1026.1480061143907"/>
      <point x="402.23156034436886" y="1328.8571547003198"/>
      <point x="614.04405536703484" y="1317.411495892223" type="curve" smooth="yes"/>
      <point x="802.03136916606775" y="1307.2532724419771"/>
      <point x="744.927710607525" y="991.36260752810881"/>
      <point x="730.39412509144643" y="877.30036213442429" type="curve" smooth="yes"/>
    </contour>
  </outline>
</glyph>
<glyph name="one" format="1">
  <advance width="984.55"/>
  <unicode hex="0031"/>
  <outline>
    <contour>
      <point x="777.33538364083563" y="1463.9272677846409" type="line"/>
      <point x="743.7561551126081" y="1463.5695854621031" type="line"/>
      <point x="269.573297068535" y="1267.0015073779032" type="line"/>
      <point x="236.28379367698335" y="1079.7792189900936" type="line"/>
      <point x="552.53910168796949" y="1213.942958573241" type="line"/>
      <point x="341.53825772018882" y="0.0" type="line"/>
      <point x="529.21825486450132" y="0.0" type="line"/>
    </contour>
  </outline>
</glyph>
<glyph name="two" format="1">
  <advance width="984.55"/>
  <unicode hex="0032"/>
  <outline>
    <contour>
      <point x="841.42153307404044" y="159.92656130838748" type="line"/>
      <point x="270.40693023753431" y="160.31819727094225" type="line"/>
      <point x="646.90479611977787" y="577.98121733085679" type="line" smooth="yes"/>
      <point x="775.54331569504484" y="720.53915949764178"/>
      <point x="914.36778343953438" y="895.39809189265429"/>
      <point x="931.97444014146288" y="1094.2768877943085" type="curve" smooth="yes"/>
      <point x="950.64095719738555" y="1305.1275051834107"/>
      <point x="829.60946903536308" y="1471.7254164470473"/>
      <point x="610.8720541713642" y="1476.4543406348564" type="curve" smooth="yes"/>
      <point x="344.57239202254203" y="1482.2115217477626"/>
      <point x="183.18467928557638" y="1274.6624603642242"/>
      <point x="160.31817220377479" y="1025.7718310830537" type="curve"/>
      <point x="345.71836492028046" y="1026.5499610745044" type="line"/>
      <point x="364.72681773856914" y="1170.4938401198426"/>
      <point x="430.64363237138696" y="1324.6863623795098"/>
      <point x="601.34445391497911" y="1317.7138184300795" type="curve" smooth="yes"/>
      <point x="726.90150398718242" y="1312.5852429383342"/>
      <point x="751.34899119202498" y="1170.8666779317621"/>
      <point x="739.46112910820693" y="1070.4833810843984" type="curve" smooth="yes"/>
      <point x="720.92364934437626" y="913.94948787346959"/>
      <point x="600.97946993981691" y="783.5028453682379"/>
      <point x="502.21501279023153" y="669.78505216919996" type="curve" smooth="yes"/>
      <point x="39.769166620560426" y="149.50536849621088" type="line"/>
      <point x="16.222818446351724" y="0.0" type="line"/>
      <point x="815.81806422122486" y="0.0" type="line"/>
    </contour>
  </outline>
</glyph>
<glyph name="three" format="1">
  <advance width="984.55"/>
  <unicode hex="0033"/>
  <outline>
    <contour>
      <point x="464.93601825279677" y="661.82060289547462" type="line" smooth="yes"/>
      <point x="608.92376297561555" y="655.832637062652"/>
      <point x="648.42041237783019" y="540.86892613455746"/>
      <point x="636.15318351450844" y="411.60866218821491" type="curve" smooth="yes"/>
      <point x="623.43863403278044" y="277.63496362285139"/>
      <point x="553.44151140309896" y="134.66604911309511"/>
      <point x="399.30109621974907" y="140.10853674247727" type="curve" smooth="yes"/>
      <point x="264.74510246483828" y="144.85952518765066"/>
      <point x="239.06302376395828" y="271.6113676991518"/>
      <point x="245.94124995679607" y="383.10781090989144" type="curve"/>
      <point x="59.507795921422101" y="383.52331191102746" type="line"/>
      <point x="48.630533654910714" y="167.92998032172846"/>
      <point x="157.26807499376918" y="-14.577629456844127"/>
      <point x="389.03919321993652" y="-20.059775163643078" type="curve" smooth="yes"/>
      <point x="641.8203245641198" y="-26.038876462218248"/>
      <point x="801.48929472644033" y="177.69610382752651"/>
      <point x="821.05622059797361" y="415.07491490107077" type="curve" smooth="yes"/>
      <point x="831.78849314874981" y="545.27493277546012"/>
      <point x="804.91793274303723" y="679.67697532515592"/>
      <point x="679.6406778097039" y="743.74651608408465" type="curve"/>
      <point x="805.20380710876407" y="811.65066050298378"/>
      <point x="897.58798501281319" y="923.79026780814843"/>
      <point x="909.58162848825782" y="1070.2779933072486" type="curve" smooth="yes"/>
      <point x="927.27670295414998" y="1286.4017438883577"/>
      <point x="822.49509323907671" y="1472.1599839497499"/>
      <point x="590.06006533715811" y="1476.7439349370838" type="curve" smooth="yes"/>
      <point x="356.58753938468334" y="1481.3483468689499"/>
      <point x="198.65045101648872" y="1295.7525226874052"/>
      <point x="178.75220640459031" y="1074.6616739562178" type="curve"/>
      <point x="362.88810504000787" y="1075.7319583800522" type="line"/>
      <point x="380.24742559470508" y="1194.0596594423903"/>
      <point x="441.45234565169113" y="1321.5348779782207"/>
      <point x="579.90439587916376" y="1318.4160938944287" type="curve" smooth="yes"/>
      <point x="713.68612057299833" y="1315.4025140088881"/>
      <point x="732.46657389725385" y="1183.1162143904921"/>
      <point x="721.55333518712655" y="1074.6763807042034" type="curve" smooth="yes"/>
      <point x="707.17829800949266" y="931.83824784724789"/>
      <point x="619.24615987892025" y="823.73051197397626"/>
      <point x="469.75145980390516" y="821.39445274564707" type="curve" smooth="yes"/>
      <point x="365.37634767146699" y="822.64419781532581" type="line"/>
      <point x="339.70657630149788" y="663.09636145865045" type="line"/>
    </contour>
  </outline>
</glyph>
<glyph name="four" format="1">
  <advance width="984.55"/>
  <unicode hex="0034"/>
  <outline>
    <contour>
      <point x="30.4610670245129" y="459.77869334935372" type="line"/>
      <point x="8.44034322146058" y="333.19629204645759" type="line"/>
      <point x="538.45476401629128" y="332.9248001887068" type="line"/>
      <point x="480.19051093363055" y="0.0" type="line"/>
      <point x="666.90710424332121" y="0.0" type="line"/>
      <point x="725.05607631831492" y="332.91260461632561" type="line"/>
      <point x="877.03187744501065" y="333.06967335733447" type="line"/>
      <point x="905.12677309133187" y="492.90859813200768" type="line"/>
      <point x="752.57138409524862" y="493.05988806563005" type="line"/>
      <point x="919.74851672909995" y="1456.0066584625986" type="line"/>
      <point x="717.40854989708851" y="1455.6668934546033" type="line"/>
    </contour>
    <contour>
      <point x="246.72691609400704" y="493.29382653364439" type="line"/>
      <point x="683.39200143875848" y="1155.6415576946602" type="line"/>
      <point x="688.88804943895082" y="1164.9811643064943" type="line"/>
      <point x="565.73238378883059" y="493.04673467810494" type="line"/>
    </contour>
  </outline>
</glyph>
<glyph name="five" format="1">
  <advance width="984.55"/>
  <unicode hex="0035"/>
  <outline>
    <contour>
      <point x="354.30751802067431" y="689.36423164983296" type="line"/>
      <point x="407.57061461377657" y="741.38886119979895"/>
      <point x="455.4770598523217" y="780.16896728336394"/>
      <point x="533.93121571358233" y="778.50396599541489" type="curve" smooth="yes"/>
      <point x="688.25244505655075" y="775.22886803797451"/>
      <point x="706.79589419022579" y="586.61665116917243"/>
      <point x="695.4978855036918" y="469.59329535388588" type="curve" smooth="yes"/>
      <point x="682.22324810867406" y="332.09626748847046"/>
      <point x="615.36332298992147" y="135.39128149682344"/>
      <point x="445.34669442918812" y="140.68424766573057" type="curve" smooth="yes"/>
      <point x="313.44022575560768" y="144.79076643427481"/>
      <point x="282.73875011877936" y="274.67434097741244"/>
      <point x="277.33646692144362" y="383.80287412411104" type="curve"/>
      <point x="102.73074830583251" y="384.02907896403195" type="line"/>
      <point x="107.71048810885181" y="177.29412109205654"/>
      <point x="205.34696353266605" y="-15.673241813722054"/>
      <point x="434.397177671907" y="-21.397029682723719" type="curve" smooth="yes"/>
      <point x="713.33469956672343" y="-28.367462825651788"/>
      <point x="861.368844587985" y="220.18473495001328"/>
      <point x="883.07853606029119" y="470.76699800426195" type="curve" smooth="yes"/>
      <point x="900.76692314675006" y="674.9336980035946"/>
      <point x="845.74268057940412" y="953.3767237260156"/>
      <point x="589.77984969626004" y="953.96467419731141" type="curve" smooth="yes"/>
      <point x="522.50199140912514" y="954.11921244941311"/>
      <point x="462.90991310699314" y="930.60000517381582"/>
      <point x="407.42053606528629" y="894.27234050655363" type="curve"/>
      <point x="506.27980946481819" y="1274.8930642953485" type="line"/>
      <point x="967.38472390601726" y="1275.0573433489021" type="line"/>
      <point x="996.24079936351961" y="1455.9344003451483" type="line"/>
      <point x="373.94387695378418" y="1455.8002136969351" type="line"/>
      <point x="200.98387741321994" y="730.93909532759085" type="line"/>
    </contour>
  </outline>
</glyph>
<glyph name="six" format="1">
  <advance width="984.55"/>
  <unicode hex="0036"/>
  <outline>
    <contour>
      <point x="868.11436566073462" y="481.26722822440649" type="curve" smooth="yes"/>
      <point x="886.69043026297527" y="680.12623103653584"/>
      <point x="833.56259751869538" y="949.41641949857558"/>
      <point x="586.69371739425344" y="954.63103720939284" type="curve" smooth="yes"/>
      <point x="489.63189219919906" y="956.68127664196629"/>
      <point x="412.30517961546809" y="910.39590219436309"/>
      <point x="347.36978502072316" y="841.90775252072831" type="curve"/>
      <point x="419.57939420346185" y="1081.3220065691883"/>
      <point x="531.42863128983845" y="1294.8456396405024"/>
      <point x="815.48886262075439" y="1291.2888224444287" type="curve" smooth="yes"/>
      <point x="825.35326933386159" y="1290.8743849913847" type="line"/>
      <point x="841.39550860703389" y="1457.0940863852898" type="line"/>
      <point x="823.45750107640959" y="1457.2651814300236" type="line" smooth="yes"/>
      <point x="336.78641541424565" y="1456.2967461850676"/>
      <point x="191.13192411978611" y="1034.999379218284"/>
      <point x="132.26777473295465" y="622.73341282444346" type="curve" smooth="yes"/>
      <point x="121.30057138260968" y="542.78650614829769" type="line" smooth="yes"/>
      <point x="94.159636995386961" y="320.08691533392698"/>
      <point x="147.06893777677584" y="-12.536807521288026"/>
      <point x="430.63281687237384" y="-20.399559599667707" type="curve" smooth="yes"/>
      <point x="708.87757415403871" y="-28.114821326910114"/>
      <point x="845.42921333306322" y="238.41994775263981"/>
    </contour>
    <contour>
      <point x="309.48787568463177" y="536.43178854417613" type="curve" smooth="yes"/>
      <point x="317.77561235543482" y="606.83520242070438" type="line"/>
      <point x="359.40574749553366" y="695.50586924577931"/>
      <point x="435.71706789457943" y="798.34389867021764"/>
      <point x="545.76332307641871" y="794.52062997920234" type="curve" smooth="yes"/>
      <point x="692.53751373159832" y="789.4213454387716"/>
      <point x="693.34204709672088" y="574.51953416185074"/>
      <point x="683.3199784982736" y="471.8561442696556" type="curve" smooth="yes"/>
      <point x="670.5415014085911" y="340.95684311242599"/>
      <point x="609.28146636353426" y="132.57574662308559"/>
      <point x="441.12373734655262" y="141.64246764154839" type="curve" smooth="yes"/>
      <point x="283.56719499265404" y="150.13759434495526"/>
      <point x="299.3690003977801" y="439.17236486425907"/>
    </contour>
  </outline>
</glyph>
<glyph name="seven" format="1">
  <advance width="984.55"/>
  <unicode hex="0037"/>
  <outline>
    <contour>
      <point x="1033.9059834379975" y="1455.8623079062215" type="line"/>
      <point x="216.87451527641309" y="1455.9342057815738" type="line"/>
      <point x="191.27341914750207" y="1296.07139957921" type="line"/>
      <point x="808.63788167074711" y="1295.770654963804" type="line"/>
      <point x="123.65297631188501" y="0.0" type="line"/>
      <point x="327.86278774813189" y="0.0" type="line"/>
      <point x="1015.009028455754" y="1335.3894825728985" type="line"/>
    </contour>
  </outline>
</glyph>
<glyph name="eight" format="1">
  <advance width="984.55"/>
  <unicode hex="0038"/>
  <outline>
    <contour>
      <point x="832.85687680236242" y="403.56583006262127" type="curve" smooth="yes"/>
      <point x="843.15996966870455" y="533.02492208086812"/>
      <point x="804.89485947936168" y="665.5113811063942"/>
      <point x="697.92804296805218" y="745.52582876754877" type="curve"/>
      <point x="826.85703769403926" y="819.4713707716553"/>
      <point x="912.76187022756972" y="933.18230404573546"/>
      <point x="925.59255489998691" y="1084.4948389791105" type="curve" smooth="yes"/>
      <point x="942.80240654342811" y="1287.4509823558151"/>
      <point x="843.72510810688232" y="1471.1391722025817"/>
      <point x="623.75745085555309" y="1476.665013468529" type="curve" smooth="yes"/>
      <point x="386.18073887229804" y="1482.633214500034"/>
      <point x="240.66002900179123" y="1289.5100136585297"/>
      <point x="223.46371902024896" y="1067.3280420231292" type="curve" smooth="yes"/>
      <point x="214.52278549793533" y="951.80824502127689"/>
      <point x="245.94205615156119" y="833.82583250978712"/>
      <point x="335.24762891672168" y="755.92955687057326" type="curve"/>
      <point x="187.79618480779354" y="680.81975821895298"/>
      <point x="93.225656904949133" y="554.39149547054853"/>
      <point x="79.320916119736395" y="386.66002299975185" type="curve" smooth="yes"/>
      <point x="61.534524512700315" y="172.10459185046588"/>
      <point x="175.38017743346342" y="-14.694917219199343"/>
      <point x="404.01128502797263" y="-20.542291822516066" type="curve" smooth="yes"/>
      <point x="651.32542592743675" y="-26.867495954848891"/>
      <point x="814.17173346687514" y="168.78567988604738"/>
    </contour>
    <contour>
      <point x="738.45342282844149" y="1080.4377812546154" type="curve" smooth="yes"/>
      <point x="728.39439367989689" y="970.15274223809979"/>
      <point x="669.93364087841883" y="825.19697503766804"/>
      <point x="537.59921798604591" y="828.33237162832404" type="curve" smooth="yes"/>
      <point x="418.09682131802083" y="831.16373930197062"/>
      <point x="400.78866964989464" y="970.91353618084679"/>
      <point x="409.27991758564997" y="1063.5065616447826" type="curve" smooth="yes"/>
      <point x="419.348118714637" y="1173.29551264064"/>
      <point x="477.49384593182054" y="1321.1008331001267"/>
      <point x="610.19217199338277" y="1317.5611472948717" type="curve" smooth="yes"/>
      <point x="728.50254246372504" y="1314.4052556465169"/>
      <point x="746.78102365660948" y="1171.7398113696549"/>
    </contour>
    <contour>
      <point x="647.34189600155526" y="408.03821891395137" type="curve" smooth="yes"/>
      <point x="634.50766509111054" y="277.25041264884885"/>
      <point x="565.85025611145977" y="134.58369673328426"/>
      <point x="414.89715973397938" y="138.69537865323247" type="curve" smooth="yes"/>
      <point x="277.48773792516806" y="142.43815603799709"/>
      <point x="255.81981714693532" y="280.3305716043364"/>
      <point x="267.09318424513106" y="391.96167943720656" type="curve" smooth="yes"/>
      <point x="279.84080556924488" y="518.19114382433668"/>
      <point x="349.40344322004029" y="675.62046084107931"/>
      <point x="498.90101736635575" y="671.29699298572348" type="curve" smooth="yes"/>
      <point x="634.16949441956001" y="667.38503042899276"/>
      <point x="657.8518560515007" y="515.14043863072231"/>
    </contour>
  </outline>
</glyph>
<glyph name="nine" format="1">
  <advance width="984.55"/>
  <unicode hex="0039"/>
  <outline>
    <contour>
      <point x="889.64603559940952" y="827.23866182777806" type="curve" smooth="yes"/>
      <point x="897.65028976432836" y="886.20925557626708" type="line" smooth="yes"/>
      <point x="926.28476005369851" y="1115.5032420822793"/>
      <point x="893.58997483223106" y="1468.5577257901159"/>
      <point x="593.07652123582341" y="1476.2183790918591" type="curve" smooth="yes"/>
      <point x="313.97033757772442" y="1483.3333208084084"/>
      <point x="182.57656608264963" y="1208.4042826266893"/>
      <point x="159.48204833686179" y="967.44070551141658" type="curve" smooth="yes"/>
      <point x="140.662622773588" y="771.08258481378255"/>
      <point x="189.36827775690139" y="491.94541057268344"/>
      <point x="437.84977048544818" y="488.96911015931323" type="curve" smooth="yes"/>
      <point x="536.70473826653097" y="487.78502969424636"/>
      <point x="614.86410294567111" y="546.03169021894541"/>
      <point x="679.06181813882881" y="615.34282920706494" type="curve"/>
      <point x="609.35183823854607" y="362.86367335410046"/>
      <point x="501.17018082147825" y="160.69443906681894"/>
      <point x="205.48434281583906" y="164.85295914208118" type="curve" smooth="yes"/>
      <point x="196.66859204593948" y="165.22456611748615" type="line"/>
      <point x="180.61589881797016" y="0.0" type="line"/>
      <point x="197.59338182170512" y="0.0" type="line" smooth="yes"/>
      <point x="689.65350081176712" y="-4.4952341482877136"/>
      <point x="831.26289653196011" y="412.23320327184268"/>
    </contour>
    <contour>
      <point x="343.65142202906782" y="978.15843950498788" type="curve" smooth="yes"/>
      <point x="356.16661596515507" y="1105.3192937940755"/>
      <point x="415.27107980906146" y="1323.3036510432346"/>
      <point x="581.68536340903916" y="1314.5653998068749" type="curve" smooth="yes"/>
      <point x="740.23772378787567" y="1306.2399704678976"/>
      <point x="725.16530399296414" y="1011.0479200600748"/>
      <point x="714.83975755892925" y="913.69554531976189" type="curve" smooth="yes"/>
      <point x="705.17768624362918" y="834.50189667415395" type="line"/>
      <point x="661.10070889954227" y="754.22815768334658"/>
      <point x="583.76208919292571" y="646.30143091901334"/>
      <point x="479.44479378742153" y="649.75570838029478" type="curve" smooth="yes"/>
      <point x="331.0123059553901" y="654.67078018355642"/>
      <point x="333.56023031781393" y="875.62670365246413"/>
    </contour>
  </outline>
</glyph>
<glyph name="less" format="1">
  <advance width="884.64"/>
  <unicode hex="003C"/>
  <outline>
    <contour>
      <point x="667.92195554596276" y="195.7323112979046" type="line"/>
      <point x="702.60528967376706" y="392.27669129003687" type="line"/>
      <point x="264.55047995918682" y="637.38677398588129" type="line"/>
      <point x="787.86906038787777" y="887.42106260364778" type="line"/>
      <point x="826.69809618933743" y="1107.2426046828757" type="line"/>
      <point x="97.593327321314703" y="728.85727328634084" type="line"/>
      <point x="70.633731377122913" y="575.25277908714668" type="line"/>
    </contour>
  </outline>
</glyph>
<glyph name="equal" format="1">
  <advance width="949.63"/>
  <unicode hex="003D"/>
  <outline>
    <contour>
      <point x="892.05062396544008" y="981.90355064138498" type="line"/>
      <point x="210.62559267578035" y="981.91297761556621" type="line"/>
      <point x="180.45241286248887" y="812.09641693239382" type="line"/>
      <point x="861.87744415215695" y="812.08698995822124" type="line"/>
    </contour>
    <contour>
      <point x="819.97802870243288" y="565.90355816047315" type="line"/>
      <point x="138.55299741281556" y="565.91298513465335" type="line"/>
      <point x="108.37981759953728" y="396.09642445152969" type="line"/>
      <point x="789.80484888916101" y="396.08699747734948" type="line"/>
    </contour>
  </outline>
</glyph>
<glyph name="greater" format="1">
  <advance width="916.65"/>
  <unicode hex="003E"/>
  <outline>
    <contour>
      <point x="220.6455063465599" y="1096.5005562989941" type="line"/>
      <point x="186.93875277128819" y="905.47775111039141" type="line"/>
      <point x="660.32975008108679" y="655.20751588239818" type="line"/>
      <point x="99.860906629308076" y="399.39633413170412" type="line"/>
      <point x="61.833535185867518" y="184.94580835765063" type="line"/>
      <point x="829.76196571066339" y="564.29963282485915" type="line"/>
      <point x="856.96073433811057" y="717.96067264847841" type="line"/>
    </contour>
  </outline>
</glyph>
<glyph name="question" format="1">
  <advance width="846.81"/>
  <unicode hex="003F"/>
  <outline>
    <contour>
      <point x="458.54048567044561" y="410.9229393733338" type="line"/>
      <point x="472.78041840097183" y="504.31811758636275"/>
      <point x="500.8385684554039" y="591.11414439470138"/>
      <point x="568.8485098554163" y="659.70768501513976" type="curve" smooth="yes"/>
      <point x="694.55286843908038" y="786.49072362944935"/>
      <point x="832.65352029698886" y="914.21022332992993"/>
      <point x="849.41527613372671" y="1103.5976795516676" type="curve" smooth="yes"/>
      <point x="867.1161445929514" y="1303.5959663099468"/>
      <point x="769.68959991387942" y="1471.7880654341457"/>
      <point x="555.71450814973264" y="1476.878053193486" type="curve" smooth="yes"/>
      <point x="337.29583291771542" y="1482.0737438422261"/>
      <point x="191.83407304021759" y="1323.2733410231924"/>
      <point x="168.53807510297577" y="1115.1252871516481" type="curve"/>
      <point x="354.07243302710168" y="1116.2051641105977" type="line"/>
      <point x="372.54815981508011" y="1212.1488324581146"/>
      <point x="431.77340097186868" y="1311.3181658761762"/>
      <point x="542.92534116785475" y="1307.7793264167899" type="curve" smooth="yes"/>
      <point x="653.71945067137483" y="1304.251879519441"/>
      <point x="667.02905362328545" y="1186.6696883721047"/>
      <point x="655.98880108442336" y="1098.8757332188222" type="curve" smooth="yes"/>
      <point x="640.35183136273997" y="974.52790569890885"/>
      <point x="554.09738204868256" y="888.1627599640359"/>
      <point x="472.01519375962323" y="801.04533660316122" type="curve" smooth="yes"/>
      <point x="356.66676829560492" y="678.6209979662417"/>
      <point x="293.63653780738292" y="580.36505527299528"/>
      <point x="276.01563702055137" y="410.06397404684697" type="curve"/>
    </contour>
    <contour>
      <point x="211.47893722176315" y="94.168543147776774" type="curve" smooth="yes"/>
      <point x="210.99892879200286" y="32.458137760234834"/>
      <point x="251.45052460841504" y="-15.130685343664144"/>
      <point x="315.16561090557229" y="-13.3265049795135" type="curve" smooth="yes"/>
      <point x="378.77985198529984" y="-11.52518018649489"/>
      <point x="418.20328483710369" y="37.909982064290311"/>
      <point x="418.79280206785336" y="99.411864155897604" type="curve" smooth="yes"/>
      <point x="419.38827768570621" y="161.53536000527563"/>
      <point x="378.77336964989735" y="210.80723552637201"/>
      <point x="314.29104547744879" y="208.95580128332119" type="curve" smooth="yes"/>
      <point x="249.96440916563859" y="207.10883719298451"/>
      <point x="211.95723270634434" y="155.65873044151857"/>
    </contour>
  </outline>
</glyph>
<glyph name="at" format="1">
  <advance width="1520.96"/>
  <unicode hex="0040"/>
  <outline>
    <contour>
      <point x="888.57318184451958" y="-366.54392926465255" type="curve"/>
      <point x="863.25269001695312" y="-244.16575625044752" type="line"/>
      <point x="775.59433336651011" y="-292.92055584622835"/>
      <point x="677.23818904250572" y="-322.44965366023729"/>
      <point x="576.27753301681503" y="-321.12094060026885" type="curve" smooth="yes"/>
      <point x="163.9098067723894" y="-315.69389203561769"/>
      <point x="180.71076176994396" y="180.463752282006"/>
      <point x="232.31128778707637" y="472.34362274546555" type="curve" smooth="yes"/>
      <point x="294.36266501443339" y="823.33903587723933"/>
      <point x="499.61667300962483" y="1305.0500144756879"/>
      <point x="925.66684107956803" y="1295.4427458075763" type="curve" smooth="yes"/>
      <point x="1351.8859270355797" y="1285.8316681056092"/>
      <point x="1338.7233965457501" y="820.49328060104222"/>
      <point x="1287.8071240236086" y="506.1620345032141" type="curve" smooth="yes"/>
      <point x="1267.2977636860808" y="379.54764440305451"/>
      <point x="1205.4781571107194" y="92.48204964439374"/>
      <point x="1027.3771954370632" y="101.56016813435248" type="curve" smooth="yes"/>
      <point x="928.96600673151829" y="106.57635908251608"/>
      <point x="966.94042833578169" y="275.41252831325932"/>
      <point x="976.26476575077459" y="331.06251830144555" type="curve"/>
      <point x="1102.9634820925014" y="882.70635774450454" type="line"/>
      <point x="1031.5152983374317" y="947.86507054224035"/>
      <point x="961.39620562514415" y="988.50911100286316"/>
      <point x="861.92252815361928" y="990.69074834956382" type="curve" smooth="yes"/>
      <point x="595.38287226026887" y="996.53644424072183"/>
      <point x="464.75596862972833" y="614.01460463112528"/>
      <point x="430.10356434355924" y="408.73238005770304" type="curve" smooth="yes"/>
      <point x="406.28845075717004" y="267.65069766967918"/>
      <point x="389.01957702302923" y="-19.934972169443668"/>
      <point x="599.92234159251973" y="-22.549512934769528" type="curve" smooth="yes"/>
      <point x="696.52547444896356" y="-23.747092442211887"/>
      <point x="765.84194782164741" y="63.072627155013762"/>
      <point x="817.38382565892005" y="133.34767315533176" type="curve"/>
      <point x="832.09928391377821" y="37.804191350752362"/>
      <point x="897.94080371592804" y="-19.359077323927899"/>
      <point x="995.21367762817636" y="-21.695917752202366" type="curve" smooth="yes"/>
      <point x="1265.3863612217201" y="-28.186426608827208"/>
      <point x="1377.3721260295652" y="287.14909330302498"/>
      <point x="1413.4742932037213" y="505.79931466665801" type="curve" smooth="yes"/>
      <point x="1476.3145717210969" y="886.38701573443177"/>
      <point x="1422.8660180840347" y="1424.1677446712436"/>
      <point x="929.89316706130535" y="1433.2056307928362" type="curve" smooth="yes"/>
      <point x="432.9837340756705" y="1442.3156879871669"/>
      <point x="159.04148829083516" y="892.81031338028674"/>
      <point x="86.831045161797235" y="472.64098439214263" type="curve" smooth="yes"/>
      <point x="20.720636875796458" y="87.965794973577545"/>
      <point x="78.833911652717461" y="-445.95479036427889"/>
      <point x="575.06865958066976" y="-452.70330625320275" type="curve" smooth="yes"/>
      <point x="682.90648182837549" y="-454.16984050922639"/>
      <point x="799.52231427724701" y="-429.53803188322848"/>
    </contour>
    <contour>
      <point x="593.55534719210004" y="408.06804007652659" type="curve" smooth="yes"/>
      <point x="616.5066811173632" y="547.40641196489526"/>
      <point x="678.94754817746195" y="866.48711840900535"/>
      <point x="877.65429972664163" y="858.09656796659203" type="curve" smooth="yes"/>
      <point x="903.41525809642826" y="857.00879103419572"/>
      <point x="926.54489146438789" y="849.93601770037367"/>
      <point x="949.50129393940347" y="838.80293002271617" type="curve"/>
      <point x="824.50460500833708" y="332.00984812579219" type="line" smooth="yes"/>
      <point x="822.37656900966817" y="321.93628924434796"/>
      <point x="821.85765692422444" y="310.64828663412118"/>
      <point x="818.84909438452769" y="300.86199875464621" type="curve" smooth="yes"/>
      <point x="800.66674591826438" y="241.71824020950413"/>
      <point x="736.45633679332548" y="125.44356741644685"/>
      <point x="661.35969106358391" y="126.79976038033088" type="curve" smooth="yes"/>
      <point x="543.48237183454512" y="128.92854242360954"/>
      <point x="582.82751367521644" y="342.93897781811631"/>
    </contour>
  </outline>
</glyph>
<glyph name="A" format="1">
  <advance width="1157.21"/>
  <unicode hex="0041"/>
  <outline>
    <contour>
      <point x="755.75206351636382" y="1600" type="move" name="top"/>
    </contour>
    <contour>
      <point x="487.06076189018177" y="0" type="move" name="bottom"/>
    </contour>
    <contour>
      <point x="1010.8607618901817" y="0" type="move" name="right"/>
    </contour>
    <contour>
      <point x="482.20588224297467" y="1454" type="move" name="tonos"/>
    </contour>
    <contour>
      <point x="974.00076189018182" y="0" type="move" name="ogonek"/>
    </contour>
    <contour>
      <point x="1310.5920635163639" y="1600" type="move" name="top_dd"/>
    </contour>
    <contour>
      <point x="963.8184620390216" y="-407" type="move" name="bottom_dd"/>
    </contour>
    <contour>
      <point x="1310.5920635163639" y="1600" type="move" name="top0315"/>
    </contour>
    <contour>
      <point x="-66.434293909022642" y="0.0" type="line"/>
      <point x="138.87114804562106" y="0.0" type="line"/>
      <point x="313.13301048456657" y="375.74599269986214" type="line"/>
      <point x="776.10493710580897" y="376.00509602470032" type="line"/>
      <point x="819.6186090172896" y="0.0" type="line"/>
      <point x="1011.5006029779054" y="0.0" type="line"/>
      <point x="807.18477628960557" y="1456.1239070518118" type="line"/>
      <point x="641.57344994160928" y="1455.6998134504017" type="line"/>
    </contour>
    <contour>
      <point x="389.86764210111602" y="543.21322285610881" type="line"/>
      <point x="683.53628463356256" y="1176.5905078910862" type="line"/>
      <point x="756.53519773233597" y="542.95729267641502" type="line"/>
    </contour>
  </outline>
</glyph>
<glyph name="B" format="1">
  <advance width="1088.34"/>
  <unicode hex="0042"/>
  <outline>
    <contour>
      <point x="699.62544827856004" y="1612" type="move" name="top"/>
    </contour>
    <contour>
      <point x="430.58858252534537" y="10" type="move" name="bottom"/>
    </contour>
    <contour>
      <point x="1241.722063516364" y="1600" type="move" name="top_dd"/>
    </contour>
    <contour>
      <point x="894.94846203902171" y="-407" type="move" name="bottom_dd"/>
    </contour>
    <contour>
      <point x="1243.7954482785601" y="1612" type="move" name="top0315"/>
    </contour>
    <contour>
      <point x="941.57835082729821" y="429.36474208975267" type="curve" smooth="yes"/>
      <point x="951.54810812062181" y="555.20888591386267"/>
      <point x="923.25538627205628" y="705.76376216579706"/>
      <point x="796.99833352988458" y="763.61301108517694" type="curve"/>
      <point x="923.17301622953948" y="828.46161703531618"/>
      <point x="1020.0748418309519" y="927.57104116648543"/>
      <point x="1032.4778185877644" y="1075.155043540643" type="curve" smooth="yes"/>
      <point x="1052.0348505176601" y="1307.8657148065408"/>
      <point x="931.26237108840905" y="1448.8748934285861"/>
      <point x="698.2286365549985" y="1454.8913066504431" type="curve" smooth="yes"/>
      <point x="297.42593077212376" y="1455.9764466747504" type="line"/>
      <point x="44.810587468233862" y="0.0" type="line"/>
      <point x="482.28359206763673" y="0.0" type="line" smooth="yes"/>
      <point x="744.99070527961476" y="-2.4365864317865289"/>
      <point x="920.95703960333026" y="169.07041604346313"/>
    </contour>
    <contour>
      <point x="462.96792352744205" y="1289.1004938122294" type="line"/>
      <point x="694.23418143663298" y="1287.8805862101594" type="line" smooth="yes"/>
      <point x="822.27226096547599" y="1282.5996419218438"/>
      <point x="850.28180834309831" y="1192.9388080334534"/>
      <point x="835.68681879399185" y="1076.4719976336344" type="curve" smooth="yes"/>
      <point x="819.56496782954059" y="947.8209593267361"/>
      <point x="730.97887688781123" y="841.18553372890608"/>
      <point x="595.51055334817045" y="839.24976863845211" type="curve" smooth="yes"/>
      <point x="384.96919488410845" y="841.11912847340307" type="line"/>
    </contour>
    <contour>
      <point x="749.62451465077936" y="428.65904006135128" type="curve" smooth="yes"/>
      <point x="731.91196590420168" y="283.05984220253373"/>
      <point x="642.32624598560733" y="165.82943712774497"/>
      <point x="487.56834331497896" y="164.2206408203503" type="curve" smooth="yes"/>
      <point x="268.07424583897694" y="166.20785402210709" type="line"/>
      <point x="357.08106528718332" y="678.15744945731319" type="line"/>
      <point x="605.71209380585424" y="676.63320661308592" type="line" smooth="yes"/>
      <point x="745.49792177850213" y="670.02180938859783"/>
      <point x="763.96797401423498" y="546.563933801909"/>
    </contour>
  </outline>
</glyph>
<glyph name="C" format="1">
  <advance width="1127.1399999999999"/>
  <unicode hex="0043"/>
  <outline>
    <contour>
      <point x="752.72387161240385" y="1633" type="move" name="top"/>
    </contour>
    <contour>
      <point x="468.8429412550181" y="-10" type="move" name="bottom"/>
    </contour>
    <contour>
      <point x="1280.5220635163637" y="1600" type="move" name="top_dd"/>
    </contour>
    <contour>
      <point x="933.74846203902166" y="-407" type="move" name="bottom_dd"/>
    </contour>
    <contour>
      <point x="1286.2238716124039" y="1633" type="move" name="top0315"/>
    </contour>
    <contour>
      <point x="821.45314653501066" y="462.79382400333225" type="line"/>
      <point x="776.84964245253343" y="293.70018644300114"/>
      <point x="707.74976576820995" y="136.50250928031593"/>
      <point x="505.75675224090287" y="144.77852625653597" type="curve" smooth="yes"/>
      <point x="265.04335627332063" y="154.64098692605796"/>
      <point x="294.10732515849804" y="494.82122962116591"/>
      <point x="316.5070891892704" y="657.29634518644673" type="curve" smooth="yes"/>
      <point x="337.46658383714066" y="799.21947623203948" type="line" smooth="yes"/>
      <point x="368.89804433328982" y="1007.5491782400543"/>
      <point x="462.64661177390138" y="1319.9966040758402"/>
      <point x="727.52650517346171" y="1309.4923706044856" type="curve" smooth="yes"/>
      <point x="904.01402941733943" y="1302.4934771224403"/>
      <point x="916.80859105839795" y="1127.3293511740007"/>
      <point x="919.57864485313894" y="986.39266702407315" type="curve"/>
      <point x="1114.0630373578879" y="986.12082142675445" type="line"/>
      <point x="1110.8348370558449" y="1233.2201028599677"/>
      <point x="1018.4149097572124" y="1468.8498103905895"/>
      <point x="737.72027435367158" y="1475.9259854575528" type="curve" smooth="yes"/>
      <point x="366.08953925946935" y="1485.2946153140165"/>
      <point x="189.97309676169118" y="1112.352881718838"/>
      <point x="142.7847452671221" y="796.69943412617226" type="curve" smooth="yes"/>
      <point x="122.41311311116276" y="657.70420686473926" type="line" smooth="yes"/>
      <point x="86.0994725992621" y="382.94029087279301"/>
      <point x="144.68558989037678" y="-11.461974028858178"/>
      <point x="494.82640425265618" y="-20.442999544817415" type="curve" smooth="yes"/>
      <point x="789.86509621557605" y="-28.010669213776971"/>
      <point x="963.85441346475898" y="194.37188848166772"/>
      <point x="1013.0268573541489" y="464.6631902594055" type="curve"/>
    </contour>
  </outline>
</glyph>
<glyph name="D" format="1">
  <advance width="1134.8999999999999"/>
  <unicode hex="0044"/>
  <outline>
    <contour>
      <point x="695.74544827856016" y="1612" type="move" name="top"/>
    </contour>
    <contour>
      <point x="296.41392476525823" y="738" type="move" name="cross"/>
    </contour>
    <contour>
      <point x="422.82858252534538" y="10" type="move" name="bottom"/>
    </contour>
    <contour>
      <point x="1288.2820635163639" y="1600" type="move" name="top_dd"/>
    </contour>
    <contour>
      <point x="941.50846203902165" y="-407" type="move" name="bottom_dd"/>
    </contour>
    <contour>
      <point x="1290.3554482785601" y="1612" type="move" name="top0315"/>
    </contour>
    <contour>
      <point x="44.8124203291447" y="0.0" type="line"/>
      <point x="377.41017821234743" y="0.0" type="line" smooth="yes"/>
      <point x="754.5431448156819" y="-1.6392621213714103"/>
      <point x="963.86364612303555" y="252.89269810041696"/>
      <point x="1017.1025575348756" y="608.30292765122203" type="curve" smooth="yes"/>
      <point x="1053.4126547141993" y="847.323858683548" type="line" smooth="yes"/>
      <point x="1093.3590240813887" y="1162.8020632381326"/>
      <point x="971.84413696920092" y="1446.084932043379"/>
      <point x="622.67696888678108" y="1454.8869106154689" type="curve" smooth="yes"/>
      <point x="297.43369604179952" y="1456.0332050097218" type="line"/>
    </contour>
    <contour>
      <point x="618.79875785394063" y="1288.0763340773799" type="line" smooth="yes"/>
      <point x="871.6353927837157" y="1280.55663318503"/>
      <point x="888.46935791841895" y="1056.6051427000421"/>
      <point x="861.21962346358009" y="849.92209190897916" type="curve" smooth="yes"/>
      <point x="824.87265218983816" y="607.6750301911685" type="line" smooth="yes"/>
      <point x="786.3889728736084" y="351.77578642391234"/>
      <point x="660.02995723390018" y="163.22126752753965"/>
      <point x="382.12407680228091" y="164.57378368722576" type="curve" smooth="yes"/>
      <point x="268.12430341129476" y="166.1037425790141" type="line"/>
      <point x="462.90349312403077" y="1289.3009345535834" type="line"/>
    </contour>
  </outline>
</glyph>
<glyph name="E" format="1">
  <advance width="986.49"/>
  <unicode hex="0045"/>
  <outline>
    <contour>
      <point x="698.65544827856002" y="1612" type="move" name="top"/>
    </contour>
    <contour>
      <point x="421.85858252534535" y="10" type="move" name="bottom"/>
    </contour>
    <contour>
      <point x="139.96866430649101" y="1455" type="move" name="tonos"/>
    </contour>
    <contour>
      <point x="747.02076189018169" y="0" type="move" name="ogonek"/>
    </contour>
    <contour>
      <point x="1139.8720635163636" y="1600" type="move" name="top_dd"/>
    </contour>
    <contour>
      <point x="793.09846203902157" y="-407" type="move" name="bottom_dd"/>
    </contour>
    <contour>
      <point x="1141.94544827856" y="1612" type="move" name="top0315"/>
    </contour>
    <contour>
      <point x="44.808813938955339" y="0.0" type="line"/>
      <point x="809.47573782914435" y="0.0" type="line"/>
      <point x="838.94049819385202" y="165.90806934193137" type="line"/>
      <point x="268.02897430874924" y="166.0596246006719" type="line"/>
      <point x="355.54949120903564" y="668.92694760490042" type="line"/>
      <point x="842.93201942577389" y="669.07717115104492" type="line"/>
      <point x="872.39312995056264" y="834.91209712191403" type="line"/>
      <point x="383.9277618106903" y="835.05941160680788" type="line"/>
      <point x="462.97407670718553" y="1288.9252872945524" type="line"/>
      <point x="1022.1277193076048" y="1289.0807734763528" type="line"/>
      <point x="1051.7641542579254" y="1455.9112292202815" type="line"/>
      <point x="297.4222548343144" y="1455.9382265685824" type="line"/>
    </contour>
  </outline>
</glyph>
<glyph name="F" format="1">
  <advance width="950.6"/>
  <unicode hex="0046"/>
  <outline>
    <contour>
      <point x="245.55831729519633" y="337" type="move" name="cross"/>
    </contour>
    <contour>
      <point x="698.65544827856002" y="1612" type="move" name="top"/>
    </contour>
    <contour>
      <point x="350.07858252534538" y="10" type="move" name="bottom"/>
    </contour>
    <contour>
      <point x="1103.9820635163637" y="1600" type="move" name="top_dd"/>
    </contour>
    <contour>
      <point x="757.20846203902158" y="-407" type="move" name="bottom_dd"/>
    </contour>
    <contour>
      <point x="1106.0554482785601" y="1612" type="move" name="top0315"/>
    </contour>
    <contour>
      <point x="44.713517251747263" y="0.0" type="line"/>
      <point x="239.18693810192167" y="0.0" type="line"/>
      <point x="350.0008757023399" y="636.92504495030482" type="line"/>
      <point x="811.19930341898691" y="637.0772429572753" type="line"/>
      <point x="840.65906669572269" y="802.91233294620872" type="line"/>
      <point x="378.385343075224" y="803.05833135906676" type="line"/>
      <point x="462.97308545841145" y="1288.9270483646046" type="line"/>
      <point x="1004.6682499140568" y="1289.0806534330006" type="line"/>
      <point x="1034.3041045423863" y="1455.9119545635842" type="line"/>
      <point x="297.42292057052191" y="1455.9388939693299" type="line"/>
    </contour>
  </outline>
</glyph>
<glyph name="G" format="1">
  <advance width="1172.73"/>
  <unicode hex="0047"/>
  <outline>
    <contour>
      <point x="737.20387161240387" y="1633" type="move" name="top"/>
    </contour>
    <contour>
      <point x="508.61294125501809" y="-10" type="move" name="bottom"/>
    </contour>
    <contour>
      <point x="1326.1120635163638" y="1600" type="move" name="top_dd"/>
    </contour>
    <contour>
      <point x="979.33846203902158" y="-407" type="move" name="bottom_dd"/>
    </contour>
    <contour>
      <point x="1331.8138716124038" y="1633" type="move" name="top0315"/>
    </contour>
    <contour>
      <point x="1062.5726386780568" y="730.92405320354464" type="line"/>
      <point x="623.03002168604939" y="730.92274431523106" type="line"/>
      <point x="593.78743367738832" y="566.09660854886818" type="line"/>
      <point x="839.75171984312033" y="565.91234352177128" type="line"/>
      <point x="782.49578980982096" y="247.42608333704908" type="line"/>
      <point x="714.24815408108941" y="172.48773435320376"/>
      <point x="633.36837178631595" y="143.42798957450248"/>
      <point x="531.08555891617186" y="146.43465180062219" type="curve" smooth="yes"/>
      <point x="281.49686470527826" y="153.77145529568415"/>
      <point x="294.34344431538346" y="505.03671346978132"/>
      <point x="316.75542848419076" y="675.19387943726349" type="curve" smooth="yes"/>
      <point x="331.81046007563225" y="781.19213830962656" type="line" smooth="yes"/>
      <point x="363.15433695158498" y="995.31198764911937"/>
      <point x="444.26362101911445" y="1320.8734331754063"/>
      <point x="720.68332493809248" y="1309.053783912389" type="curve" smooth="yes"/>
      <point x="878.46236416599913" y="1302.307184888188"/>
      <point x="917.14159565249486" y="1160.5762135693342"/>
      <point x="923.18872864488071" y="1026.2325237817392" type="curve"/>
      <point x="1115.6493014041514" y="1025.7166232308462" type="line"/>
      <point x="1102.2772317847612" y="1266.8106007007123"/>
      <point x="994.05929930061404" y="1468.9411621033323"/>
      <point x="729.25083750505667" y="1475.7654433293783" type="curve" smooth="yes"/>
      <point x="340.02601398853733" y="1485.7960127372603"/>
      <point x="184.35752468756752" y="1105.755711897144"/>
      <point x="136.44227618003305" y="778.54401609577974" type="curve" smooth="yes"/>
      <point x="121.64659334483959" y="675.70549460085897" type="line" smooth="yes"/>
      <point x="83.570528246299716" y="382.60022169066752"/>
      <point x="156.15413249728584" y="-13.557537080295891"/>
      <point x="522.87998188728079" y="-20.1675300149438" type="curve" smooth="yes"/>
      <point x="703.03020633898723" y="-23.414619667286978"/>
      <point x="876.16152270094676" y="40.0238716475952"/>
      <point x="976.38895511456008" y="195.08053504357201" type="curve"/>
    </contour>
  </outline>
</glyph>
<glyph name="H" format="1">
  <advance width="1234.81"/>
  <unicode hex="0048"/>
  <outline>
    <contour>
      <point x="773.34544827856007" y="1612" type="move" name="top"/>
    </contour>
    <contour>
      <point x="977.8807618901817" y="0" type="move" name="right"/>
    </contour>
    <contour>
      <point x="151.95422843352372" y="1457" type="move" name="tonos"/>
    </contour>
    <contour>
      <point x="498.48858252534535" y="10" type="move" name="bottom"/>
    </contour>
    <contour>
      <point x="1388.1920635163638" y="1600" type="move" name="top_dd"/>
    </contour>
    <contour>
      <point x="1041.4184620390215" y="-407" type="move" name="bottom_dd"/>
    </contour>
    <contour>
      <point x="1390.2654482785599" y="1612" type="move" name="top0315"/>
    </contour>
    <contour>
      <point x="784.82011695443964" y="0.0" type="line"/>
      <point x="979.30011404875313" y="0.0" type="line"/>
      <point x="1232.1046973448085" y="1455.9372296541244" type="line"/>
      <point x="1037.6331775290359" y="1455.948530897107" type="line"/>
      <point x="929.58266291200971" y="835.07572648521159" type="line"/>
      <point x="383.93456117087607" y="835.06280789063283" type="line"/>
      <point x="491.99682153718197" y="1455.9389725755782" type="line"/>
      <point x="297.51248892381216" y="1455.9471888923392" type="line"/>
      <point x="44.713449288518703" y="0.0" type="line"/>
      <point x="239.18470268074054" y="0.0" type="line"/>
      <point x="355.5494208424027" y="668.92308980890959" type="line"/>
      <point x="901.19231432530319" y="668.93601585889803" type="line"/>
    </contour>
  </outline>
</glyph>
<glyph name="I" format="1">
  <advance width="499.55"/>
  <unicode hex="0049"/>
  <outline>
    <contour>
      <point x="424.14544827856014" y="1612" type="move" name="top"/>
    </contour>
    <contour>
      <point x="147.34858252534536" y="10" type="move" name="bottom"/>
    </contour>
    <contour>
      <point x="151.95422843352372" y="1457" type="move" name="tonos"/>
    </contour>
    <contour>
      <point x="238.74076189018172" y="0" type="move" name="right"/>
    </contour>
    <contour>
      <point x="207.70076189018175" y="0" type="move" name="ogonek"/>
    </contour>
    <contour>
      <point x="652.93206351636377" y="1600" type="move" name="top_dd"/>
    </contour>
    <contour>
      <point x="306.15846203902169" y="-407" type="move" name="bottom_dd"/>
    </contour>
    <contour>
      <point x="655.00544827856015" y="1612" type="move" name="top0315"/>
    </contour>
    <contour>
      <point x="496.83542946952969" y="1455.9390940360365" type="line"/>
      <point x="302.3652929438382" y="1455.9485125082183" type="line"/>
      <point x="49.571213161273747" y="0.0" type="line"/>
      <point x="244.04134968696889" y="0.0" type="line"/>
    </contour>
  </outline>
</glyph>
<glyph name="J" format="1">
  <advance width="961.27"/>
  <unicode hex="004A"/>
  <outline>
    <contour>
      <point x="873.29484557988019" y="1601" type="move" name="top"/>
    </contour>
    <contour>
      <point x="331.1029412550181" y="-10" type="move" name="bottom"/>
    </contour>
    <contour>
      <point x="1114.6520635163638" y="1600" type="move" name="top_dd"/>
    </contour>
    <contour>
      <point x="767.87846203902166" y="-407" type="move" name="bottom_dd"/>
    </contour>
    <contour>
      <point x="1114.8248455798803" y="1601" type="move" name="top0315"/>
    </contour>
    <contour>
      <point x="602.39945122181734" y="423.38394578460924" type="line" smooth="yes"/>
      <point x="583.71875579167624" y="295.2791774116327"/>
      <point x="516.15418406187268" y="139.47683391355216"/>
      <point x="362.75665364581664" y="145.50842549345967" type="curve" smooth="yes"/>
      <point x="223.58101830357649" y="150.98081209565407"/>
      <point x="204.19118792117081" y="291.12496763829347"/>
      <point x="212.573539270136" y="403.03950447806898" type="curve"/>
      <point x="17.520146651098699" y="403.49806013749293" type="line"/>
      <point x="2.1332153898227535" y="175.80195587881508"/>
      <point x="102.28083749573929" y="-15.172030925283446"/>
      <point x="349.51497938170348" y="-21.423751435834188" type="curve" smooth="yes"/>
      <point x="615.51216031507738" y="-28.149926142549553"/>
      <point x="762.787898695389" y="181.08806762043508"/>
      <point x="796.35957590677378" y="423.99938276108827" type="curve" smooth="yes"/>
      <point x="972.1579637859229" y="1455.935659107698" type="line"/>
      <point x="777.68041322772922" y="1455.9437757800761" type="line"/>
    </contour>
  </outline>
</glyph>
<glyph name="K" format="1">
  <advance width="1081.55"/>
  <unicode hex="004B"/>
  <outline>
    <contour>
      <point x="478.0155834796218" y="88" type="move" name="bottom"/>
    </contour>
    <contour>
      <point x="923.56076189018177" y="0" type="move" name="right"/>
    </contour>
    <contour>
      <point x="353.11991795179279" y="1229" type="move" name="cross"/>
    </contour>
    <contour>
      <point x="686.08484557988015" y="1601" type="move" name="top"/>
    </contour>
    <contour>
      <point x="1234.9320635163635" y="1600" type="move" name="top_dd"/>
    </contour>
    <contour>
      <point x="888.15846203902152" y="-407" type="move" name="bottom_dd"/>
    </contour>
    <contour>
      <point x="1235.10484557988" y="1601" type="move" name="top0315"/>
    </contour>
    <contour>
      <point x="754.74747909137943" y="0.0" type="line"/>
      <point x="972.99134208330975" y="0.0" type="line"/>
      <point x="632.54106107704058" y="806.81773216545025" type="line"/>
      <point x="1204.3036992933701" y="1455.6056976425721" type="line"/>
      <point x="958.67207411854679" y="1455.6625622465485" type="line"/>
      <point x="507.49607063543249" y="928.97123862051808" type="line"/>
      <point x="374.34938343230448" y="782.72420112756492" type="line"/>
      <point x="491.97716536546875" y="1455.9278257729459" type="line"/>
      <point x="297.51825258183595" y="1455.9443583063635" type="line"/>
      <point x="44.717598379008294" y="0.0" type="line"/>
      <point x="239.17250721572378" y="0.0" type="line"/>
      <point x="323.46158481897726" y="486.4065054623386" type="line"/>
      <point x="493.33889024000416" y="659.42593498000383" type="line"/>
    </contour>
  </outline>
</glyph>
<glyph name="L" format="1">
  <advance width="949.63"/>
  <unicode hex="004C"/>
  <outline>
    <contour>
      <point x="415.28206351636379" y="1600" type="move" name="top"/>
    </contour>
    <contour>
      <point x="420.88858252534544" y="10" type="move" name="bottom"/>
    </contour>
    <contour>
      <point x="668.61866430649104" y="1455" type="move" name="caron"/>
    </contour>
    <contour>
      <point x="541.79972032217461" y="794" type="move" name="dot"/>
    </contour>
    <contour>
      <point x="1103.0120635163639" y="1600" type="move" name="top_dd"/>
    </contour>
    <contour>
      <point x="756.23846203902167" y="-407" type="move" name="bottom_dd"/>
    </contour>
    <contour>
      <point x="1103.0120635163639" y="1600" type="move" name="top0315"/>
    </contour>
    <contour>
      <point x="816.62140200858425" y="165.90793825534848" type="line"/>
      <point x="268.04121871097709" y="166.0555353292653" type="line"/>
      <point x="491.98733231599545" y="1455.9371102971538" type="line"/>
      <point x="297.51559413721884" y="1455.9468386075482" type="line"/>
      <point x="44.812744541181033" y="0.0" type="line"/>
      <point x="787.16193375623402" y="0.0" type="line"/>
    </contour>
  </outline>
</glyph>
<glyph name="M" format="1">
  <advance width="1504.47"/>
  <unicode hex="004D"/>
  <outline>
    <contour>
      <point x="917.74206351636383" y="1600" type="move" name="top"/>
    </contour>
    <contour>
      <point x="1235.9007618901817" y="0" type="move" name="right"/>
    </contour>
    <contour>
      <point x="648.83858252534537" y="10" type="move" name="bottom"/>
    </contour>
    <contour>
      <point x="1657.8520635163636" y="1600" type="move" name="top_dd"/>
    </contour>
    <contour>
      <point x="1311.0784620390216" y="-407" type="move" name="bottom_dd"/>
    </contour>
    <contour>
      <point x="1657.8520635163636" y="1600" type="move" name="top0315"/>
    </contour>
    <contour>
      <point x="694.47514644468708" y="287.35043071832564" type="line"/>
      <point x="542.35655976931776" y="1456.0437278256907" type="line"/>
      <point x="297.44341940434606" y="1455.9313066087941" type="line"/>
      <point x="44.721076889726859" y="0.0" type="line"/>
      <point x="238.20270119763376" y="0.0" type="line"/>
      <point x="332.96733754423246" y="545.40438436218756" type="line"/>
      <point x="413.22990384815103" y="1110.4829260569561" type="line"/>
      <point x="577.52437982141646" y="0.0" type="line"/>
      <point x="725.38438630740427" y="0.0" type="line"/>
      <point x="1262.6728048311727" y="1082.672364831797" type="line"/>
      <point x="1155.76253624631" y="566.5458965674502" type="line"/>
      <point x="1057.3827354091425" y="0.0" type="line"/>
      <point x="1250.8993195752905" y="0.0" type="line"/>
      <point x="1503.6503308796603" y="1455.9658899982735" type="line"/>
      <point x="1252.1718179229779" y="1455.7673428890166" type="line"/>
    </contour>
  </outline>
</glyph>
<glyph name="N" format="1">
  <advance width="1231.8999999999999"/>
  <unicode hex="004E"/>
  <outline>
    <contour>
      <point x="783.88206351636381" y="1600" type="move" name="top"/>
    </contour>
    <contour>
      <point x="502.36858252534535" y="10" type="move" name="bottom"/>
    </contour>
    <contour>
      <point x="974.97076189018162" y="0" type="move" name="right"/>
    </contour>
    <contour>
      <point x="1385.2820635163639" y="1600" type="move" name="top_dd"/>
    </contour>
    <contour>
      <point x="1038.5084620390217" y="-407" type="move" name="bottom_dd"/>
    </contour>
    <contour>
      <point x="1385.2820635163639" y="1600" type="move" name="top0315"/>
    </contour>
    <contour>
      <point x="1229.1873919965581" y="1455.9337333581836" type="line"/>
      <point x="1036.6461501333085" y="1455.9415685385384" type="line"/>
      <point x="842.80452576482139" y="341.26114237701535" type="line"/>
      <point x="486.03215525106157" y="1456.0469967255237" type="line"/>
      <point x="297.44036062444957" y="1455.9332744446981" type="line"/>
      <point x="44.717107995066399" y="0.0" type="line"/>
      <point x="239.19902525012861" y="0.0" type="line"/>
      <point x="432.34745993296065" y="1110.54125523942" type="line"/>
      <point x="786.98912825275863" y="0.0" type="line"/>
      <point x="976.45967409437617" y="0.0" type="line"/>
    </contour>
  </outline>
</glyph>
<glyph name="O" format="1">
  <advance width="1198.92"/>
  <unicode hex="004F"/>
  <outline>
    <contour>
      <point x="776.12206351636382" y="1600" type="move" name="top"/>
    </contour>
    <contour>
      <point x="498.70076189018175" y="0" type="move" name="bottom"/>
    </contour>
    <contour>
      <point x="292.08588224297466" y="1454" type="move" name="tonos"/>
    </contour>
    <contour>
      <point x="1352.3020635163639" y="1600" type="move" name="top_dd"/>
    </contour>
    <contour>
      <point x="1005.5284620390216" y="-407" type="move" name="bottom_dd"/>
    </contour>
    <contour>
      <point x="1352.3020635163639" y="1600" type="move" name="top0315"/>
    </contour>
    <contour>
      <point x="1113.1978521518558" y="768.33360138550188" type="line" smooth="yes"/>
      <point x="1151.2593470287302" y="1054.2892365795694"/>
      <point x="1101.3311379859924" y="1466.833196749735"/>
      <point x="733.74576166916677" y="1476.3122518643336" type="curve" smooth="yes"/>
      <point x="358.67247925386465" y="1485.9844002823481"/>
      <point x="185.41024943766152" y="1079.4118213521501"/>
      <point x="140.35082075310083" y="767.62427557626233" type="curve" smooth="yes"/>
      <point x="129.09441898173395" y="686.73669891957991" type="line" smooth="yes"/>
      <point x="92.884093130239393" y="404.12954453990318"/>
      <point x="146.22237950076538" y="-10.558580581956521"/>
      <point x="509.97023444189915" y="-20.284259564374469" type="curve" smooth="yes"/>
      <point x="890.42704325899717" y="-30.456692855641759"/>
      <point x="1054.8967883835926" y="373.27191811389184"/>
      <point x="1101.5858437625598" y="688.48309251419278" type="curve" smooth="yes"/>
    </contour>
    <contour>
      <point x="910.39709275945904" y="686.7751202738898" type="line" smooth="yes"/>
      <point x="880.56083389224523" y="478.52931003131346"/>
      <point x="791.67936093043454" y="140.05134517040531"/>
      <point x="520.24231017398245" y="152.22777658549077" type="curve" smooth="yes"/>
      <point x="274.50316023784092" y="163.25142238793362"/>
      <point x="300.75162992122864" y="522.04302173450037"/>
      <point x="321.60538422101001" y="686.25373360965978" type="curve" smooth="yes"/>
      <point x="332.93134068902145" y="770.18807243781794" type="line" smooth="yes"/>
      <point x="362.04522572267109" y="973.93488053230749"/>
      <point x="458.36972882851205" y="1314.0357240782419"/>
      <point x="723.59900116749941" y="1302.9480783154324" type="curve" smooth="yes"/>
      <point x="973.71755992699411" y="1292.4921208949963"/>
      <point x="943.86208828017277" y="940.58966697219864"/>
      <point x="922.09968774643994" y="771.97538626392088" type="curve" smooth="yes"/>
    </contour>
  </outline>
</glyph>
<glyph name="P" format="1">
  <advance width="1107.74"/>
  <unicode hex="0050"/>
  <outline>
    <contour>
      <point x="192.17588224297464" y="1454" type="move" name="tonos"/>
    </contour>
    <contour>
      <point x="699.62544827856004" y="1612" type="move" name="top"/>
    </contour>
    <contour>
      <point x="349.10858252534541" y="10" type="move" name="bottom"/>
    </contour>
    <contour>
      <point x="1261.1220635163636" y="1600" type="move" name="top_dd"/>
    </contour>
    <contour>
      <point x="914.34846203902157" y="-407" type="move" name="bottom_dd"/>
    </contour>
    <contour>
      <point x="1263.19544827856" y="1612" type="move" name="top0315"/>
    </contour>
    <contour>
      <point x="615.42966315296439" y="565.70600606043774" type="line" smooth="yes"/>
      <point x="895.40249607857345" y="565.14701855844066"/>
      <point x="1081.7468273305778" y="739.07579889254032"/>
      <point x="1105.4468379127406" y="1018.0326663122577" type="curve" smooth="yes"/>
      <point x="1126.0526964489757" y="1260.5703532822433"/>
      <point x="996.33089090223984" y="1447.6741679811396"/>
      <point x="743.70966901114377" y="1454.8257438813737" type="curve" smooth="yes"/>
      <point x="297.44591792277618" y="1456.0312127389273" type="line"/>
      <point x="44.71655167274811" y="0.0" type="line"/>
      <point x="239.17747882365165" y="0.0" type="line"/>
      <point x="337.89559925597786" y="566.98580581407214" type="line"/>
    </contour>
    <contour>
      <point x="462.93917164654647" y="1289.1003579000451" type="line"/>
      <point x="739.69852214776358" y="1287.6508872909953" type="line" smooth="yes"/>
      <point x="889.06224809983541" y="1280.3863166261253"/>
      <point x="927.46554792802806" y="1146.2624636105443"/>
      <point x="912.02508352190273" y="1016.4828072388428" type="curve" smooth="yes"/>
      <point x="892.54328218796093" y="852.73504576492519"/>
      <point x="795.42859869831511" y="731.66422334541107"/>
      <point x="622.79162000497092" y="730.67073356806179" type="curve" smooth="yes"/>
      <point x="366.35265956944988" y="733.39176792209776" type="line"/>
    </contour>
  </outline>
</glyph>
<glyph name="Q" format="1">
  <advance width="1198.92"/>
  <unicode hex="0051"/>
  <outline>
    <contour>
      <point x="762.54206351636378" y="1600" type="move" name="top"/>
    </contour>
    <contour>
      <point x="482.42294125501803" y="-10" type="move" name="bottom"/>
    </contour>
    <contour>
      <point x="1352.3020635163639" y="1600" type="move" name="top_dd"/>
    </contour>
    <contour>
      <point x="1005.5284620390216" y="-407" type="move" name="bottom_dd"/>
    </contour>
    <contour>
      <point x="1352.3020635163639" y="1600" type="move" name="top0315"/>
    </contour>
    <contour>
      <point x="967.69386083382074" y="-126.09524898385818" type="line"/>
      <point x="790.53234472309168" y="71.134170278974352" type="line"/>
      <point x="970.83480565796515" y="197.6762065853776"/>
      <point x="1040.3983451352656" y="396.64134181193788"/>
      <point x="1072.889075904624" y="607.27866961245741" type="curve" smooth="yes"/>
      <point x="1109.9869470151161" y="848.33294827143959" type="line" smooth="yes"/>
      <point x="1147.7237316633914" y="1140.5638220171245"/>
      <point x="1072.3247224202532" y="1468.0542293542276"/>
      <point x="723.77008865544906" y="1476.2893475334599" type="curve" smooth="yes"/>
      <point x="364.27917220361633" y="1484.7828515484975"/>
      <point x="197.24103539385618" y="1160.0394362118855"/>
      <point x="150.88982399720823" y="847.8064521641129" type="curve" smooth="yes"/>
      <point x="114.33840351319525" y="606.66688209325162" type="line" smooth="yes"/>
      <point x="77.88447049699279" y="322.61319249643111"/>
      <point x="154.43707763944121" y="-13.343038787608839"/>
      <point x="497.31614866885138" y="-18.756414785888321" type="curve" smooth="yes"/>
      <point x="536.08580104084444" y="-19.368510196034205"/>
      <point x="574.15126643243946" y="-15.306611401439094"/>
      <point x="612.3183400964956" y="-8.9215913317710367" type="curve"/>
      <point x="825.54901303736119" y="-244.62819455028148" type="line"/>
    </contour>
    <contour>
      <point x="880.64082628182848" y="606.58318735556975" type="line" smooth="yes"/>
      <point x="850.48330289119212" y="396.91473564988939"/>
      <point x="767.35861069071029" y="141.70233019755614"/>
      <point x="511.14544452496841" y="152.09499209296973" type="curve" smooth="yes"/>
      <point x="278.22315454393288" y="161.54291642841338"/>
      <point x="286.50125041981551" y="434.7901897917418"/>
      <point x="308.30601964403616" y="606.06145152401655" type="curve" smooth="yes"/>
      <point x="344.07207288068957" y="850.40969481622778" type="line" smooth="yes"/>
      <point x="373.88404316411078" y="1054.8980972672139"/>
      <point x="463.45997637781204" y="1312.5099313509418"/>
      <point x="713.36014934865182" y="1303.097441259142" type="curve" smooth="yes"/>
      <point x="951.61596572708436" y="1294.1235358619763"/>
      <point x="939.44265010197807" y="1028.4480936207585"/>
      <point x="916.53862053447676" y="851.42611042646729" type="curve" smooth="yes"/>
    </contour>
  </outline>
</glyph>
<glyph name="R" format="1">
  <advance width="1046.6299999999999"/>
  <unicode hex="0052"/>
  <outline>
    <contour>
      <point x="689.79206351636378" y="1600" type="move" name="top"/>
    </contour>
    <contour>
      <point x="416.03858252534542" y="10" type="move" name="bottom"/>
    </contour>
    <contour>
      <point x="1200.0120635163639" y="1600" type="move" name="top_dd"/>
    </contour>
    <contour>
      <point x="853.23846203902167" y="-407" type="move" name="bottom_dd"/>
    </contour>
    <contour>
      <point x="1200.0120635163639" y="1600" type="move" name="top0315"/>
    </contour>
    <contour>
      <point x="717.45524582301914" y="0.0" type="line"/>
      <point x="926.70629717415272" y="0.0" type="line"/>
      <point x="927.2105747053788" y="13.292822716556378" type="line"/>
      <point x="762.73429747010994" y="630.3165049150615" type="line"/>
      <point x="928.15242615555587" y="704.34818173052156"/>
      <point x="1028.0424042258326" y="843.70583656387555"/>
      <point x="1044.650607015029" y="1025.1338813452746" type="curve" smooth="yes"/>
      <point x="1067.8402448989391" y="1278.4575379665253"/>
      <point x="943.83540209238299" y="1447.8051695641445"/>
      <point x="683.53562556671466" y="1454.7969260119901" type="curve" smooth="yes"/>
      <point x="298.41069425002149" y="1456.0336234913616" type="line"/>
      <point x="45.684773409750974" y="0.0" type="line"/>
      <point x="240.15284340721155" y="0.0" type="line"/>
      <point x="342.32953515793298" y="586.91674589800175" type="line"/>
      <point x="574.89823192573749" y="587.04756077565753" type="line"/>
    </contour>
    <contour>
      <point x="463.90164628280218" y="1289.1474447781654" type="line"/>
      <point x="679.62691691356497" y="1287.8313367225308" type="line" smooth="yes"/>
      <point x="834.18014645601124" y="1281.4339337967849"/>
      <point x="867.30090670806544" y="1161.9969596615051"/>
      <point x="850.43373644208748" y="1025.5181338422794" type="curve" smooth="yes"/>
      <point x="830.89638620176856" y="867.4338447546163"/>
      <point x="720.39821733431472" y="752.75793402633644"/>
      <point x="557.67628171068122" y="751.27117648263243" type="curve" smooth="yes"/>
      <point x="370.71145432937561" y="753.06781718881507" type="line"/>
    </contour>
  </outline>
</glyph>
<glyph name="S" format="1">
  <advance width="1030.1399999999999"/>
  <unicode hex="0053"/>
  <outline>
    <contour>
      <point x="696.58206351636375" y="1600" type="move" name="top"/>
    </contour>
    <contour>
      <point x="426.92076189018178" y="0" type="move" name="bottom"/>
    </contour>
    <contour>
      <point x="1183.5220635163637" y="1600" type="move" name="top_dd"/>
    </contour>
    <contour>
      <point x="836.74846203902166" y="-407" type="move" name="bottom_dd"/>
    </contour>
    <contour>
      <point x="1183.5220635163637" y="1600" type="move" name="top0315"/>
    </contour>
    <contour>
      <point x="715.93697462087925" y="377.59563436730645" type="curve" smooth="yes"/>
      <point x="697.77879315347343" y="235.66030822334201"/>
      <point x="599.97454048183658" y="142.72019996425999"/>
      <point x="454.42199029200196" y="145.65975347539356" type="curve" smooth="yes"/>
      <point x="289.4133929462277" y="148.99223786719827"/>
      <point x="231.64088995797047" y="273.65798650086026"/>
      <point x="243.20467370455356" y="423.08234973205555" type="curve"/>
      <point x="49.090524430425134" y="423.62793615775735" type="line"/>
      <point x="35.53894071390949" y="179.52589776680659"/>
      <point x="192.65736586216141" y="-14.655774030285006"/>
      <point x="443.93950447321572" y="-20.420057790772841" type="curve" smooth="yes"/>
      <point x="690.4319637474108" y="-26.074468756592463"/>
      <point x="889.72383101081323" y="128.45221516063566"/>
      <point x="911.30010834179882" y="379.24932319100844" type="curve" smooth="yes"/>
      <point x="931.80266862241319" y="617.56581990252016"/>
      <point x="795.62261495171924" y="734.84146070734437"/>
      <point x="590.97579402381643" y="822.00667566907453" type="curve" smooth="yes"/>
      <point x="481.95202070392889" y="868.44316852187524"/>
      <point x="380.93154724182187" y="939.16876214743479"/>
      <point x="396.18154693113968" y="1070.5100997901293" type="curve" smooth="yes"/>
      <point x="412.1572986191714" y="1208.1020105639636"/>
      <point x="502.52941379554159" y="1312.0724917667376"/>
      <point x="647.18263440960027" y="1309.1930561302304" type="curve" smooth="yes"/>
      <point x="808.89550708494994" y="1305.9740347597647"/>
      <point x="845.52232051229987" y="1173.5241104996464"/>
      <point x="834.56194886384685" y="1034.9265717774158" type="curve"/>
      <point x="1029.3523048129061" y="1034.4397204608701" type="line"/>
      <point x="1043.3005452494629" y="1272.0617091100437"/>
      <point x="909.41097324852581" y="1469.8800698369669"/>
      <point x="658.19483634782944" y="1475.9718972240266" type="curve" smooth="yes"/>
      <point x="416.7898273327533" y="1481.8258111621776"/>
      <point x="220.86656463677804" y="1309.4564190490187"/>
      <point x="201.91029149731395" y="1067.8263537289918" type="curve" smooth="yes"/>
      <point x="184.60505620860084" y="847.2415846435008"/>
      <point x="333.70970237769188" y="724.610042588223"/>
      <point x="519.83443377794663" y="644.20001642540433" type="curve" smooth="yes"/>
      <point x="648.26707118321076" y="588.71425880349727"/>
      <point x="735.1393845782128" y="527.69328180719754"/>
    </contour>
  </outline>
</glyph>
<glyph name="T" format="1">
  <advance width="1034.02"/>
  <unicode hex="0054"/>
  <outline>
    <contour>
      <point x="691.73206351636372" y="1600" type="move" name="top"/>
    </contour>
    <contour>
      <point x="416.25076189018171" y="0" type="move" name="bottom"/>
    </contour>
    <contour>
      <point x="505.49076189018172" y="0" type="move" name="right"/>
    </contour>
    <contour>
      <point x="578.02627286436007" y="897" type="move" name="cross"/>
    </contour>
    <contour>
      <point x="1187.4020635163638" y="1600" type="move" name="top_dd"/>
    </contour>
    <contour>
      <point x="840.62846203902166" y="-407" type="move" name="bottom_dd"/>
    </contour>
    <contour>
      <point x="1187.4020635163638" y="1600" type="move" name="top0315"/>
    </contour>
    <contour>
      <point x="176.77521376883448" y="1289.0902543841091" type="line"/>
      <point x="541.05528814452634" y="1288.9386307236769" type="line"/>
      <point x="317.28322654968093" y="0.0" type="line"/>
      <point x="510.79004385241353" y="0.0" type="line"/>
      <point x="734.55540090047691" y="1288.9255565384581" type="line"/>
      <point x="1098.7656951674824" y="1289.0812201323115" type="line"/>
      <point x="1128.3945658210255" y="1455.9112919509253" type="line"/>
      <point x="206.40543708560352" y="1455.920346224425" type="line"/>
    </contour>
  </outline>
</glyph>
<glyph name="U" format="1">
  <advance width="1111.62"/>
  <unicode hex="0055"/>
  <outline>
    <contour>
      <point x="727.62206351636382" y="1600" type="move" name="top"/>
    </contour>
    <contour>
      <point x="454.08076189018175" y="0" type="move" name="bottom"/>
    </contour>
    <contour>
      <point x="604.43076189018177" y="0" type="move" name="right"/>
    </contour>
    <contour>
      <point x="690.77595474841803" y="45" type="move" name="ogonek"/>
    </contour>
    <contour>
      <point x="1265.0020635163637" y="1600" type="move" name="top_dd"/>
    </contour>
    <contour>
      <point x="918.22846203902168" y="-407" type="move" name="bottom_dd"/>
    </contour>
    <contour>
      <point x="1265.0020635163637" y="1600" type="move" name="top0315"/>
    </contour>
    <contour>
      <point x="951.31152106733225" y="1455.9467256457472" type="line"/>
      <point x="783.70989272685176" y="470.46066666933842" type="line" smooth="yes"/>
      <point x="759.12815437999086" y="303.36032280274696"/>
      <point x="671.09088939276626" y="138.28048887389414"/>
      <point x="479.66046872775655" y="145.68895538063532" type="curve" smooth="yes"/>
      <point x="300.79205005300093" y="152.61126524268485"/>
      <point x="278.32475650230685" y="324.1062471989743"/>
      <point x="295.70023355714858" y="469.95158567655108" type="curve" smooth="yes"/>
      <point x="462.88922778338201" y="1455.9364608168698" type="line"/>
      <point x="269.40370320109878" y="1455.9464911323066" type="line"/>
      <point x="101.93407587462632" y="470.74425067652248" type="line"/>
      <point x="72.269135535977085" y="215.31953006674442"/>
      <point x="190.11024080734336" y="-14.858413083959196"/>
      <point x="468.51634278136225" y="-21.574145698691478" type="curve" smooth="yes"/>
      <point x="758.65270123984726" y="-28.572836429260086"/>
      <point x="939.82779657962203" y="204.23008935448138"/>
      <point x="977.89167459428882" y="471.87223485738753" type="curve" smooth="yes"/>
      <point x="1145.8025624815646" y="1455.940051291708" type="line"/>
    </contour>
  </outline>
</glyph>
<glyph name="V" format="1">
  <advance width="1122.29"/>
  <unicode hex="0056"/>
  <outline>
    <contour>
      <point x="722.20993317227828" y="1612" type="move" name="top"/>
    </contour>
    <contour>
      <point x="472.61780575924479" y="10" type="move" name="bottom"/>
    </contour>
    <contour>
      <point x="1258.6903292216189" y="1600" type="move" name="top_dd"/>
    </contour>
    <contour>
      <point x="945.99906847382965" y="-407" type="move" name="bottom_dd"/>
    </contour>
    <contour>
      <point x="1260.5599331722783" y="1612" type="move" name="top0315"/>
    </contour>
    <contour>
      <point x="1221.6780339194167" y="1455.7798277353413" type="line"/>
      <point x="1003.4303871873025" y="1455.8262446684046" type="line"/>
      <point x="511.27130654762982" y="307.91522535340124" type="line"/>
      <point x="382.85855738828496" y="1456.0249535511275" type="line"/>
      <point x="177.31742664051529" y="1456.0153949771081" type="line"/>
      <point x="387.19797352861679" y="0.0" type="line"/>
      <point x="555.31215483176641" y="0.0" type="line"/>
    </contour>
  </outline>
</glyph>
<glyph name="W" format="1">
  <advance width="1509.32"/>
  <unicode hex="0057"/>
  <outline>
    <contour>
      <point x="927.92032922161889" y="1600" type="move" name="top"/>
    </contour>
    <contour>
      <point x="678.25780575924477" y="10" type="move" name="bottom"/>
    </contour>
    <contour>
      <point x="1645.7203292216191" y="1600" type="move" name="top_dd"/>
    </contour>
    <contour>
      <point x="1333.02906847383" y="-407" type="move" name="bottom_dd"/>
    </contour>
    <contour>
      <point x="1645.7203292216191" y="1600" type="move" name="top0315"/>
    </contour>
    <contour>
      <point x="1595.8648357829964" y="1455.8712634803026" type="line"/>
      <point x="1398.3985790723516" y="1455.8635931992919" type="line"/>
      <point x="1083.7087808797542" y="481.43867449005057" type="line"/>
      <point x="1039.2244066498099" y="320.3115290828564" type="line"/>
      <point x="1035.8658926154762" y="441.09296131041708" type="line"/>
      <point x="980.18740386167713" y="1456.0667932287552" type="line"/>
      <point x="819.70307789180504" y="1455.8194196959889" type="line"/>
      <point x="444.67062468444999" y="456.4402925077394" type="line"/>
      <point x="400.73054757730074" y="332.55215494413318" type="line"/>
      <point x="407.8593472253819" y="460.99516167845849" type="line"/>
      <point x="393.73703829221637" y="1456.0049530167153" type="line"/>
      <point x="204.33089276086969" y="1456.0107517153403" type="line"/>
      <point x="253.1078360020025" y="0.0" type="line"/>
      <point x="428.40546465317493" y="0.0" type="line"/>
      <point x="831.14431876334288" y="1047.4308459523531" type="line"/>
      <point x="855.29114525283217" y="1119.932496341577" type="line"/>
      <point x="853.94302673470554" y="1048.2287490921162" type="line"/>
      <point x="917.96284079857162" y="0.0" type="line"/>
      <point x="1091.5967012869432" y="0.0" type="line"/>
    </contour>
  </outline>
</glyph>
<glyph name="X" format="1">
  <advance width="1100.95"/>
  <unicode hex="0058"/>
  <outline>
    <contour>
      <point x="450.30780575924484" y="10" type="move" name="bottom"/>
    </contour>
    <contour>
      <point x="828.01980246702863" y="0" type="move" name="right"/>
    </contour>
    <contour>
      <point x="574.05364674946986" y="742" type="move" name="cross"/>
    </contour>
    <contour>
      <point x="706.6899331722783" y="1612" type="move" name="top"/>
    </contour>
    <contour>
      <point x="1237.3503292216189" y="1600" type="move" name="top_dd"/>
    </contour>
    <contour>
      <point x="924.65906847382973" y="-407" type="move" name="bottom_dd"/>
    </contour>
    <contour>
      <point x="1239.2199331722784" y="1612" type="move" name="top0315"/>
    </contour>
    <contour>
      <point x="428.40225170036024" y="1456.0075402592095" type="line"/>
      <point x="212.11855533355242" y="1455.9963335601262" type="line"/>
      <point x="460.96417846248096" y="744.17404613062354" type="line"/>
      <point x="-32.667708971121463" y="0.0" type="line"/>
      <point x="206.61904870212902" y="0.0" type="line"/>
      <point x="551.41335309707063" y="555.43696109266648" type="line"/>
      <point x="721.71153324243733" y="0.0" type="line"/>
      <point x="939.90102815855482" y="0.0" type="line"/>
      <point x="688.06483665220833" y="723.81698811487718" type="line"/>
      <point x="1171.0696008029552" y="1455.6916045240571" type="line"/>
      <point x="934.5890464520661" y="1455.7328248032225" type="line"/>
      <point x="596.17091956101604" y="909.36415140299255" type="line"/>
    </contour>
  </outline>
</glyph>
<glyph name="Y" format="1">
  <advance width="1042.75"/>
  <unicode hex="0059"/>
  <outline>
    <contour>
      <point x="698.5220635163638" y="1600" type="move" name="top"/>
    </contour>
    <contour>
      <point x="417.22076189018173" y="0" type="move" name="bottom"/>
    </contour>
    <contour>
      <point x="519.85330761890179" y="594" type="move" name="cross"/>
    </contour>
    <contour>
      <point x="117.48588224297465" y="1454" type="move" name="tonos"/>
    </contour>
    <contour>
      <point x="1196.1320635163638" y="1600" type="move" name="top_dd"/>
    </contour>
    <contour>
      <point x="849.35846203902167" y="-407" type="move" name="bottom_dd"/>
    </contour>
    <contour>
      <point x="1196.1320635163638" y="1600" type="move" name="top0315"/>
    </contour>
    <contour>
      <point x="390.11498144789658" y="1456.0211047390005" type="line"/>
      <point x="180.22316573817483" y="1456.0213693034998" type="line"/>
      <point x="415.96237419679699" y="554.98601705989984" type="line"/>
      <point x="319.20773009920288" y="0.0" type="line"/>
      <point x="513.68210830392388" y="0.0" type="line"/>
      <point x="605.85641448609135" y="531.37452880083208" type="line"/>
      <point x="1168.30079200459" y="1455.7049943105862" type="line"/>
      <point x="939.039878644586" y="1455.7579188027614" type="line"/>
      <point x="539.91804887102217" y="737.8415560825714" type="line"/>
    </contour>
  </outline>
</glyph>
<glyph name="Z" format="1">
  <advance width="1038.87"/>
  <unicode hex="005A"/>
  <outline>
    <contour>
      <point x="696.58206351636375" y="1600" type="move" name="top"/>
    </contour>
    <contour>
      <point x="409.24858252534534" y="10" type="move" name="bottom"/>
    </contour>
    <contour>
      <point x="1192.2520635163637" y="1600" type="move" name="top_dd"/>
    </contour>
    <contour>
      <point x="845.47846203902168" y="-407" type="move" name="bottom_dd"/>
    </contour>
    <contour>
      <point x="1192.2520635163637" y="1600" type="move" name="top0315"/>
    </contour>
    <contour>
      <point x="210.72760900949436" y="1289.08971525675" type="line"/>
      <point x="833.0607226596851" y="1288.6954773036173" type="line"/>
      <point x="12.248098443033115" y="163.92705182159995" type="line"/>
      <point x="-16.275004690063909" y="0.0" type="line"/>
      <point x="854.09204690665536" y="0.0" type="line"/>
      <point x="883.55087866327392" y="165.91083738274173" type="line"/>
      <point x="230.29571808554425" y="166.30080688269052" type="line"/>
      <point x="1052.8211428383283" y="1296.0831945240088" type="line"/>
      <point x="1080.6782691793494" y="1455.8350597476669" type="line"/>
      <point x="240.37065479726579" y="1455.9175885309523" type="line"/>
    </contour>
  </outline>
</glyph>
<glyph name="bracketleft" format="1">
  <advance width="509.25"/>
  <unicode hex="005B"/>
  <outline>
    <contour>
      <point x="629.06302442777167" y="1663.9390370097869" type="line"/>
      <point x="295.78116938565466" y="1663.9501910248187" type="line"/>
      <point x="-13.114271339662253" y="-311.94422403619382" type="line"/>
      <point x="319.96418960096759" y="-311.9487856584031" type="line"/>
      <point x="345.44692484781433" y="-152.0747818609166" type="line"/>
      <point x="198.69591059112736" y="-151.95950320323115" type="line"/>
      <point x="457.39070444538561" y="1503.947888374194" type="line"/>
      <point x="603.58195559438798" y="1504.0667161960068" type="line"/>
    </contour>
  </outline>
</glyph>
<glyph name="backslash" format="1">
  <advance width="741.0799999999999"/>
  <unicode hex="005C"/>
  <outline>
    <contour>
      <point x="421.89166483446468" y="-125.02424940073143" type="line"/>
      <point x="589.31119971735961" y="-125.02863677686473" type="line"/>
      <point x="368.53832735731714" y="1455.9881018388946" type="line"/>
      <point x="200.32708885270017" y="1456.0369698280331" type="line"/>
    </contour>
  </outline>
</glyph>
<glyph name="bracketright" format="1">
  <advance width="509.25"/>
  <unicode hex="005D"/>
  <outline>
    <contour>
      <point x="172.42915627921337" y="1504.0723761087711" type="line"/>
      <point x="320.15016573104992" y="1503.9565527388427" type="line"/>
      <point x="61.455386637622908" y="-151.95026179307544" type="line"/>
      <point x="-85.705884466548554" y="-152.06964440478512" type="line"/>
      <point x="-111.18694068562689" y="-311.94170521052092" type="line"/>
      <point x="223.0649121092091" y="-311.95279893008143" type="line"/>
      <point x="531.96034812133632" y="1663.9414805664762" type="line"/>
      <point x="197.91188709388052" y="1663.9461051607802" type="line"/>
    </contour>
  </outline>
</glyph>
<glyph name="asciicircum" format="1">
  <advance width="738.17"/>
  <unicode hex="005E"/>
  <outline>
    <contour>
      <point x="81.538308004491583" y="729.26490331207003" type="line"/>
      <point x="261.28049768976075" y="729.20511306420121" type="line"/>
      <point x="477.26249500531776" y="1192.636418245773" type="line"/>
      <point x="530.8296446324631" y="728.98678026608491" type="line"/>
      <point x="693.37245375072916" y="728.96491446913592" type="line"/>
      <point x="576.97375842306076" y="1456.0724501552161" type="line"/>
      <point x="452.61261539280179" y="1455.7548044743007" type="line"/>
    </contour>
  </outline>
</glyph>
<glyph name="underscore" format="1">
  <advance width="812.86"/>
  <unicode hex="005F"/>
  <outline>
    <contour>
      <point x="326.00754586225088" y="157" type="move" name="_bottom"/>
    </contour>
    <contour>
      <point x="686.9687913657566" y="0.0" type="line"/>
      <point x="-79.802380622183989" y="0.0" type="line"/>
      <point x="-108.19789219896792" y="-159.90704859948582" type="line"/>
      <point x="658.57327978897035" y="-159.91653851142729" type="line"/>
    </contour>
  </outline>
</glyph>
<glyph name="a" format="1">
  <advance width="955.4499999999999"/>
  <unicode hex="0061"/>
  <outline>
    <contour>
      <point x="613.91962382629094" y="1290" type="move" name="top"/>
    </contour>
    <contour>
      <point x="323.13076189018176" y="0" type="move" name="bottom"/>
    </contour>
    <contour>
      <point x="715.98076189018172" y="0" type="move" name="ogonek"/>
    </contour>
    <contour>
      <point x="708.979623826291" y="1290" type="move" name="rhalfring"/>
    </contour>
    <contour>
      <point x="1108.8320635163636" y="1600" type="move" name="top_dd"/>
    </contour>
    <contour>
      <point x="762.05846203902161" y="-407" type="move" name="bottom_dd"/>
    </contour>
    <contour>
      <point x="745.56023142988363" y="654" type="move" name="rhotichook"/>
    </contour>
    <contour>
      <point x="1055.2696238262911" y="1290" type="move" name="top0315"/>
    </contour>
    <contour>
      <point x="568.3717489887955" y="0.0" type="curve"/>
      <point x="756.39612591899333" y="0.0" type="line"/>
      <point x="757.98717824722462" y="17.884997283000793" type="line"/>
      <point x="752.88573935975614" y="93.597427107496031"/>
      <point x="745.90484865746225" y="161.04384316918333"/>
      <point x="758.45167833281369" y="237.63238089232308" type="curve" smooth="yes"/>
      <point x="845.76590091245794" y="768.13355346433593" type="line"/>
      <point x="864.98509724750977" y="968.95179934813223"/>
      <point x="759.4536964043125" y="1099.970053242524"/>
      <point x="555.21081242711352" y="1103.2902289709293" type="curve" smooth="yes"/>
      <point x="366.11377116406726" y="1106.3641936275628"/>
      <point x="183.98240832311947" y="977.17649607003568"/>
      <point x="166.02811330497082" y="781.6922867220884" type="curve"/>
      <point x="351.44736937088572" y="782.87210391174722" type="line"/>
      <point x="369.6761186675476" y="876.47573836613424"/>
      <point x="436.82327956591007" y="944.21813194912284"/>
      <point x="536.31037764494079" y="943.34535907635893" type="curve" smooth="yes"/>
      <point x="645.10119280200183" y="942.39096725964794"/>
      <point x="670.97230739670113" y="868.48284674769673"/>
      <point x="660.28406926262812" y="771.3164063902401" type="curve" smooth="yes"/>
      <point x="644.4107424034396" y="661.54217395690569" type="line"/>
      <point x="527.43753349823851" y="662.19986408337161" type="line" smooth="yes"/>
      <point x="294.40108379896168" y="661.77774357038174"/>
      <point x="75.836016016033099" y="541.93296888623979"/>
      <point x="60.703469883379128" y="288.74732872677697" type="curve" smooth="yes"/>
      <point x="50.201198789361378" y="113.03174149130876"/>
      <point x="148.38281661752919" y="-20.653427579531513"/>
      <point x="331.81211657474552" y="-20.796698513850959" type="curve" smooth="yes"/>
      <point x="430.42181485808857" y="-20.873719489285683"/>
      <point x="505.63827232921102" y="38.657084537108162"/>
      <point x="565.95650684204509" y="110.8587015538623" type="curve"/>
      <point x="562.19934524282723" y="73.044180322137677"/>
      <point x="560.56253154375861" y="37.337264517048062"/>
    </contour>
    <contour>
      <point x="369.92201935278104" y="148.65808881718809" type="curve" smooth="yes"/>
      <point x="265.59242807349813" y="148.66504051706755"/>
      <point x="242.14326797131034" y="219.46505472795889"/>
      <point x="253.87103975905882" y="313.31009814986828" type="curve" smooth="yes"/>
      <point x="273.15046349778777" y="467.583082878347"/>
      <point x="422.35132355867717" y="524.55798633786742"/>
      <point x="560.54319917829162" y="525.15640673885423" type="curve" smooth="yes"/>
      <point x="622.0165938895359" y="524.26698613454585" type="line"/>
      <point x="576.12416255801998" y="263.31210353655405" type="line"/>
      <point x="525.56558712921537" y="198.28616121651649"/>
      <point x="455.40628635865619" y="148.65239282086188"/>
    </contour>
  </outline>
</glyph>
<glyph name="b" format="1">
  <advance width="983.5799999999999"/>
  <unicode hex="0062"/>
  <outline>
    <contour>
      <point x="725.64266621504385" y="1611" type="move" name="top"/>
    </contour>
    <contour>
      <point x="405.79294125501809" y="-10" type="move" name="bottom"/>
    </contour>
    <contour>
      <point x="1136.9620635163637" y="1600" type="move" name="top_dd"/>
    </contour>
    <contour>
      <point x="790.1884620390216" y="-407" type="move" name="bottom_dd"/>
    </contour>
    <contour>
      <point x="1138.8626662150436" y="1611" type="move" name="top0315"/>
    </contour>
    <contour>
      <point x="884.42375731309028" y="530.40183540856924" type="curve" smooth="yes"/>
      <point x="887.03980393067297" y="552.63430390772044" type="line" smooth="yes"/>
      <point x="909.40044044308513" y="756.49075015741937"/>
      <point x="892.79593025926351" y="1095.118639318418"/>
      <point x="616.69043697254187" y="1101.195036567726" type="curve" smooth="yes"/>
      <point x="517.89301692572462" y="1103.3693227953013"/>
      <point x="437.88291031673418" y="1062.7145302679055"/>
      <point x="371.19166526250063" y="992.21644462192353" type="curve"/>
      <point x="474.884140102061" y="1535.923279125685" type="line"/>
      <point x="288.10808998432714" y="1535.9464062504669" type="line"/>
      <point x="21.674106000920247" y="0.0" type="line"/>
      <point x="193.33697786451546" y="0.0" type="line"/>
      <point x="225.2851429024397" y="103.28627726636945" type="line"/>
      <point x="279.39688541234722" y="21.80769206756942"/>
      <point x="362.63630403321332" y="-18.115883973750165"/>
      <point x="459.85534152164257" y="-20.58867359071996" type="curve" smooth="yes"/>
      <point x="743.38339190241857" y="-27.800277791026048"/>
      <point x="855.60471587375196" y="301.2184973359735"/>
    </contour>
    <contour>
      <point x="555.07001151082386" y="938.95414589455754" type="curve" smooth="yes"/>
      <point x="738.997081501205" y="934.77253560545796"/>
      <point x="713.0516164559466" y="673.6892962198491"/>
      <point x="699.41027101474151" y="551.85399127287587" type="curve" smooth="yes"/>
      <point x="697.07288927741615" y="531.33247840968738" type="line" smooth="yes"/>
      <point x="678.1075482924665" y="381.57354532117353"/>
      <point x="616.57880599013367" y="137.7082176461299"/>
      <point x="421.90778322611811" y="145.74763987980151" type="curve" smooth="yes"/>
      <point x="331.8020879606151" y="149.46877782633635"/>
      <point x="285.0413449046456" y="214.32422658509219"/>
      <point x="260.11786429768057" y="293.88581687199883" type="curve"/>
      <point x="344.02067886496206" y="788.17101139395277" type="line"/>
      <point x="391.68141203566313" y="864.45383342854643"/>
      <point x="456.61336611513229" y="941.19257290499377"/>
    </contour>
  </outline>
</glyph>
<glyph name="c" format="1">
  <advance width="921.5"/>
  <unicode hex="0063"/>
  <outline>
    <contour>
      <point x="556.61222716291707" y="1290" type="move" name="top"/>
    </contour>
    <contour>
      <point x="354.07179917481244" y="-10" type="move" name="bottom"/>
    </contour>
    <contour>
      <point x="556.61222716291707" y="1290" type="move" name="marktop"/>
    </contour>
    <contour>
      <point x="1057.9003292216191" y="1600" type="move" name="top_dd"/>
    </contour>
    <contour>
      <point x="745.20906847382969" y="-407" type="move" name="bottom_dd"/>
    </contour>
    <contour>
      <point x="1009.6022271629171" y="1290" type="move" name="top0315"/>
    </contour>
    <contour>
      <point x="426.63704143496591" y="138.74753339804482" type="curve" smooth="yes"/>
      <point x="239.96371160949278" y="142.81905314643356"/>
      <point x="255.23714986081043" y="389.27001000383723"/>
      <point x="268.27785734712165" y="518.55408106398363" type="curve" smooth="yes"/>
      <point x="272.81723587904747" y="560.22775100662852" type="line" smooth="yes"/>
      <point x="290.54107979611541" y="714.16962043442516"/>
      <point x="349.89251989321792" y="950.34162516433616"/>
      <point x="547.69882489975441" y="942.79872311554902" type="curve" smooth="yes"/>
      <point x="670.80234016226007" y="938.10444525895707"/>
      <point x="698.99047850845932" y="809.08795817389932"/>
      <point x="698.9484565885133" y="708.53652962428339" type="curve"/>
      <point x="874.89942359657141" y="708.20737679228432" type="line"/>
      <point x="876.55864883073184" y="907.82641468718305"/>
      <point x="777.41055602708104" y="1096.2452105366467"/>
      <point x="557.34372583316838" y="1102.108235712773" type="curve" smooth="yes"/>
      <point x="259.75647225667598" y="1110.0365616593767"/>
      <point x="115.31972858595879" y="817.52100115050735"/>
      <point x="86.968856491307335" y="560.47871552992854" type="curve" smooth="yes"/>
      <point x="82.544576483625562" y="517.45340708610161" type="line" smooth="yes"/>
      <point x="59.961804583872748" y="279.00009215954924"/>
      <point x="126.90929447592112" y="-15.353112970422885"/>
      <point x="417.68839143628907" y="-20.916056823829727" type="curve" smooth="yes"/>
      <point x="621.56981110042364" y="-24.816546584615534"/>
      <point x="785.8054020803412" y="149.29726304829435"/>
      <point x="812.51976878560401" y="342.80670437975226" type="curve"/>
      <point x="635.85257261304923" y="341.93684527820716" type="line"/>
      <point x="612.44787311674713" y="241.53369260690829"/>
      <point x="542.00524322423792" y="136.2312451186196"/>
    </contour>
  </outline>
</glyph>
<glyph name="d" format="1">
  <advance width="989.4"/>
  <unicode hex="0064"/>
  <outline>
    <contour>
      <point x="1092.9240114513163" y="1536" type="move" name="caron"/>
    </contour>
    <contour>
      <point x="867.91413684255281" y="1306" type="move" name="cross"/>
    </contour>
    <contour>
      <point x="423.04076189018178" y="0" type="move" name="bottom"/>
    </contour>
    <contour>
      <point x="644.16266621504383" y="1611" type="move" name="top"/>
    </contour>
    <contour>
      <point x="1142.7820635163639" y="1600" type="move" name="top_dd"/>
    </contour>
    <contour>
      <point x="796.00846203902165" y="-407" type="move" name="bottom_dd"/>
    </contour>
    <contour>
      <point x="1144.6826662150438" y="1611" type="move" name="top0315"/>
    </contour>
    <contour>
      <point x="584.87284300656654" y="0.0" type="line"/>
      <point x="753.72039311033313" y="0.0" type="line"/>
      <point x="1019.9501258456999" y="1535.9261385755103" type="line"/>
      <point x="832.32564325174587" y="1535.9381213739503" type="line"/>
      <point x="732.49041308331925" y="1001.6986004742444" type="line"/>
      <point x="676.49206819305914" y="1068.9525301027863"/>
      <point x="599.65687459185403" y="1100.783543803047"/>
      <point x="512.56830944991805" y="1102.6465184985691" type="curve" smooth="yes"/>
      <point x="228.39256487981515" y="1108.7255280717823"/>
      <point x="109.46890296569269" y="779.67044034099035"/>
      <point x="80.216576213189327" y="548.62859016898619" type="curve" smooth="yes"/>
      <point x="77.623359497191032" y="526.63346227836098" type="line" smooth="yes"/>
      <point x="56.350476935471214" y="330.89807295096517"/>
      <point x="87.625917806821633" y="-13.504124327941643"/>
      <point x="352.34821388482413" y="-19.855698769241361" type="curve" smooth="yes"/>
      <point x="452.30280657708687" y="-22.253944197150577"/>
      <point x="533.29062091047126" y="20.267627940882306"/>
      <point x="600.38790640276898" y="91.593218708571357" type="curve"/>
    </contour>
    <contour>
      <point x="266.19432305992081" y="527.19052611095969" type="curve" smooth="yes"/>
      <point x="268.58943605511985" y="547.84911793353172" type="line" smooth="yes"/>
      <point x="288.31201451347056" y="700.37750648124768"/>
      <point x="354.54786806401432" y="946.48092168726396"/>
      <point x="551.52999225207259" y="938.55133748072217" type="curve" smooth="yes"/>
      <point x="632.38672777971829" y="935.29642135228994"/>
      <point x="678.49627215397186" y="878.27844833364247"/>
      <point x="705.0290591309415" y="807.64199310533434" type="curve"/>
      <point x="614.60983660136696" y="278.56407156365668" type="line"/>
      <point x="567.37893264302204" y="206.9129648088292"/>
      <point x="506.54553960487203" y="142.24484701882329"/>
      <point x="413.72940982379112" y="145.29561686638226" type="curve" smooth="yes"/>
      <point x="235.2957152712992" y="151.16054720137075"/>
      <point x="252.74053372080226" y="406.94628834830633"/>
    </contour>
  </outline>
</glyph>
<glyph name="e" format="1">
  <advance width="937.99"/>
  <unicode hex="0065"/>
  <outline>
    <contour>
      <point x="586.682227162917" y="1290" type="move" name="top"/>
    </contour>
    <contour>
      <point x="389.57980246702863" y="0" type="move" name="bottom"/>
    </contour>
    <contour>
      <point x="586.19321003912592" y="23" type="move" name="ogonek"/>
    </contour>
    <contour>
      <point x="1074.3903292216189" y="1600" type="move" name="top_dd"/>
    </contour>
    <contour>
      <point x="761.6990684738297" y="-407" type="move" name="bottom_dd"/>
    </contour>
    <contour>
      <point x="766.95321777796732" y="654" type="move" name="rhotichook"/>
    </contour>
    <contour>
      <point x="1026.0922271629172" y="1290" type="move" name="top0315"/>
    </contour>
    <contour>
      <point x="790.64745755117065" y="190.52419230948627" type="curve"/>
      <point x="685.03256440998507" y="284.01599003320172" type="line"/>
      <point x="625.09889491213812" y="203.9706473120942"/>
      <point x="550.33354315170573" y="136.99960473313723"/>
      <point x="444.06189274422968" y="139.94586119711084" type="curve" smooth="yes"/>
      <point x="272.64656389783568" y="144.698149495085"/>
      <point x="255.52844870846428" y="352.11130402576686"/>
      <point x="269.63048503381691" y="481.09786076755768" type="curve"/>
      <point x="841.49912151859303" y="481.00779667663204" type="line"/>
      <point x="852.93352394517535" y="566.20184473230472" type="line" smooth="yes"/>
      <point x="880.37638994087001" y="799.13525974076606"/>
      <point x="838.75722576432815" y="1095.0976037921935"/>
      <point x="548.09355321122246" y="1102.4200498097364" type="curve" smooth="yes"/>
      <point x="259.9112133754445" y="1109.6799856941257"/>
      <point x="112.56474811838413" y="783.35341720003578"/>
      <point x="88.073638628664" y="542.25933757713346" type="curve" smooth="yes"/>
      <point x="84.09209324604042" y="499.16398806210231" type="line" smooth="yes"/>
      <point x="64.49062426216976" y="261.90539319840792"/>
      <point x="144.96170731418954" y="-15.217151577515676"/>
      <point x="427.14360750760773" y="-20.277898424490608" type="curve" smooth="yes"/>
      <point x="583.71400270581421" y="-23.085885518226338"/>
      <point x="711.69002070582246" y="58.547204147879881"/>
    </contour>
    <contour>
      <point x="536.91677123343402" y="943.3356337688881" type="curve" smooth="yes"/>
      <point x="680.45107723889964" y="937.69040394805029"/>
      <point x="691.23376168480615" y="766.81697306904698"/>
      <point x="676.75595866137951" y="656.53416773054209" type="curve"/>
      <point x="673.53472791626996" y="639.51178708090538" type="line"/>
      <point x="286.64861536597721" y="641.1715746820928" type="line"/>
      <point x="319.42506361935006" y="759.3745630486419"/>
      <point x="382.05676897369744" y="949.42630524068511"/>
    </contour>
  </outline>
</glyph>
<glyph name="f" format="1">
  <advance width="636.3199999999999"/>
  <unicode hex="0066"/>
  <outline>
    <contour>
      <point x="624.31719367898199" y="1760" type="move" name="top"/>
    </contour>
    <contour>
      <point x="186.14858252534538" y="10" type="move" name="bottom"/>
    </contour>
    <contour>
      <point x="789.70206351636375" y="1600" type="move" name="top_dd"/>
    </contour>
    <contour>
      <point x="442.92846203902161" y="-407" type="move" name="bottom_dd"/>
    </contour>
    <contour>
      <point x="817.34719367898197" y="1760" type="move" name="top0315"/>
    </contour>
    <contour>
      <point x="619.00437479784932" y="932.06686794227664" type="line"/>
      <point x="645.26727671557285" y="1081.8971130513355" type="line"/>
      <point x="471.98716464389372" y="1082.116542665907" type="line"/>
      <point x="488.60646870866708" y="1193.2699609154583" type="line" smooth="yes"/>
      <point x="504.78605121413318" y="1294.0428250261382"/>
      <point x="555.68035905729198" y="1394.5102401606325"/>
      <point x="671.20243398557568" y="1393.9490415116672" type="curve" smooth="yes"/>
      <point x="697.3972089314226" y="1393.8217890162573"/>
      <point x="723.59396353129398" y="1388.9644102520585"/>
      <point x="749.01884841514288" y="1383.1931000920356" type="curve"/>
      <point x="774.39715401961723" y="1541.4596611402753" type="line"/>
      <point x="737.05734827022502" y="1550.7584852369496"/>
      <point x="699.84415714733507" y="1558.6494427932571"/>
      <point x="661.18822086526825" y="1559.3067537892" type="curve" smooth="yes"/>
      <point x="439.26414750090021" y="1563.0803820522024"/>
      <point x="327.07312886347188" y="1395.7653284375037"/>
      <point x="300.18308395292661" y="1193.3091622235979" type="curve" smooth="yes"/>
      <point x="284.7736881870033" y="1082.3720644515033" type="line"/>
      <point x="149.95549732121913" y="1081.8267302084164" type="line"/>
      <point x="123.98081288927902" y="932.05449328699092" type="line"/>
      <point x="258.90660260673997" y="931.9257829604644" type="line"/>
      <point x="97.101034922169973" y="0.0" type="line"/>
      <point x="284.77650045274254" y="0.0" type="line"/>
      <point x="446.62040846026707" y="931.92221838034891" type="line"/>
    </contour>
  </outline>
</glyph>
<glyph name="g" format="1">
  <advance width="982.61"/>
  <unicode hex="0067"/>
  <outline>
    <contour>
      <point x="588.69962382629092" y="1290" type="move" name="top"/>
    </contour>
    <contour>
      <point x="289.54717949836714" y="-447" type="move" name="bottom"/>
    </contour>
    <contour>
      <point x="1135.9920635163637" y="1600" type="move" name="top_dd"/>
    </contour>
    <contour>
      <point x="789.21846203902157" y="-407" type="move" name="bottom_dd"/>
    </contour>
    <contour>
      <point x="1082.4296238262909" y="1290" type="move" name="top0315"/>
    </contour>
    <contour>
      <point x="762.71427261309316" y="24.052535926111901" type="curve" smooth="yes"/>
      <point x="942.92572727845027" y="1081.9295830535559" type="line"/>
      <point x="772.7309154413922" y="1082.5008760845737" type="line"/>
      <point x="743.39776173257144" y="986.66787815347777" type="line"/>
      <point x="688.19651822667186" y="1063.4089293508589"/>
      <point x="607.79725061358249" y="1100.4160572608698"/>
      <point x="513.72709184173709" y="1102.6988758297666" type="curve" smooth="yes"/>
      <point x="227.77983776873918" y="1109.6380126383485"/>
      <point x="111.87879895021165" y="780.54762895890804"/>
      <point x="82.761449542326957" y="548.48877305228007" type="curve" smooth="yes"/>
      <point x="80.189452840401074" y="526.50304771952494" type="line" smooth="yes"/>
      <point x="58.902399206638606" y="329.71686650737729"/>
      <point x="87.228818585335318" y="-13.551493778450332"/>
      <point x="353.59314268557875" y="-19.488686629283336" type="curve" smooth="yes"/>
      <point x="448.41774409660343" y="-21.602302810738436"/>
      <point x="526.60083915711664" y="16.953510036304053"/>
      <point x="593.5310213096401" y="81.610007182624742" type="curve"/>
      <point x="578.62703263309072" y="11.462474227837841" type="line" smooth="yes"/>
      <point x="549.57736879237291" y="-129.95685210067444"/>
      <point x="468.48788682559041" y="-272.48984900984027"/>
      <point x="304.83980003110037" y="-266.86128608625364" type="curve" smooth="yes"/>
      <point x="208.25638097873906" y="-263.53936609219932"/>
      <point x="141.39376872681467" y="-197.88516451764349"/>
      <point x="94.893917395411378" y="-119.1666915013335" type="curve"/>
      <point x="-10.448641917500652" y="-233.65881709845274" type="line"/>
      <point x="55.55026168243154" y="-345.52805157093599"/>
      <point x="179.65374597516944" y="-421.2425319293904"/>
      <point x="311.09046771565909" y="-426.06714857512253" type="curve" smooth="yes"/>
      <point x="577.2856310838115" y="-435.8383114525343"/>
      <point x="728.83362363449567" y="-216.49994711914508"/>
    </contour>
    <contour>
      <point x="267.82476068436944" y="527.13375456102096" type="curve" smooth="yes"/>
      <point x="270.1778941607767" y="547.67845981261257" type="line" smooth="yes"/>
      <point x="289.70042756069853" y="700.31936535733439"/>
      <point x="356.1242490040168" y="946.39289074450153"/>
      <point x="553.32078266341739" y="938.28675730292412" type="curve" smooth="yes"/>
      <point x="635.12547038240461" y="934.92402215494212"/>
      <point x="681.03328101942111" y="876.13788405916489"/>
      <point x="707.22896788264438" y="804.71616225898345" type="curve"/>
      <point x="618.15309966682264" y="281.37050646892487" type="line"/>
      <point x="570.75503622964357" y="208.00871026849961"/>
      <point x="509.29799936126398" y="142.04460240910416"/>
      <point x="414.77906203400278" y="145.0797220112218" type="curve" smooth="yes"/>
      <point x="236.40688599405101" y="150.80747248409017"/>
      <point x="254.51088906885164" y="407.27773553922907"/>
    </contour>
  </outline>
</glyph>
<glyph name="h" format="1">
  <advance width="960.3"/>
  <unicode hex="0068"/>
  <outline>
    <contour>
      <point x="609.24266621504376" y="1611" type="move" name="top"/>
    </contour>
    <contour>
      <point x="362.5441368425528" y="1306" type="move" name="cross"/>
    </contour>
    <contour>
      <point x="400.51858252534538" y="10" type="move" name="bottom"/>
    </contour>
    <contour>
      <point x="733.44076189018176" y="0" type="move" name="right"/>
    </contour>
    <contour>
      <point x="1113.6820635163638" y="1600" type="move" name="top_dd"/>
    </contour>
    <contour>
      <point x="766.90846203902163" y="-407" type="move" name="bottom_dd"/>
    </contour>
    <contour>
      <point x="1115.5826662150439" y="1611" type="move" name="top0315"/>
    </contour>
    <contour>
      <point x="553.12681608733942" y="938.81140102158281" type="curve" smooth="yes"/>
      <point x="678.52028084850053" y="936.36706495919043"/>
      <point x="677.22608809112751" y="808.93167730751748"/>
      <point x="666.28710901651129" y="713.31256774647363" type="curve"/>
      <point x="547.35684450277336" y="0.0" type="line"/>
      <point x="733.86268845087875" y="0.0" type="line"/>
      <point x="852.14648978379591" y="710.28759112832381" type="line"/>
      <point x="870.12670990660899" y="886.60247346116978"/>
      <point x="839.22940575725102" y="1097.9222794285383"/>
      <point x="622.2485085791119" y="1100.9759893312905" type="curve" smooth="yes"/>
      <point x="520.90194366454671" y="1102.4023038728672"/>
      <point x="438.16789703300157" y="1053.9245775740415"/>
      <point x="369.84201226378173" y="982.68573705037625" type="curve"/>
      <point x="474.85858793641489" y="1535.9284302442124" type="line"/>
      <point x="287.13525328627912" y="1535.9407206600524" type="line"/>
      <point x="20.46709532160925" y="0.0" type="line"/>
      <point x="208.14175165531333" y="0.0" type="line"/>
      <point x="345.64328833174199" y="795.78572434468458" type="line"/>
      <point x="393.94853098144756" y="865.56058708571379"/>
      <point x="460.38423253703274" y="940.61926271456059"/>
    </contour>
  </outline>
</glyph>
<glyph name="i" format="1">
  <advance width="463.65999999999997"/>
  <unicode hex="0069"/>
  <outline>
    <contour>
      <point x="129.88858252534533" y="10" type="move" name="bottom"/>
    </contour>
    <contour>
      <point x="204.79076189018173" y="0" type="move" name="ogonek"/>
    </contour>
    <contour>
      <point x="405.58206351636375" y="1600" type="move" name="top"/>
    </contour>
    <contour>
      <point x="617.04206351636378" y="1600" type="move" name="top_dd"/>
    </contour>
    <contour>
      <point x="270.2684620390217" y="-407" type="move" name="bottom_dd"/>
    </contour>
    <contour>
      <point x="271.23023142988364" y="654" type="move" name="rhotichook"/>
    </contour>
    <contour>
      <point x="617.04206351636378" y="1600" type="move" name="top0315"/>
    </contour>
    <contour>
      <point x="263.4570948289317" y="1362.4364236034505" type="curve" smooth="yes"/>
      <point x="262.96811392698902" y="1300.689420459498"/>
      <point x="303.36923026103585" y="1253.0139885201934"/>
      <point x="367.16047910492171" y="1254.8245286718673" type="curve" smooth="yes"/>
      <point x="430.85838984285118" y="1256.6324196766507"/>
      <point x="470.23196858631997" y="1306.1191256457898"/>
      <point x="470.82087021498899" y="1367.6770186976453" type="curve" smooth="yes"/>
      <point x="471.41513178622654" y="1429.7951865990444"/>
      <point x="430.71788887714217" y="1479.0046893214753"/>
      <point x="366.28176095607148" y="1477.1583547898297" type="curve" smooth="yes"/>
      <point x="302.00517463700305" y="1475.3165917179927"/>
      <point x="263.94379874273557" y="1423.8958956941317"/>
    </contour>
    <contour>
      <point x="409.72992513124848" y="1081.9349217151655" type="line"/>
      <point x="222.05021880358356" y="1081.9440547340578" type="line"/>
      <point x="34.050367343386981" y="0.0" type="line"/>
      <point x="221.73007367103355" y="0.0" type="line"/>
    </contour>
  </outline>
</glyph>
<glyph name="j" format="1">
  <advance width="450.08"/>
  <unicode hex="006A"/>
  <outline>
    <contour>
      <point x="373.57206351636376" y="1600" type="move" name="top"/>
    </contour>
    <contour>
      <point x="-8.3762052638292488" y="-459" type="move" name="bottom"/>
    </contour>
    <contour>
      <point x="603.46206351636374" y="1600" type="move" name="top_dd"/>
    </contour>
    <contour>
      <point x="256.68846203902172" y="-407" type="move" name="bottom_dd"/>
    </contour>
    <contour>
      <point x="603.46206351636374" y="1600" type="move" name="top0315"/>
    </contour>
    <contour>
      <point x="246.11096697961699" y="1362.3441815236058" type="curve" smooth="yes"/>
      <point x="245.60738162818907" y="1300.7742467845021"/>
      <point x="286.16146978508266" y="1253.6650751613981"/>
      <point x="349.59642359798681" y="1255.4431408545636" type="curve" smooth="yes"/>
      <point x="412.9836513854666" y="1257.2198687993209"/>
      <point x="452.63618074901848" y="1306.1555143863759"/>
      <point x="453.2545270602933" y="1367.5755328928012" type="curve" smooth="yes"/>
      <point x="453.87854359426444" y="1429.5587716798257"/>
      <point x="413.17932388398867" y="1478.3653564929973"/>
      <point x="348.97090550577178" y="1476.5435480159015" type="curve" smooth="yes"/>
      <point x="284.8596814157641" y="1474.7244972671947"/>
      <point x="246.61332617835714" y="1423.7642029644944"/>
    </contour>
    <contour>
      <point x="211.39399017603716" y="1081.9444170959462" type="line"/>
      <point x="4.7291004427464145" y="-128.68826106743944" type="line" smooth="yes"/>
      <point x="-5.2758241283805773" y="-192.06458030620769"/>
      <point x="-23.311095881059046" y="-273.87040402921792"/>
      <point x="-102.00005642820342" y="-274.40484186114696" type="curve" smooth="yes"/>
      <point x="-125.04906933767826" y="-274.56138560504434"/>
      <point x="-147.86269525963036" y="-268.80266035778436"/>
      <point x="-170.22377808011453" y="-264.0679946161186" type="curve"/>
      <point x="-185.9456061127903" y="-421.03274513276369" type="line"/>
      <point x="-150.9908375312516" y="-431.56175467387766"/>
      <point x="-115.16095511379623" y="-439.96629702864033"/>
      <point x="-78.427072139637858" y="-440.62037328610006" type="curve" smooth="yes"/>
      <point x="107.58578038431691" y="-443.93248136092217"/>
      <point x="174.31279828147981" y="-288.58427171281522"/>
      <point x="194.03020694698603" y="-127.79107248777271" type="curve" smooth="yes"/>
      <point x="399.06166194551918" y="1081.9345147361221" type="line"/>
    </contour>
  </outline>
</glyph>
<glyph name="k" format="1">
  <advance width="903.0699999999999"/>
  <unicode hex="006B"/>
  <outline>
    <contour>
      <point x="360.89716014577812" y="67" type="move" name="bottom"/>
    </contour>
    <contour>
      <point x="317.89684176277467" y="1289" type="move" name="cross"/>
    </contour>
    <contour>
      <point x="643.1926662150438" y="1611" type="move" name="top"/>
    </contour>
    <contour>
      <point x="643.1926662150438" y="1611" type="move" name="marktop"/>
    </contour>
    <contour>
      <point x="1056.4520635163638" y="1600" type="move" name="top_dd"/>
    </contour>
    <contour>
      <point x="709.67846203902161" y="-407" type="move" name="bottom_dd"/>
    </contour>
    <contour>
      <point x="952.62266621504386" y="1611" type="move" name="top0315"/>
    </contour>
    <contour>
      <point x="572.23873962969185" y="0.0" type="line"/>
      <point x="777.10272699672475" y="0.0" type="line"/>
      <point x="518.77003883113571" y="621.22158382799694" type="line"/>
      <point x="933.06699973198329" y="1081.596177090029" type="line"/>
      <point x="695.2580458784422" y="1081.6630144290179" type="line"/>
      <point x="410.62918045704089" y="744.88827126917215" type="line"/>
      <point x="319.91688803830471" y="642.21315458407105" type="line"/>
      <point x="475.76601331470761" y="1535.9353441161306" type="line"/>
      <point x="288.09878347138942" y="1535.9453981437787" type="line"/>
      <point x="21.437397176501293" y="0.0" type="line"/>
      <point x="209.1002274555641" y="0.0" type="line"/>
      <point x="274.02422458009818" y="374.71813012913935" type="line"/>
      <point x="387.68300315948602" y="485.56969557681202" type="line"/>
    </contour>
  </outline>
</glyph>
<glyph name="l" format="1">
  <advance width="463.65999999999997"/>
  <unicode hex="006C"/>
  <outline>
    <contour>
      <point x="421.71748780448377" y="1699" type="move" name="top"/>
    </contour>
    <contour>
      <point x="129.88858252534533" y="10" type="move" name="bottom"/>
    </contour>
    <contour>
      <point x="584.6440114513166" y="1536" type="move" name="caron"/>
    </contour>
    <contour>
      <point x="450.07407905184732" y="774" type="move" name="dot"/>
    </contour>
    <contour>
      <point x="664.42348589593098" y="1543" type="move" name="marktop"/>
    </contour>
    <contour>
      <point x="617.04206351636378" y="1600" type="move" name="top_dd"/>
    </contour>
    <contour>
      <point x="270.2684620390217" y="-407" type="move" name="bottom_dd"/>
    </contour>
    <contour>
      <point x="634.14748780448372" y="1699" type="move" name="top0315"/>
    </contour>
    <contour>
      <point x="488.38674079023917" y="1535.9394116284957" type="line"/>
      <point x="300.70677689316784" y="1535.9488355033798" type="line"/>
      <point x="34.049532292941862" y="0.0" type="line"/>
      <point x="221.72949619001622" y="0.0" type="line"/>
    </contour>
  </outline>
</glyph>
<glyph name="m" format="1">
  <advance width="1490.8899999999999"/>
  <unicode hex="006D"/>
  <outline>
    <contour>
      <point x="878.729623826291" y="1290" type="move" name="top"/>
    </contour>
    <contour>
      <point x="643.01858252534544" y="10" type="move" name="bottom"/>
    </contour>
    <contour>
      <point x="878.729623826291" y="1290" type="move" name="marktop"/>
    </contour>
    <contour>
      <point x="1644.2720635163637" y="1600" type="move" name="top_dd"/>
    </contour>
    <contour>
      <point x="1297.4984620390217" y="-407" type="move" name="bottom_dd"/>
    </contour>
    <contour>
      <point x="1590.7096238262911" y="1290" type="move" name="top0315"/>
    </contour>
    <contour>
      <point x="539.23582188846376" y="937.29033027884054" type="curve" smooth="yes"/>
      <point x="665.67124260265234" y="934.09739290289508"/>
      <point x="677.48697574014307" y="813.82988533098205"/>
      <point x="666.26628644694961" y="712.10805634037251" type="curve"/>
      <point x="547.19850984722439" y="0.0" type="line"/>
      <point x="734.84986361168501" y="0.0" type="line"/>
      <point x="858.43709504800051" y="721.54685397891274" type="line"/>
      <point x="858.67867342013653" y="724.46296137245167"/>
      <point x="857.98979757692086" y="727.52509912289725"/>
      <point x="858.33796400281142" y="730.40501726250136" type="curve" smooth="yes"/>
      <point x="870.35424906490607" y="829.79977433152578"/>
      <point x="954.61891687820105" y="940.59305225777632"/>
      <point x="1060.9617244220399" y="939.54613003502982" type="curve" smooth="yes"/>
      <point x="1193.1497851365252" y="938.24476681602039"/>
      <point x="1203.7675702161478" y="822.72304094305264"/>
      <point x="1192.0668474796744" y="715.17584773758017" type="curve"/>
      <point x="1072.940255575279" y="0.0" type="line"/>
      <point x="1259.6118082818807" y="0.0" type="line"/>
      <point x="1378.4111148719951" y="712.24362035054401" type="line"/>
      <point x="1397.7414429050223" y="899.75003700380535"/>
      <point x="1353.7795752313245" y="1098.2500817434732"/>
      <point x="1131.4121937472296" y="1102.4207407034844" type="curve" smooth="yes"/>
      <point x="1010.8021300550831" y="1104.6828685364785"/>
      <point x="917.87783600102307" y="1043.11346340196"/>
      <point x="842.46144794416659" y="954.19098359449231" type="curve"/>
      <point x="807.55925514513274" y="1050.8616632447533"/>
      <point x="724.06989631617762" y="1099.4697214305936"/>
      <point x="623.03259413011358" y="1101.4440244844227" type="curve" smooth="yes"/>
      <point x="522.00021090394341" y="1103.4182314201121"/>
      <point x="436.71101273362615" y="1064.166414514056"/>
      <point x="365.64617761452143" y="994.26402287531153" type="curve"/>
      <point x="381.80575505154422" y="1083.2021621197377" type="line"/>
      <point x="210.15474608394226" y="1081.7962696520121" type="line"/>
      <point x="22.41015061653178" y="0.0" type="line"/>
      <point x="209.11100906685596" y="0.0" type="line"/>
      <point x="352.17829818900759" y="825.89518617558952" type="line"/>
      <point x="397.11303978159583" y="892.14475485593925"/>
      <point x="455.19238336310707" y="939.41272157199876"/>
    </contour>
  </outline>
</glyph>
<glyph name="n" format="1">
  <advance width="963.2099999999999"/>
  <unicode hex="006E"/>
  <outline>
    <contour>
      <point x="604.21962382629101" y="1290" type="move" name="top"/>
    </contour>
    <contour>
      <point x="372.38858252534538" y="10" type="move" name="bottom"/>
    </contour>
    <contour>
      <point x="151.57235764186555" y="1539" type="move" name="caron"/>
    </contour>
    <contour>
      <point x="733.44076189018176" y="0" type="move" name="right"/>
    </contour>
    <contour>
      <point x="604.21962382629101" y="1290" type="move" name="marktop"/>
    </contour>
    <contour>
      <point x="1116.5920635163639" y="1600" type="move" name="top_dd"/>
    </contour>
    <contour>
      <point x="769.8184620390216" y="-407" type="move" name="bottom_dd"/>
    </contour>
    <contour>
      <point x="1063.0296238262908" y="1290" type="move" name="top0315"/>
    </contour>
    <contour>
      <point x="553.24202669694887" y="938.58250866762546" type="curve" smooth="yes"/>
      <point x="678.44395957225561" y="935.95534230181204"/>
      <point x="677.25896838764208" y="809.01511320927807"/>
      <point x="666.30513881808724" y="713.36729019737822" type="curve"/>
      <point x="547.36799752421359" y="0.0" type="line"/>
      <point x="733.86229698974319" y="0.0" type="line"/>
      <point x="852.1617577921271" y="710.26366158073449" type="line"/>
      <point x="870.1797583979386" y="886.52978142617076"/>
      <point x="838.61429696649691" y="1098.1817256858126"/>
      <point x="621.68514619730104" y="1102.0114088803787" type="curve" smooth="yes"/>
      <point x="516.52837530588988" y="1103.8678542536709"/>
      <point x="431.62298453545577" y="1051.009570465148"/>
      <point x="362.52668932417231" y="975.97844555483539" type="curve"/>
      <point x="383.94979326741094" y="1083.0517803392386" type="line"/>
      <point x="208.16006569248788" y="1081.7867846352551" type="line"/>
      <point x="20.47057526081845" y="0.0" type="line"/>
      <point x="208.13926755729102" y="0.0" type="line"/>
      <point x="345.64787650403639" y="795.7728786434302" type="line"/>
      <point x="394.02743572944541" y="865.61781615558607"/>
      <point x="460.40287403430176" y="940.53059280422451"/>
    </contour>
  </outline>
</glyph>
<glyph name="o" format="1">
  <advance width="1002.01"/>
  <unicode hex="006F"/>
  <outline>
    <contour>
      <point x="597.35222716291707" y="1290" type="move" name="top"/>
    </contour>
    <contour>
      <point x="406.06980246702864" y="0" type="move" name="bottom"/>
    </contour>
    <contour>
      <point x="1138.4103292216191" y="1600" type="move" name="top_dd"/>
    </contour>
    <contour>
      <point x="825.71906847382968" y="-407" type="move" name="bottom_dd"/>
    </contour>
    <contour>
      <point x="834.8532177779673" y="654" type="move" name="rhotichook"/>
    </contour>
    <contour>
      <point x="1090.1122271629172" y="1290" type="move" name="top0315"/>
    </contour>
    <contour>
      <point x="84.953860353679531" y="523.65514075761246" type="line" smooth="yes"/>
      <point x="62.218723873409985" y="288.51263510865658"/>
      <point x="136.2989874907455" y="-13.203936894454497"/>
      <point x="422.05147133214803" y="-20.454647328440771" type="curve" smooth="yes"/>
      <point x="719.80856936520377" y="-28.009963973387261"/>
      <point x="867.94930008656559" y="276.22982350069776"/>
      <point x="897.30140736912892" y="531.46062944834659" type="curve" smooth="yes"/>
      <point x="899.61648485311491" y="553.34246813351149" type="line" smooth="yes"/>
      <point x="922.40203650314288" y="790.00184998381428"/>
      <point x="849.14841332333594" y="1095.1355013907219"/>
      <point x="560.95812304446429" y="1102.3822814509742" type="curve" smooth="yes"/>
      <point x="261.28388802168735" y="1109.9178346746205"/>
      <point x="116.34646298647642" y="799.96569891034801"/>
      <point x="87.197280947955662" y="544.83836052838524" type="curve" smooth="yes"/>
    </contour>
    <contour>
      <point x="273.86443610505961" y="545.22098002246366" type="line" smooth="yes"/>
      <point x="291.62537600545363" y="693.89084635851475"/>
      <point x="356.93500561632709" y="949.86036547232891"/>
      <point x="551.42669741409759" y="942.78586855617584" type="curve" smooth="yes"/>
      <point x="732.73861613336862" y="936.19077650887652"/>
      <point x="725.18767598682859" y="677.81373717509905"/>
      <point x="712.30354038028497" y="552.60726520081391" type="curve" smooth="yes"/>
      <point x="710.06584750296361" y="532.06130193088632" type="line" smooth="yes"/>
      <point x="692.0666570969571" y="382.92983291462821"/>
      <point x="625.30913466936465" y="131.82439205968336"/>
      <point x="431.52375560127791" y="138.82759824331123" type="curve" smooth="yes"/>
      <point x="251.1424268822748" y="145.34639570249462"/>
      <point x="258.79267876239084" y="398.9516532767837"/>
      <point x="271.56725631362502" y="523.9919644804844" type="curve" smooth="yes"/>
    </contour>
  </outline>
</glyph>
<glyph name="p" format="1">
  <advance width="983.5799999999999"/>
  <unicode hex="0070"/>
  <outline>
    <contour>
      <point x="661.66180319112732" y="1280" type="move" name="top"/>
    </contour>
    <contour>
      <point x="43.288462039021667" y="-407" type="move" name="bottom"/>
    </contour>
    <contour>
      <point x="661.66180319112732" y="1280" type="move" name="marktop"/>
    </contour>
    <contour>
      <point x="1136.9620635163637" y="1600" type="move" name="top_dd"/>
    </contour>
    <contour>
      <point x="790.1884620390216" y="-407" type="move" name="bottom_dd"/>
    </contour>
    <contour>
      <point x="1081.6718031911273" y="1280" type="move" name="top0315"/>
    </contour>
    <contour>
      <point x="458.52365283676068" y="-21.023927673433171" type="curve" smooth="yes"/>
      <point x="742.03920257234904" y="-27.412202121701633"/>
      <point x="853.39536948327509" y="301.29531602632494"/>
      <point x="882.47796214570064" y="530.567353288253" type="curve" smooth="yes"/>
      <point x="885.10185123741667" y="552.61118152021879" type="line" smooth="yes"/>
      <point x="907.80284455417143" y="757.29239910834497"/>
      <point x="891.08252995292833" y="1094.8547554859485"/>
      <point x="614.69083663764707" y="1101.5269025071304" type="curve" smooth="yes"/>
      <point x="512.53843191735814" y="1103.9928806075777"/>
      <point x="429.26465873387025" y="1060.7246588690791"/>
      <point x="360.5298855691438" y="987.7994765156127" type="curve"/>
      <point x="375.51054479944708" y="1083.2175825828187" type="line"/>
      <point x="208.96223236357741" y="1081.7948144354609" type="line"/>
      <point x="-50.649264706787974" y="-415.93219391548655" type="line"/>
      <point x="135.97509815673027" y="-415.932042435835" type="line"/>
      <point x="229.52783165429287" y="81.738051260696651" type="line"/>
      <point x="288.4134072046312" y="13.020224197636111"/>
      <point x="368.54492669407841" y="-18.996494618557982"/>
    </contour>
    <contour>
      <point x="544.39011399127082" y="938.20545184558227" type="curve" smooth="yes"/>
      <point x="725.02034903005017" y="933.84684143868731"/>
      <point x="711.14627936025931" y="673.36586818129263"/>
      <point x="697.42350992273589" y="551.88956093618083" type="curve" smooth="yes"/>
      <point x="695.00335439337437" y="531.35705349075158" type="line" smooth="yes"/>
      <point x="675.00572142313104" y="378.46101879983655"/>
      <point x="604.39121242889735" y="132.1900927695138"/>
      <point x="407.98838406849626" y="139.58309128501409" type="curve" smooth="yes"/>
      <point x="327.62770328842169" y="142.60802936086245"/>
      <point x="281.7200894217944" y="191.38467488170448"/>
      <point x="254.24698956161905" y="262.56969884323024" type="curve"/>
      <point x="348.53452211014081" y="811.3647860103556" type="line"/>
      <point x="395.86394450055974" y="877.3123543424631"/>
      <point x="456.7181009804267" y="940.32097889574891"/>
    </contour>
  </outline>
</glyph>
<glyph name="q" format="1">
  <advance width="999.1"/>
  <unicode hex="0071"/>
  <outline>
    <contour>
      <point x="576.08962382629102" y="1290" type="move" name="top"/>
    </contour>
    <contour>
      <point x="589.39846203902164" y="-407" type="move" name="bottom"/>
    </contour>
    <contour>
      <point x="576.08962382629102" y="1290" type="move" name="marktop"/>
    </contour>
    <contour>
      <point x="1152.4820635163637" y="1600" type="move" name="top_dd"/>
    </contour>
    <contour>
      <point x="805.70846203902158" y="-407" type="move" name="bottom_dd"/>
    </contour>
    <contour>
      <point x="1098.9196238262909" y="1290" type="move" name="top0315"/>
    </contour>
    <contour>
      <point x="940.02250326476428" y="1081.9116466298663" type="line"/>
      <point x="766.79467870259793" y="1082.5822355252972" type="line"/>
      <point x="740.31106590677177" y="998.151974566229" type="line"/>
      <point x="683.67095679240492" y="1067.5805120669324"/>
      <point x="605.3769880108747" y="1100.8431103566074"/>
      <point x="516.17887881086006" y="1102.8566599581075" type="curve" smooth="yes"/>
      <point x="225.24162456302048" y="1109.4242497602481"/>
      <point x="110.55627041113549" y="786.17459922693263"/>
      <point x="80.257416761270818" y="548.49647548446762" type="curve" smooth="yes"/>
      <point x="77.624060642805105" y="526.52755381261727" type="line" smooth="yes"/>
      <point x="55.166228775924878" y="324.3659548758036"/>
      <point x="84.300449727046214" y="-14.494180345912273"/>
      <point x="355.81145654332875" y="-19.540768402761493" type="curve" smooth="yes"/>
      <point x="445.78712392027063" y="-21.213150431453091"/>
      <point x="521.37793092913296" y="13.382474665701032"/>
      <point x="586.50960099485644" y="73.457511845496043" type="curve"/>
      <point x="492.44191592111008" y="-415.92691453389421" type="line"/>
      <point x="680.23361506578567" y="-415.93930951188639" type="line"/>
    </contour>
    <contour>
      <point x="266.16680503906883" y="527.20552404961609" type="curve" smooth="yes"/>
      <point x="268.70829476112749" y="547.76792960943476" type="line" smooth="yes"/>
      <point x="289.40731707425653" y="700.54421358153991"/>
      <point x="359.82348116541721" y="951.53367156014281"/>
      <point x="557.43041907434474" y="942.94199346322887" type="curve" smooth="yes"/>
      <point x="632.43019404241295" y="939.68110631682919"/>
      <point x="678.57524397468717" y="890.12488322988588"/>
      <point x="708.05208682428349" y="825.68183660587601" type="curve"/>
      <point x="609.83618193402026" y="258.60913185765224" type="line"/>
      <point x="561.57042899889325" y="194.00343825767771"/>
      <point x="501.87384049190518" y="136.78895770680055"/>
      <point x="415.51725438425001" y="139.14078687782737" type="curve" smooth="yes"/>
      <point x="236.2252147938851" y="144.02361362963822"/>
      <point x="252.05752675701513" y="407.51186365481169"/>
    </contour>
  </outline>
</glyph>
<glyph name="r" format="1">
  <advance width="606.25"/>
  <unicode hex="0072"/>
  <outline>
    <contour>
      <point x="469.38962382629097" y="1290" type="move" name="top"/>
    </contour>
    <contour>
      <point x="129.88858252534533" y="10" type="move" name="bottom"/>
    </contour>
    <contour>
      <point x="759.63206351636381" y="1600" type="move" name="top_dd"/>
    </contour>
    <contour>
      <point x="412.85846203902167" y="-407" type="move" name="bottom_dd"/>
    </contour>
    <contour>
      <point x="706.06962382629104" y="1290" type="move" name="top0315"/>
    </contour>
    <contour>
      <point x="545.44266859719926" y="916.1369584473623" type="curve" smooth="yes"/>
      <point x="571.91551146607367" y="916.14355378116909"/>
      <point x="597.71646140786879" y="911.63620650798487"/>
      <point x="623.41555824730654" y="905.84955532359254" type="curve"/>
      <point x="643.60565595651224" y="1089.0442565455812" type="line"/>
      <point x="618.74441867067299" y="1096.209222317769"/>
      <point x="594.20683308853756" y="1103.4105411844857"/>
      <point x="568.06469483283763" y="1104.070905346246" type="curve" smooth="yes"/>
      <point x="479.21004469766041" y="1106.3154205416402"/>
      <point x="415.8558383664743" y="1050.1477402490586"/>
      <point x="366.52447562905678" y="982.95398318299328" type="curve"/>
      <point x="387.44655059882587" y="1083.3961436194249" type="line"/>
      <point x="208.04686593054799" y="1081.8217657379739" type="line"/>
      <point x="20.470940377487722" y="0.0" type="line"/>
      <point x="208.14330895804369" y="0.0" type="line"/>
      <point x="342.95998104514541" y="779.08867152052903" type="line"/>
      <point x="389.29316065148737" y="856.12926216304891"/>
      <point x="450.09225809322328" y="916.11320324324618"/>
    </contour>
  </outline>
</glyph>
<glyph name="s" format="1">
  <advance width="909.86"/>
  <unicode hex="0073"/>
  <outline>
    <contour>
      <point x="598.3222271629171" y="1290" type="move" name="top"/>
    </contour>
    <contour>
      <point x="395.78179917481242" y="-10" type="move" name="bottom"/>
    </contour>
    <contour>
      <point x="1046.260329221619" y="1600" type="move" name="top_dd"/>
    </contour>
    <contour>
      <point x="733.56906847382959" y="-407" type="move" name="bottom_dd"/>
    </contour>
    <contour>
      <point x="997.96222716291697" y="1290" type="move" name="top0315"/>
    </contour>
    <contour>
      <point x="583.10773375154292" y="295.74157102890678" type="curve" smooth="yes"/>
      <point x="569.75010578813271" y="197.93714960214464"/>
      <point x="489.51146532081378" y="139.77483152873239"/>
      <point x="393.04443822283247" y="141.01446881031418" type="curve" smooth="yes"/>
      <point x="277.14799117238829" y="142.50378138569477"/>
      <point x="236.43102305383422" y="236.73466163300367"/>
      <point x="237.91819292659136" y="339.36516505301518" type="curve"/>
      <point x="51.175880335757157" y="339.80022655158967" type="line"/>
      <point x="45.003395656404734" y="136.45498242887558"/>
      <point x="178.75268237769629" y="-15.4263354801693"/>
      <point x="385.88119200434573" y="-19.924516546886309" type="curve" smooth="yes"/>
      <point x="585.05618118143207" y="-24.249972115001228"/>
      <point x="757.24386907272424" y="105.55649469253493"/>
      <point x="768.19801222759668" y="311.38245816527171" type="curve" smooth="yes"/>
      <point x="778.06311556473906" y="496.74560071488111"/>
      <point x="643.54656687697434" y="574.58145611021098"/>
      <point x="486.64846779760251" y="627.6148828717379" type="curve" smooth="yes"/>
      <point x="408.72603795026566" y="653.95359252237813"/>
      <point x="325.59836985066124" y="684.30432646710551"/>
      <point x="337.20578767897513" y="780.648964418177" type="curve" smooth="yes"/>
      <point x="348.22143222222087" y="872.08172758862906"/>
      <point x="417.54634457265786" y="941.87382361936682"/>
      <point x="512.12776202207408" y="940.56641699065358" type="curve" smooth="yes"/>
      <point x="611.21984168619929" y="939.19665911115112"/>
      <point x="647.2188555228513" y="846.73352426378369"/>
      <point x="644.88254797583375" y="761.51234189634874" type="curve"/>
      <point x="830.6383564903789" y="761.26251000497257" type="line"/>
      <point x="836.42505090471695" y="951.96642427032589"/>
      <point x="717.97577731718025" y="1098.5882149898528"/>
      <point x="520.72692439824982" y="1102.2609821983062" type="curve" smooth="yes"/>
      <point x="331.44922740250411" y="1105.7853267434341"/>
      <point x="162.99321756023869" y="968.18627611443981"/>
      <point x="153.67343329765191" y="774.34289890731191" type="curve" smooth="yes"/>
      <point x="144.99840640717366" y="593.90991221645709"/>
      <point x="286.91628791547231" y="516.76293670024563"/>
      <point x="438.47795606021873" y="469.16115986646128" type="curve" smooth="yes"/>
      <point x="529.37432898860254" y="440.61285400455233"/>
      <point x="597.34084065347702" y="399.95624068897746"/>
    </contour>
  </outline>
</glyph>
<glyph name="t" format="1">
  <advance width="589.76"/>
  <unicode hex="0074"/>
  <outline>
    <contour>
      <point x="295.00076189018176" y="0" type="move" name="bottom"/>
    </contour>
    <contour>
      <point x="658.17011558141098" y="1664" type="move" name="caron"/>
    </contour>
    <contour>
      <point x="270.18143682724366" y="676" type="move" name="cross"/>
    </contour>
    <contour>
      <point x="436.53708764033468" y="1476" type="move" name="top"/>
    </contour>
    <contour>
      <point x="631.55549652650188" y="1364" type="move" name="marktop"/>
    </contour>
    <contour>
      <point x="743.14206351636381" y="1600" type="move" name="top_dd"/>
    </contour>
    <contour>
      <point x="396.36846203902172" y="-407" type="move" name="bottom_dd"/>
    </contour>
    <contour>
      <point x="721.71708764033474" y="1476" type="move" name="top0315"/>
    </contour>
    <contour>
      <point x="419.16347929849087" y="0.43108335579154272" type="curve"/>
      <point x="435.11152438849138" y="160.7444914714599" type="line"/>
      <point x="412.76953062265522" y="155.99718676228147"/>
      <point x="389.69277640193906" y="150.28833831471175"/>
      <point x="366.65214625235836" y="150.80208064268223" type="curve" smooth="yes"/>
      <point x="302.74125909240723" y="152.22711666552772"/>
      <point x="306.0305025134586" y="218.72688585517653"/>
      <point x="310.81046246438825" y="267.30570279373745" type="curve"/>
      <point x="423.29848545146388" y="931.92217352005378" type="line"/>
      <point x="576.32280807198913" y="932.07679512500272" type="line"/>
      <point x="602.65170347008154" y="1081.9222862853208" type="line"/>
      <point x="449.04138895851827" y="1082.0785276853048" type="line"/>
      <point x="494.63497861112421" y="1341.9224954690292" type="line"/>
      <point x="307.92684681592118" y="1341.9303901402932" type="line"/>
      <point x="262.33048112308313" y="1082.0933835869653" type="line"/>
      <point x="102.62900756999751" y="1081.9303793793333" type="line"/>
      <point x="76.295928100063705" y="932.08980475604289" type="line"/>
      <point x="236.60719535800564" y="931.93827007878258" type="line"/>
      <point x="128.10421093748295" y="269.96671937689302" type="line"/>
      <point x="117.18371418976588" y="142.39251791351569"/>
      <point x="146.5757761254354" y="-15.299739080681951"/>
      <point x="302.98536709550291" y="-18.223675174051099" type="curve" smooth="yes"/>
      <point x="342.35994908766543" y="-18.959747436206936"/>
      <point x="382.35404680745228" y="-13.809703047535207"/>
    </contour>
  </outline>
</glyph>
<glyph name="u" format="1">
  <advance width="961.27"/>
  <unicode hex="0075"/>
  <outline>
    <contour>
      <point x="597.42962382629094" y="1290" type="move" name="top"/>
    </contour>
    <contour>
      <point x="720.83076189018175" y="0" type="move" name="ogonek"/>
    </contour>
    <contour>
      <point x="328.95076189018175" y="0" type="move" name="bottomu"/>
    </contour>
    <contour>
      <point x="1114.6520635163638" y="1600" type="move" name="top_dd"/>
    </contour>
    <contour>
      <point x="767.87846203902166" y="-407" type="move" name="bottom_dd"/>
    </contour>
    <contour>
      <point x="777.57023142988362" y="654" type="move" name="rhotichook"/>
    </contour>
    <contour>
      <point x="1061.089623826291" y="1290" type="move" name="top0315"/>
    </contour>
    <contour>
      <point x="374.54076189018173" y="0" type="move" name="bottom"/>
    </contour>
    <contour>
      <point x="556.25969511389997" y="0.0" type="line"/>
      <point x="732.39103452101278" y="0.0" type="line"/>
      <point x="919.94931434364105" y="1081.9338789617348" type="line"/>
      <point x="732.26858344149707" y="1081.9427743353274" type="line"/>
      <point x="593.03586654597882" y="277.94757028884919" type="line"/>
      <point x="540.92277624696248" y="197.8610296116189"/>
      <point x="466.80309495299912" y="141.07385880484335"/>
      <point x="366.55626506374745" y="146.43060959299626" type="curve" smooth="yes"/>
      <point x="256.01433170817774" y="152.33748554389237"/>
      <point x="268.10469499642193" y="304.54797695050019"/>
      <point x="275.97480161893077" y="379.87881894816047" type="curve"/>
      <point x="392.26422127536512" y="1081.939364087604" type="line"/>
      <point x="205.57706468461288" y="1081.9467736595691" type="line"/>
      <point x="88.887113030797778" y="382.72130048407575" type="line"/>
      <point x="70.120017542326721" y="205.33447156395843"/>
      <point x="102.51837178810763" y="-16.888244507456893"/>
      <point x="322.7264892756674" y="-20.541780295715672" type="curve" smooth="yes"/>
      <point x="423.51228453064886" y="-22.213946218177629"/>
      <point x="507.13565498609432" y="15.553590993361013"/>
      <point x="575.33785829684405" y="88.372209972699693" type="curve"/>
    </contour>
  </outline>
</glyph>
<glyph name="v" format="1">
  <advance width="851.66"/>
  <unicode hex="0076"/>
  <outline>
    <contour>
      <point x="539.53422387070088" y="1280" type="move" name="top"/>
    </contour>
    <contour>
      <point x="342.63780575924483" y="10" type="move" name="bottom"/>
    </contour>
    <contour>
      <point x="988.06032922161887" y="1600" type="move" name="top_dd"/>
    </contour>
    <contour>
      <point x="675.36906847382977" y="-407" type="move" name="bottom_dd"/>
    </contour>
    <contour>
      <point x="938.20422387070096" y="1280" type="move" name="top0315"/>
    </contour>
    <contour>
      <point x="881.64217066157914" y="1081.7658176200212" type="line"/>
      <point x="685.47601715663131" y="1081.8430688876297" type="line"/>
      <point x="376.27194953693601" y="295.06436639448862" type="line"/>
      <point x="306.292625502943" y="1082.0151025910477" type="line"/>
      <point x="121.72351682440861" y="1082.0195401820881" type="line"/>
      <point x="264.79596739805726" y="0.0" type="line"/>
      <point x="404.00793282985154" y="0.0" type="line"/>
    </contour>
  </outline>
</glyph>
<glyph name="w" format="1">
  <advance width="1290.1"/>
  <unicode hex="0077"/>
  <outline>
    <contour>
      <point x="759.41962382629094" y="1290" type="move" name="top"/>
    </contour>
    <contour>
      <point x="541.16858252534541" y="10" type="move" name="bottom"/>
    </contour>
    <contour>
      <point x="759.41962382629094" y="1290" type="move" name="marktop"/>
    </contour>
    <contour>
      <point x="1443.4820635163637" y="1600" type="move" name="top_dd"/>
    </contour>
    <contour>
      <point x="1096.7084620390217" y="-407" type="move" name="bottom_dd"/>
    </contour>
    <contour>
      <point x="1389.9196238262912" y="1290" type="move" name="top0315"/>
    </contour>
    <contour>
      <point x="1331.3236246701979" y="1081.7979199879233" type="line"/>
      <point x="1142.0078517527309" y="1081.8405990370147" type="line"/>
      <point x="861.5511833968078" y="343.16245625327707" type="line"/>
      <point x="798.28702897638789" y="1082.0873399663094" type="line"/>
      <point x="650.50932577389608" y="1081.7730156363634" type="line"/>
      <point x="338.77957868258028" y="366.26078695032163" type="line"/>
      <point x="308.90060319975692" y="1082.0058797380416" type="line"/>
      <point x="130.74852639880771" y="1082.0309754824493" type="line"/>
      <point x="198.14169063189786" y="0.0" type="line"/>
      <point x="348.23535514862857" y="0.0" type="line"/>
      <point x="671.06016996528115" y="746.44006281048485" type="line"/>
      <point x="738.86170833707297" y="0.0" type="line"/>
      <point x="887.13097249067857" y="0.0" type="line"/>
    </contour>
  </outline>
</glyph>
<glyph name="x" format="1">
  <advance width="876.88"/>
  <unicode hex="0078"/>
  <outline>
    <contour>
      <point x="343.6078057592448" y="10" type="move" name="bottom"/>
    </contour>
    <contour>
      <point x="628.19980246702858" y="0" type="move" name="right"/>
    </contour>
    <contour>
      <point x="427.23738452658392" y="553" type="move" name="cross"/>
    </contour>
    <contour>
      <point x="539.53422387070088" y="1280" type="move" name="top"/>
    </contour>
    <contour>
      <point x="1013.2803292216189" y="1600" type="move" name="top_dd"/>
    </contour>
    <contour>
      <point x="700.5890684738298" y="-407" type="move" name="bottom_dd"/>
    </contour>
    <contour>
      <point x="963.42422387070076" y="1280" type="move" name="top0315"/>
    </contour>
    <contour>
      <point x="340.3059324586917" y="1082.0334963845219" type="line"/>
      <point x="136.40857675085681" y="1081.9921147937318" type="line"/>
      <point x="330.88530440692011" y="557.1377354077556" type="line"/>
      <point x="-50.281703554946951" y="0.0" type="line"/>
      <point x="175.31208838122825" y="0.0" type="line"/>
      <point x="410.80529933839154" y="395.35328251268442" type="line"/>
      <point x="520.5887982838392" y="0.0" type="line"/>
      <point x="724.3739321999758" y="0.0" type="line"/>
      <point x="525.00553895937458" y="536.93018103609722" type="line"/>
      <point x="898.51467581089389" y="1081.6663162173734" type="line"/>
      <point x="671.964955094836" y="1081.7324130850297" type="line"/>
      <point x="443.83853018219042" y="696.73535712795399" type="line"/>
    </contour>
  </outline>
</glyph>
<glyph name="y" format="1">
  <advance width="826.4399999999999"/>
  <unicode hex="0079"/>
  <outline>
    <contour>
      <point x="549.89962382629096" y="1290" type="move" name="top"/>
    </contour>
    <contour>
      <point x="466.55119585459624" y="-158" type="move" name="bottom"/>
    </contour>
    <contour>
      <point x="549.89962382629096" y="1290" type="move" name="marktop"/>
    </contour>
    <contour>
      <point x="979.82206351636387" y="1600" type="move" name="top_dd"/>
    </contour>
    <contour>
      <point x="633.04846203902162" y="-407" type="move" name="bottom_dd"/>
    </contour>
    <contour>
      <point x="627.2202314298836" y="654" type="move" name="rhotichook"/>
    </contour>
    <contour>
      <point x="926.25962382629086" y="1290" type="move" name="top0315"/>
    </contour>
    <contour>
      <point x="321.71404436707633" y="-166.86116647784405" type="curve" smooth="yes"/>
      <point x="876.78204505861947" y="1081.7741330952442" type="line"/>
      <point x="672.15899949186428" y="1081.8317434944067" type="line"/>
      <point x="362.68434807846592" y="325.05791244745222" type="line"/>
      <point x="316.39876890411676" y="1082.0148567913202" type="line"/>
      <point x="118.61534036689882" y="1082.022141633362" type="line"/>
      <point x="236.35926909046253" y="21.019594815037937" type="line"/>
      <point x="187.96821345520289" y="-93.013954632148653" type="line" smooth="yes"/>
      <point x="145.10895339323997" y="-194.66349561146498"/>
      <point x="82.893749343505561" y="-275.39426437470797"/>
      <point x="-37.155807578481358" y="-268.8433585923629" type="curve" smooth="yes"/>
      <point x="-48.665791975139996" y="-268.21527777913866"/>
      <point x="-59.926930938176142" y="-265.64569961436104"/>
      <point x="-71.13672859568787" y="-263.17957638217467" type="curve"/>
      <point x="-88.178389255137205" y="-422.45379703927307" type="line"/>
      <point x="-55.233575995446834" y="-430.30124279100551"/>
      <point x="-21.262956681401505" y="-439.30365453235135"/>
      <point x="12.806275146946376" y="-440.04847761903579" type="curve" smooth="yes"/>
      <point x="170.14109911880126" y="-443.4881386546615"/>
      <point x="267.32112055047372" y="-295.36576579858865"/>
    </contour>
  </outline>
</glyph>
<glyph name="z" format="1">
  <advance width="876.88"/>
  <unicode hex="007A"/>
  <outline>
    <contour>
      <point x="558.62962382629098" y="1290" type="move" name="top"/>
    </contour>
    <contour>
      <point x="342.31858252534539" y="10" type="move" name="bottom"/>
    </contour>
    <contour>
      <point x="1030.2620635163639" y="1600" type="move" name="top_dd"/>
    </contour>
    <contour>
      <point x="683.48846203902167" y="-407" type="move" name="bottom_dd"/>
    </contour>
    <contour>
      <point x="976.69962382629092" y="1290" type="move" name="top0315"/>
    </contour>
    <contour>
      <point x="147.95335525010813" y="921.09743959021444" type="line"/>
      <point x="612.73499175369352" y="920.68763736908011" type="line"/>
      <point x="14.46740034225239" y="154.55690026023231" type="line"/>
      <point x="-12.393153939408094" y="0.0" type="line"/>
      <point x="692.11026834470124" y="0.0" type="line"/>
      <point x="720.50933945774318" y="159.9030827609848" type="line"/>
      <point x="234.00368060522004" y="160.30596034741225" type="line"/>
      <point x="838.73309024760317" y="933.45983313672878" type="line"/>
      <point x="864.5383110903083" y="1081.8331079357745" type="line"/>
      <point x="176.5293065255068" y="1081.9195470489237" type="line"/>
    </contour>
  </outline>
</glyph>
<glyph name="braceleft" format="1">
  <advance width="612.0699999999999"/>
  <unicode hex="007B"/>
  <outline>
    <contour>
      <point x="183.6145312333179" y="310.17175083869711" type="curve" smooth="yes"/>
      <point x="156.22889290412814" y="105.82931991608744" type="line" smooth="yes"/>
      <point x="133.45330152043618" y="-95.847761196775295"/>
      <point x="194.05493341367563" y="-279.84993525017717"/>
      <point x="393.52941798393726" y="-358.41655793325862" type="curve"/>
      <point x="438.50008290198775" y="-239.36338996421284" type="line"/>
      <point x="312.87843739415223" y="-174.72704610778516"/>
      <point x="328.0014193116383" y="-15.548579822559788"/>
      <point x="343.47693462017622" y="105.09389104192162" type="curve" smooth="yes"/>
      <point x="370.59526084724166" y="309.13947753584597" type="line" smooth="yes"/>
      <point x="382.01470051854278" y="419.59134952999398"/>
      <point x="364.735837118375" y="537.47024571938186"/>
      <point x="278.10215520353404" y="614.59759730472581" type="curve"/>
      <point x="396.57124502151373" y="687.12758360875182"/>
      <point x="454.49518657566284" y="792.8115659864917"/>
      <point x="472.9230449252691" y="929.11720788014031" type="curve" smooth="yes"/>
      <point x="500.75763941468767" y="1132.054292064096" type="line" smooth="yes"/>
      <point x="521.13106516789514" y="1273.5006700916761"/>
      <point x="565.98995776471747" y="1417.0671485647779"/>
      <point x="707.91032333355804" y="1477.0312588681954" type="curve"/>
      <point x="679.83329551411987" y="1599.3460327290618" type="line"/>
      <point x="454.66769253339982" y="1524.2451393974236"/>
      <point x="343.32046698411239" y="1362.3796509743561"/>
      <point x="312.53307891812386" y="1131.7241633594949" type="curve" smooth="yes"/>
      <point x="285.07587986898096" y="929.00018798970439" type="line" smooth="yes"/>
      <point x="267.54091649495962" y="806.55057090891978"/>
      <point x="214.84588636184941" y="700.02419061409523"/>
      <point x="79.160779730261382" y="692.98232385130393" type="curve"/>
      <point x="63.308564498994954" y="541.29450188160445" type="line"/>
      <point x="189.58235495360043" y="529.52457285793616"/>
      <point x="195.93558897788304" y="417.24166014328381"/>
    </contour>
  </outline>
</glyph>
<glyph name="braceright" format="1">
  <advance width="612.0699999999999"/>
  <unicode hex="007D"/>
  <outline>
    <contour>
      <point x="431.92762291925874" y="927.81555942007026" type="curve" smooth="yes"/>
      <point x="459.26482817915428" y="1132.1720980421576" type="line" smooth="yes"/>
      <point x="482.01891597423298" y="1333.8716343612446"/>
      <point x="421.87086988364439" y="1516.6595708078016"/>
      <point x="222.56827836176637" y="1595.4740042918602" type="curve"/>
      <point x="177.4271839992702" y="1475.9113407629018" type="line"/>
      <point x="302.62421237342943" y="1412.7890989163179"/>
      <point x="288.39346608879725" y="1251.9745499165865"/>
      <point x="273.10038182738833" y="1132.8020772258476" type="curve" smooth="yes"/>
      <point x="246.10913381416776" y="928.8533243969797" type="line" smooth="yes"/>
      <point x="234.75000436722624" y="815.72390039708603"/>
      <point x="254.1831792631605" y="694.55128602945661"/>
      <point x="350.93776830039923" y="623.27742276669085" type="curve"/>
      <point x="223.80470489749797" y="555.28595456664436"/>
      <point x="161.92761951676883" y="450.13007012842689"/>
      <point x="143.20823515740454" y="308.57681248687146" type="curve" smooth="yes"/>
      <point x="115.74432914649533" y="105.94573943404826" type="line" smooth="yes"/>
      <point x="95.432314902724869" y="-35.665934961588093"/>
      <point x="50.600536913418097" y="-179.03172883537266"/>
      <point x="-91.448700542343516" y="-239.05812346943344" type="curve"/>
      <point x="-64.545114616854534" y="-362.35829008810242" type="line"/>
      <point x="161.37841791835743" y="-287.31173604759141"/>
      <point x="272.07563664518631" y="-124.76053738634803"/>
      <point x="302.95739551942859" y="106.29333824339915" type="curve" smooth="yes"/>
      <point x="330.47632439033282" y="309.01047505036803" type="line" smooth="yes"/>
      <point x="348.03927373100595" y="431.1611408499507"/>
      <point x="400.90486455472831" y="538.02473234843478"/>
      <point x="536.33832686559288" y="545.07459198671677" type="curve"/>
      <point x="552.20954246350891" y="696.72162599664034" type="line"/>
      <point x="425.72831269403389" y="708.44765473934433"/>
      <point x="419.60926170399711" y="820.60600296973234"/>
    </contour>
  </outline>
</glyph>
<glyph name="asciitilde" format="1">
  <advance width="1168.85"/>
  <unicode hex="007E"/>
  <outline>
    <contour>
      <point x="929.70117169804234" y="778.35736626626863" type="line"/>
      <point x="915.3788516774049" y="695.47818314461506"/>
      <point x="875.87574174312715" y="568.1961438106872"/>
      <point x="769.89510321865225" y="569.91801132055184" type="curve" smooth="yes"/>
      <point x="709.76124046235634" y="570.89500623173853"/>
      <point x="676.36156875705069" y="625.02325831298913"/>
      <point x="643.17215597117979" y="666.79750180113695" type="curve" smooth="yes"/>
      <point x="585.53409393965649" y="739.3443242780578"/>
      <point x="507.53192300636448" y="803.76234876864601"/>
      <point x="410.88502091274751" y="806.04918369435165" type="curve" smooth="yes"/>
      <point x="211.54403373156904" y="810.76594048360698"/>
      <point x="112.41529931514899" y="604.12615302328402"/>
      <point x="95.582260808990398" y="434.20106724206659" type="curve"/>
      <point x="255.5248235085665" y="436.52356431715845" type="line"/>
      <point x="268.36929376302783" y="516.73474427731287"/>
      <point x="299.53512210155259" y="637.00811753158041"/>
      <point x="403.36236289177407" y="633.76019516806639" type="curve" smooth="yes"/>
      <point x="461.78016312319994" y="631.93277031929961"/>
      <point x="496.2439418513618" y="577.91601219581401"/>
      <point x="528.75927850227401" y="537.22153721806171" type="curve" smooth="yes"/>
      <point x="587.34709834859325" y="463.89612175845565"/>
      <point x="663.70305489147438" y="400.21984251862364"/>
      <point x="761.66079698569467" y="398.20640361643717" type="curve" smooth="yes"/>
      <point x="961.93462598737187" y="394.08994370442781"/>
      <point x="1058.9326614272559" y="612.7216699183341"/>
      <point x="1073.0918402818475" y="781.4062650706021" type="curve"/>
    </contour>
  </outline>
</glyph>
<glyph name="exclamdown" format="1">
  <advance width="470.45"/>
  <unicode hex="00A1"/>
  <outline>
    <contour>
      <point x="407.97476585056199" y="994.61568952290429" type="curve" smooth="yes"/>
      <point x="408.46746401415794" y="1056.5591196637722"/>
      <point x="367.01449822445301" y="1103.9411823767728"/>
      <point x="303.37350634923092" y="1102.155388485816" type="curve" smooth="yes"/>
      <point x="239.71987044041589" y="1100.3692397977816"/>
      <point x="200.23875574692346" y="1050.9190773529235"/>
      <point x="199.64902401473887" y="989.36963499432829" type="curve" smooth="yes"/>
      <point x="199.0535515307559" y="927.22103872790126"/>
      <point x="239.72444575330067" y="877.98782894265571"/>
      <point x="304.21519584671228" y="879.8420479319301" type="curve" smooth="yes"/>
      <point x="368.45455557058227" y="881.68903901958686"/>
      <point x="407.48406142325609" y="932.92291764245715"/>
    </contour>
    <contour>
      <point x="-25.653399416206852" y="-360.9147525748001" type="line"/>
      <point x="171.63308171705393" y="-360.95258917261344" type="line"/>
      <point x="338.51726912456297" y="682.94274421862247" type="line"/>
      <point x="170.10280722769022" y="682.92586051071555" type="line"/>
    </contour>
  </outline>
</glyph>
<glyph name="cent" format="1">
  <advance width="954.48"/>
  <unicode hex="00A2"/>
  <outline>
    <contour>
      <point x="811.36292512360944" y="343.0090718894121" type="curve"/>
      <point x="634.93912620688752" y="341.78202015251082" type="line"/>
      <point x="610.49044927392072" y="241.22418378005739"/>
      <point x="538.93426020848312" y="135.34679598682592"/>
      <point x="423.07257884467504" y="138.36373955642017" type="curve" smooth="yes"/>
      <point x="237.6595025539043" y="143.19174465396111"/>
      <point x="256.6496734463571" y="391.09712009113588"/>
      <point x="270.8667901443161" y="518.34565340701909" type="curve" smooth="yes"/>
      <point x="275.8709684221277" y="560.0124711539288" type="line" smooth="yes"/>
      <point x="295.42850814514264" y="714.63955693092134"/>
      <point x="358.5351883080989" y="950.55202493939157"/>
      <point x="556.43145369361287" y="942.73201979568614" type="curve" smooth="yes"/>
      <point x="679.63374480259756" y="937.86359770438639"/>
      <point x="706.03575489680611" y="808.72723533074827"/>
      <point x="704.98535071112167" y="708.43054050612511" type="curve"/>
      <point x="881.02011505869439" y="708.1797167884655" type="line"/>
      <point x="884.2853233709485" y="868.98435594413525"/>
      <point x="829.47150585618147" y="1037.7759397897546"/>
      <point x="662.55690226004026" y="1090.7501113207277" type="curve"/>
      <point x="707.89393862245231" y="1317.6266631905548" type="line"/>
      <point x="521.21249336699702" y="1318.1093767710349" type="line"/>
      <point x="475.78883711756305" y="1089.220249523162" type="line"/>
      <point x="230.74370592948503" y="1026.8736936305477"/>
      <point x="120.49454284837456" y="795.08966697000028"/>
      <point x="91.433222180036339" y="560.4923885491952" type="curve" smooth="yes"/>
      <point x="86.394120250212254" y="517.41718324008377" type="line" smooth="yes"/>
      <point x="65.555589894142827" y="326.11781169692813"/>
      <point x="88.128678010079199" y="72.976593263998609"/>
      <point x="297.02444975140435" y="-4.5209205348635964" type="curve"/>
      <point x="249.32892957339868" y="-244.6908937452541" type="line"/>
      <point x="436.10210460863391" y="-245.09560996250013" type="line"/>
      <point x="482.48344575072304" y="-9.8633752697427362" type="line"/>
      <point x="654.88667767698689" y="34.119477177176321"/>
      <point x="785.16785649404846" y="164.31391809887305"/>
    </contour>
  </outline>
</glyph>
<glyph name="sterling" format="1">
  <advance width="1019.47"/>
  <unicode hex="00A3"/>
  <outline>
    <contour>
      <point x="-2.8002764617088047" y="0.0" type="line"/>
      <point x="852.28014512422533" y="0.0" type="line"/>
      <point x="882.53236638486715" y="165.91705740736006" type="line"/>
      <point x="284.03004647234008" y="163.43024297837849" type="line"/>
      <point x="338.90210032112509" y="236.014475257035"/>
      <point x="370.17914210026947" y="318.56679906311086"/>
      <point x="384.1079911706945" y="408.44133902442906" type="curve" smooth="yes"/>
      <point x="412.99663139247332" y="618.91723733915251" type="line"/>
      <point x="654.87542014077815" y="619.09009541008641" type="line"/>
      <point x="684.21242797184902" y="784.8993945293355" type="line"/>
      <point x="437.04361905094356" y="785.07552902702867" type="line"/>
      <point x="469.65337627403335" y="1039.6770859312924" type="line" smooth="yes"/>
      <point x="484.68435646833063" y="1152.1239077692094"/>
      <point x="548.65826276083419" y="1316.5568822621001"/>
      <point x="687.38561936289364" y="1312.0239429374733" type="curve" smooth="yes"/>
      <point x="810.52850347391757" y="1308.0002288294043"/>
      <point x="831.71792841901458" y="1186.7857131528679"/>
      <point x="824.80288125222535" y="1086.9414694390891" type="curve"/>
      <point x="1018.9603466398657" y="1086.3469170562857" type="line"/>
      <point x="1030.645898314099" y="1289.0022253432114"/>
      <point x="941.15554570109236" y="1470.0798967761025"/>
      <point x="718.23128913095718" y="1476.3912035943215" type="curve" smooth="yes"/>
      <point x="464.48430885177459" y="1483.5751461198163"/>
      <point x="304.73255505379882" y="1273.2369999397963"/>
      <point x="276.08945950723614" y="1038.7831297778696" type="curve" smooth="yes"/>
      <point x="243.02530623677319" y="785.07418917276789" type="line"/>
      <point x="124.92731937612051" y="784.8949472839505" type="line"/>
      <point x="95.841819465171213" y="619.07257987275784" type="line"/>
      <point x="218.42866247703824" y="618.96793290615233" type="line"/>
      <point x="188.62074355917838" y="407.07506299211582" type="line" smooth="yes"/>
      <point x="175.80087839968749" y="323.8141648809775"/>
      <point x="153.16143413274921" y="201.56270069917181"/>
      <point x="68.616698139831257" y="162.92236212315711" type="curve"/>
      <point x="13.496241680736944" y="165.30725421242215" type="line"/>
    </contour>
  </outline>
</glyph>
<glyph name="yen" format="1">
  <advance width="925.38"/>
  <unicode hex="00A5"/>
  <outline>
    <contour>
      <point x="754.7494363438617" y="322.07159828674202" type="line"/>
      <point x="777.82698766383703" y="451.91143670291046" type="line"/>
      <point x="530.88455622812967" y="452.0784823072965" type="line"/>
      <point x="559.00399407581551" y="610.90532579896035" type="line"/>
      <point x="804.85195868700009" y="611.05450959642883" type="line"/>
      <point x="828.01253298085476" y="741.83641017380239" type="line"/>
      <point x="639.06216126194329" y="742.26042082683796" type="line"/>
      <point x="1053.5844044807498" y="1455.6997350410381" type="line"/>
      <point x="829.41778198383872" y="1455.7239103301283" type="line"/>
      <point x="504.62825737817013" y="856.94304444166244" type="line"/>
      <point x="389.32675211120568" y="1456.0265324220763" type="line"/>
      <point x="179.87953380840582" y="1456.0332682179953" type="line"/>
      <point x="347.50665236364773" y="741.99027184685553" type="line"/>
      <point x="146.68028675069303" y="741.9366686035936" type="line"/>
      <point x="123.41558543050313" y="611.0903447236517" type="line"/>
      <point x="364.51694765387623" y="610.91916365542079" type="line"/>
      <point x="336.43046695231885" y="452.09220676486689" type="line"/>
      <point x="96.396033702408701" y="451.92143105892802" type="line"/>
      <point x="73.355929627175854" y="322.08282272417341" type="line"/>
      <point x="314.3960791477287" y="321.9174746496779" type="line"/>
      <point x="258.02966084103679" y="0.0" type="line"/>
      <point x="452.50077357556472" y="0.0" type="line"/>
      <point x="508.87867257760843" y="321.90634648616407" type="line"/>
    </contour>
  </outline>
</glyph>
<glyph name="section" format="1">
  <advance width="1070.8799999999999"/>
  <unicode hex="00A7"/>
  <outline>
    <contour>
      <point x="805.09605311275436" y="-119.4274967630035" type="curve" smooth="yes"/>
      <point x="813.42227141177727" y="-21.786956787060944"/>
      <point x="799.9455778301849" y="73.669599094165548"/>
      <point x="740.32225828275045" y="153.40911426948657" type="curve"/>
      <point x="853.93950458025051" y="215.76764796122981"/>
      <point x="925.66365338222727" y="306.91438227576407"/>
      <point x="937.19476302117437" y="438.95878423652596" type="curve" smooth="yes"/>
      <point x="957.47141047106049" y="671.14960282403365"/>
      <point x="817.93015179629447" y="779.93097690468835"/>
      <point x="619.43426020387722" y="858.71934085222699" type="curve" smooth="yes"/>
      <point x="496.58839971505392" y="907.4801705499824"/>
      <point x="383.46362791594294" y="953.48044033867723"/>
      <point x="403.51493748338061" y="1103.806610039549" type="curve" smooth="yes"/>
      <point x="421.23835860851125" y="1236.680425726036"/>
      <point x="528.33190047946493" y="1320.3601948037017"/>
      <point x="661.14422482095517" y="1316.764589872517" type="curve" smooth="yes"/>
      <point x="811.31505676800714" y="1312.6990410874464"/>
      <point x="850.10437044257264" y="1172.575260408106"/>
      <point x="840.7169407229627" y="1045.8238930310802" type="curve"/>
      <point x="1026.7128404916593" y="1045.5621607055243" type="line"/>
      <point x="1042.6561954118486" y="1288.1541860775017"/>
      <point x="927.96885177956278" y="1471.9180422108811"/>
      <point x="670.41008728218696" y="1477.2850953795235" type="curve" smooth="yes"/>
      <point x="438.03813740214036" y="1482.1273014381723"/>
      <point x="235.65866683152029" y="1342.619990320602"/>
      <point x="214.76338576903049" y="1101.5426718716685" type="curve" smooth="yes"/>
      <point x="206.32941794369574" y="1004.2365700233304"/>
      <point x="220.12235671541276" y="909.20574200023202"/>
      <point x="278.00970758491871" y="828.86477546069739" type="curve"/>
      <point x="166.49219153838345" y="765.61734115076604"/>
      <point x="95.434782821691272" y="673.52079118671554"/>
      <point x="84.001573456102861" y="543.00475901059076" type="curve" smooth="yes"/>
      <point x="63.610499985616741" y="310.23004842146781"/>
      <point x="199.78682158311886" y="204.63192531254913"/>
      <point x="396.77782290507707" y="123.35400879751455" type="curve" smooth="yes"/>
      <point x="509.3167452402555" y="76.920775437270692"/>
      <point x="636.81245647135256" y="20.316540049210246"/>
      <point x="617.5821605791931" y="-121.28398321458924" type="curve" smooth="yes"/>
      <point x="599.76108781311848" y="-252.50782100417229"/>
      <point x="489.52775805972016" y="-337.50450172112585"/>
      <point x="359.12919703930083" y="-334.83838244902506" type="curve" smooth="yes"/>
      <point x="200.71413375962598" y="-331.5994398572056"/>
      <point x="147.24048099520877" y="-202.85771296597215"/>
      <point x="158.01407278820932" y="-61.933381822496685" type="curve"/>
      <point x="-33.83694154650901" y="-63.669827349773698" type="line"/>
      <point x="-46.482635384362382" y="-315.74612847863335"/>
      <point x="91.727058812003861" y="-490.10362285004379"/>
      <point x="349.8794250318582" y="-495.53758462093697" type="curve" smooth="yes"/>
      <point x="585.92941680440617" y="-500.5063038703251"/>
      <point x="784.22250205492344" y="-364.20906785647134"/>
    </contour>
    <contour>
      <point x="477.71342168363651" y="296.36612876792589" type="curve" smooth="yes"/>
      <point x="354.08954089643055" y="344.78488466397278"/>
      <point x="251.12408632413283" y="396.98458870538707"/>
      <point x="272.3356269758192" y="544.57806695813167" type="curve" smooth="yes"/>
      <point x="285.14209463356531" y="633.68762937870758"/>
      <point x="328.49054094835344" y="700.56576729061521"/>
      <point x="411.02893225430978" y="737.74824201430818" type="curve"/>
      <point x="453.36105174207091" y="717.69554319209658"/>
      <point x="496.91257073995058" y="702.2318769086213"/>
      <point x="540.18672888669118" y="684.57032201040272" type="curve" smooth="yes"/>
      <point x="653.83477255392938" y="638.18695493257883"/>
      <point x="769.04399213180307" y="575.1500184257286"/>
      <point x="748.15680041810401" y="436.25621990150324" type="curve" smooth="yes"/>
      <point x="734.74014381452059" y="347.03932446099958"/>
      <point x="685.18187103117702" y="282.14406977719756"/>
      <point x="604.51207480962069" y="243.8453408631834" type="curve"/>
      <point x="562.91338025042091" y="263.32669371921327"/>
      <point x="520.44740860299783" y="279.62885706979006"/>
    </contour>
  </outline>
</glyph>
<glyph name="ordfeminine" format="1">
  <advance width="789.5799999999999"/>
  <unicode hex="00AA"/>
  <outline>
    <contour>
      <point x="536.11355477630855" y="703.68753053885814" type="curve"/>
      <point x="694.18736041894579" y="704.70106308123218" type="line"/>
      <point x="686.22892199957653" y="766.21767577238893"/>
      <point x="690.17236379086307" y="825.61787574314553"/>
      <point x="700.09043647221847" y="886.73525615304163" type="curve" smooth="yes"/>
      <point x="748.20974639194014" y="1201.0065318537372" type="line"/>
      <point x="760.65519810490525" y="1347.5747903462332"/>
      <point x="695.15596370412368" y="1474.4983036743354"/>
      <point x="535.46558357944912" y="1477.9243248779669" type="curve" smooth="yes"/>
      <point x="389.21061064029703" y="1481.0621008544213"/>
      <point x="276.59445513574315" y="1390.4845969191174"/>
      <point x="262.1901310125117" y="1244.4551570288702" type="curve"/>
      <point x="425.98808851525382" y="1230.3821559190562" type="line"/>
      <point x="440.08782749087669" y="1285.804849024114"/>
      <point x="470.23382584898832" y="1331.0829943602812"/>
      <point x="534.17933232334735" y="1329.3700681544985" type="curve" smooth="yes"/>
      <point x="599.07133600458098" y="1327.6317878627333"/>
      <point x="592.571087164098" y="1249.7637809161752"/>
      <point x="585.78148409696189" y="1204.2222613112383" type="curve" smooth="yes"/>
      <point x="575.54325618551036" y="1150.9774939676408" type="line"/>
      <point x="498.53489589455978" y="1152.0762333283976" type="line" smooth="yes"/>
      <point x="340.04446484839673" y="1151.6274910762957"/>
      <point x="196.05404692097667" y="1088.3119437753696"/>
      <point x="189.66462678481366" y="912.10353438758398" type="curve" smooth="yes"/>
      <point x="185.39462783910562" y="794.34484795339131"/>
      <point x="245.78860076124198" y="691.5540983815398"/>
      <point x="373.32145151026197" y="691.91367298063142" type="curve" smooth="yes"/>
      <point x="440.18906555335593" y="692.1022039777082"/>
      <point x="491.59039194156503" y="723.0540054122954"/>
      <point x="536.41270590081228" y="769.9920596266013" type="curve"/>
      <point x="535.45521900773485" y="747.73227965025694"/>
      <point x="535.34009970272677" y="725.9536122497866"/>
    </contour>
    <contour>
      <point x="417.65002462469374" y="834.37646056842095" type="curve" smooth="yes"/>
      <point x="367.93014190058551" y="835.62341939458838"/>
      <point x="348.90213427705936" y="869.89749426042943"/>
      <point x="354.72724215901212" y="916.57511547107811" type="curve" smooth="yes"/>
      <point x="364.29097854566697" y="993.21102908185287"/>
      <point x="430.90153805666921" y="1030.9744563038273"/>
      <point x="502.01068415692316" y="1034.8446760053168" type="curve"/>
      <point x="568.97475095547486" y="1035.068924696727" type="line"/>
      <point x="536.24182053294487" y="889.79433405232601" type="line"/>
      <point x="503.27679343632349" y="864.07349966208835"/>
      <point x="461.98602382699903" y="833.26452782656315"/>
    </contour>
  </outline>
</glyph>
<glyph name="logicalnot" format="1">
  <advance width="971.9399999999999"/>
  <unicode hex="00AC"/>
  <outline>
    <contour>
      <point x="159.59933171657235" y="804.91539918930812" type="line"/>
      <point x="129.24883179866487" y="634.09531869102966" type="line"/>
      <point x="631.39675439497023" y="633.91810274499142" type="line"/>
      <point x="585.68180281171476" y="374.07736919166518" type="line"/>
      <point x="773.43507938051278" y="374.06261780776072" type="line"/>
      <point x="848.61046432803425" y="804.91740567811814" type="line"/>
    </contour>
  </outline>
</glyph>
<glyph name="macron" format="1">
  <advance width="837.11"/>
  <unicode hex="00AF"/>
  <outline>
    <contour>
      <point x="527.235824529144" y="1282" type="move" name="_top"/>
    </contour>
    <contour>
      <point x="573.6643226371865" y="1580" type="move" name="mkmktop_acc"/>
    </contour>
    <contour>
      <point x="846.27010084943981" y="1445.9305435240001" type="line"/>
      <point x="270.57426854520685" y="1445.9375008176255" type="line"/>
      <point x="246.57440797985123" y="1296.0692382916602" type="line"/>
      <point x="822.27024028408493" y="1296.0622809980366" type="line"/>
    </contour>
  </outline>
</glyph>
<glyph name="plusminus" format="1">
  <advance width="936.05"/>
  <unicode hex="00B1"/>
  <outline>
    <contour>
      <point x="867.7718967513315" y="699.06739848516293" type="line"/>
      <point x="893.30322419060883" y="858.92477506208695" type="line"/>
      <point x="611.56254835539733" y="859.06157057686084" type="line"/>
      <point x="675.74059158821058" y="1266.9416374218072" type="line"/>
      <point x="508.42905918345264" y="1266.9492386551224" type="line"/>
      <point x="444.24161609526027" y="859.07087464370147" type="line"/>
      <point x="144.96927074358427" y="858.93300603470595" type="line"/>
      <point x="119.41805200148276" y="699.07365134635802" type="line"/>
      <point x="419.60640221378196" y="698.93883971701666" type="line"/>
      <point x="355.10804515578093" y="289.05651854035324" type="line"/>
      <point x="522.42138560063438" y="289.05212696760265" type="line"/>
      <point x="586.91369615675194" y="698.92728288443982" type="line"/>
    </contour>
    <contour>
      <point x="746.51816163600722" y="160.92321832101709" type="line"/>
      <point x="64.137441451077351" y="160.93024008047215" type="line"/>
      <point x="38.536255105631383" y="1.0767323231036496" type="line"/>
      <point x="720.91697529055477" y="1.0697105636429016" type="line"/>
    </contour>
  </outline>
</glyph>
<glyph name="mu" format="1">
  <advance width="995.22"/>
  <unicode hex="00B5"/>
  <outline>
    <contour>
      <point x="398.19179704495025" y="-22.537810971744985" type="curve" smooth="yes"/>
      <point x="486.86899568524376" y="-22.870893024946394"/>
      <point x="549.25409622360314" y="25.585027335587455"/>
      <point x="601.01904067091391" y="92.980065093854947" type="curve"/>
      <point x="585.17517758603879" y="0.0" type="line"/>
      <point x="750.8890273790912" y="0.0" type="line"/>
      <point x="938.37981984929161" y="1081.9352086428935" type="line"/>
      <point x="750.70997696442146" y="1081.9432959500841" type="line"/>
      <point x="608.1743145388682" y="258.62474772345422" type="line"/>
      <point x="560.32896825727175" y="184.16927496884489"/>
      <point x="495.88857561470866" y="134.89385915919459"/>
      <point x="403.578476846976" y="138.11514370650713" type="curve" smooth="yes"/>
      <point x="258.0232101485002" y="143.19448971149322"/>
      <point x="298.61014757282373" y="371.13287292094537"/>
      <point x="308.78224210128201" y="460.96924275746119" type="curve" smooth="yes"/>
      <point x="410.71948318192233" y="1081.9434333777212" type="line"/>
      <point x="224.96035274542351" y="1081.9417249596675" type="line"/>
      <point x="-35.133123849068227" y="-415.93000754931239" type="line"/>
      <point x="150.51274041049578" y="-415.93035092599541" type="line"/>
      <point x="236.69158243663873" y="40.008434199840551" type="line"/>
      <point x="280.87270801716363" y="-4.2582599798573213"/>
      <point x="335.92003134143141" y="-22.303910849785332"/>
    </contour>
  </outline>
</glyph>
<glyph name="paragraph" format="1">
  <advance width="870.09"/>
  <unicode hex="00B6"/>
  <outline>
    <contour>
      <point x="611.66030703267768" y="0.0" type="line"/>
      <point x="864.36120852081945" y="1455.8618188066011" type="line"/>
      <point x="602.46479756401277" y="1457.3913546861997" type="line" smooth="yes"/>
      <point x="326.45684044135379" y="1457.3064216041782"/>
      <point x="158.11280179863121" y="1241.3123685572025"/>
      <point x="133.76648684869519" y="980.12948795252373" type="curve" smooth="yes"/>
      <point x="112.39670062289555" y="750.87827125555077"/>
      <point x="208.17846394309436" y="527.19266045397262"/>
      <point x="464.6291055737006" y="521.49096706158912" type="curve" smooth="yes"/>
      <point x="519.33780265502628" y="521.38965915237134" type="line"/>
      <point x="422.94885658844839" y="0.0" type="line"/>
    </contour>
  </outline>
</glyph>
<glyph name="periodcentered" format="1">
  <advance width="490.82"/>
  <unicode hex="00B7"/>
  <outline>
    <contour>
      <point x="153.66677498327994" y="728.13992676253963" type="curve" smooth="yes"/>
      <point x="153.00061437106487" y="662.89920565071861"/>
      <point x="197.02689447760372" y="613.99974853541573"/>
      <point x="263.69185561952924" y="615.82120753176332" type="curve" smooth="yes"/>
      <point x="330.6212691391579" y="617.64989205039751"/>
      <point x="372.75349283470479" y="668.82923030405061"/>
      <point x="373.61367510786027" y="733.80403488796549" type="curve" smooth="yes"/>
      <point x="374.48369243142258" y="799.52174071292893"/>
      <point x="331.97059747333856" y="851.07111222756475"/>
      <point x="263.83195289108636" y="849.19356418033556" type="curve" smooth="yes"/>
      <point x="195.84873889029922" y="847.32029899471149"/>
      <point x="154.33480978379845" y="793.56419729799131"/>
    </contour>
  </outline>
</glyph>
<glyph name="cedilla" format="1">
  <advance width="457.84"/>
  <unicode hex="00B8"/>
  <outline>
    <contour>
      <point x="98.090761890181724" y="0" type="move" name="_bottom"/>
    </contour>
    <contour>
      <point x="22.066653942981659" y="-440" type="move" name="mkmkbottom_acc"/>
    </contour>
    <contour>
      <point x="32.487367213088746" y="0.0" type="line"/>
      <point x="-9.6445960700879141" y="-135.70498483287892" type="line"/>
      <point x="46.893587361846876" y="-143.98918657267103"/>
      <point x="106.99531759067985" y="-149.37194100150208"/>
      <point x="96.277334987989846" y="-221.15571017302287" type="curve" smooth="yes"/>
      <point x="85.361290875096643" y="-294.26599780022963"/>
      <point x="25.791904043460981" y="-319.47327611339847"/>
      <point x="-40.569344439306171" y="-323.79679781260717" type="curve"/>
      <point x="-45.808439871575317" y="-436.93649636597974" type="line"/>
      <point x="95.122322355104714" y="-431.62903474714972"/>
      <point x="233.30368434089019" y="-378.58710971403133"/>
      <point x="238.8142957163617" y="-217.25396360897435" type="curve" smooth="yes"/>
      <point x="241.25808596437537" y="-145.70757024728204"/>
      <point x="219.12138060940217" y="-76.296511912806565"/>
      <point x="145.56316363779041" y="-53.75152079577196" type="curve"/>
      <point x="164.17765551433968" y="0.0" type="line"/>
    </contour>
  </outline>
</glyph>
